<ttFont>
          <CharString index="0">
            50 15 -19 -51 hvcurveto
            -65 vlineto
            -50 -15 -20 -50 vhcurveto
            -19 hlineto
            -51 -15 20 50 hvcurveto
            65 vlineto
            51 15 19 51 vhcurveto
            return
          </CharString>
          <CharString index="1">
            -75 -37 -38 -76 hvcurveto
            -70 vlineto
            -77 37 -38 75 vhcurveto
            35 hlineto
            76 36 38 77 hvcurveto
            70 vlineto
            76 -36 38 -76 vhcurveto
            return
          </CharString>
          <CharString index="2">
            50 15 -19 -50 hvcurveto
            -66 vlineto
            -50 -15 -20 -50 vhcurveto
            -19 hlineto
            -51 -14 20 50 hvcurveto
            66 vlineto
            50 14 19 51 vhcurveto
            return
          </CharString>
          <CharString index="3">
            -75 -37 -37 -77 hvcurveto
            -70 vlineto
            -76 37 -38 75 vhcurveto
            35 hlineto
            76 36 38 76 hvcurveto
            70 vlineto
            77 -36 37 -76 vhcurveto
            return
          </CharString>
          <CharString index="4">
            10 -5 3 -8 vhcurveto
            -51 hlineto
            -9 -4 -3 -10 hvcurveto
            return
          </CharString>
          <CharString index="5">
            -226 vlineto
            -10 5 -3 5 vhcurveto
            5 0 4 3 3 5 rrcurveto
            40 94 rlineto
            return
          </CharString>
          <CharString index="6">
            10 -5 3 -8 vhcurveto
            -51 hlineto
            -9 -4 -4 -10 hvcurveto
            -119 vlineto
            -10 4 -5 9 vhcurveto
            51 hlineto
            8 5 4 10 hvcurveto
            return
          </CharString>
          <CharString index="7">
            10 -5 3 -8 vhcurveto
            -51 hlineto
            -9 -4 -3 -10 hvcurveto
            -120 vlineto
            -10 4 -5 9 vhcurveto
            51 hlineto
            8 5 4 10 hvcurveto
            return
          </CharString>
          <CharString index="8">
            10 -5 3 -8 vhcurveto
            -51 hlineto
            -9 -4 -3 -10 hvcurveto
            -120 vlineto
            -10 4 -5 9 vhcurveto
            51 hlineto
            9 4 4 10 hvcurveto
            return
          </CharString>
          <CharString index="9">
            9 0 3 3 3 11 rrcurveto
            47 146 242 0 47 -146 rlineto
            2 -11 3 -3 9 0 rrcurveto
            51 hlineto
            9 0 3 4 -3 10 rrcurveto
            -187 615 rlineto
            -3 11 -6 3 -10 0 rrcurveto
            -72 hlineto
            -10 0 -6 -3 -3 -11 rrcurveto
            -187 -615 rlineto
            -3 -10 3 -4 9 0 rrcurveto
            return
          </CharString>
          <CharString index="10">
            4 0 103 -346 -210 0 rlineto
            return
          </CharString>
          <CharString index="11">
            92 56 55 93 hvcurveto
            49 vlineto
            10 -5 4 -9 vhcurveto
            -45 hlineto
            -9 -5 -4 -10 hvcurveto
            -46 vlineto
            -56 -27 -31 -57 vhcurveto
            -103 hlineto
            -56 -27 31 56 hvcurveto
            341 vlineto
            56 27 31 56 vhcurveto
            103 hlineto
            57 27 -31 -56 hvcurveto
            -46 vlineto
            -10 5 -4 9 vhcurveto
            45 hlineto
            9 5 4 10 hvcurveto
            49 vlineto
            93 -56 55 -92 vhcurveto
            -120 hlineto
            -92 -56 -55 -93 hvcurveto
            -347 vlineto
            -93 56 -55 92 vhcurveto
            return
          </CharString>
          <CharString index="12">
            -7 -3 3 6 hvcurveto
            497 vlineto
            6 3 3 7 vhcurveto
            168 hlineto
            56 28 -31 -56 hvcurveto
            -341 vlineto
            -56 -28 -31 -56 vhcurveto
            return
          </CharString>
          <CharString index="13">
            -11 5 -3 9 vhcurveto
            246 hlineto
            91 57 55 93 hvcurveto
            347 vlineto
            93 -57 55 -91 vhcurveto
            -246 hlineto
            -9 -5 -3 -11 hvcurveto
            return
          </CharString>
          <CharString index="14">
            10 4 5 9 hvcurveto
            36 vlineto
            9 -4 5 -10 vhcurveto
            -245 hlineto
            -7 -3 3 6 hvcurveto
            213 vlineto
            6 3 3 7 vhcurveto
            214 hlineto
            10 4 5 9 hvcurveto
            36 vlineto
            9 -4 5 -10 vhcurveto
            -214 hlineto
            -7 -3 3 6 hvcurveto
            202 vlineto
            6 3 3 7 vhcurveto
            245 hlineto
            10 4 5 9 hvcurveto
            36 vlineto
            9 -4 5 -10 vhcurveto
            -314 hlineto
            -9 -5 -3 -11 hvcurveto
            -615 vlineto
            -11 5 -3 9 vhcurveto
            return
          </CharString>
          <CharString index="15">
            91 56 55 93 hvcurveto
            168 vlineto
            14 -8 7 -12 vhcurveto
            -161 hlineto
            -11 -3 -5 -9 hvcurveto
            -37 vlineto
            -9 3 -4 11 vhcurveto
            99 hlineto
            7 2 -3 -7 hvcurveto
            -112 vlineto
            -56 -27 -31 -56 vhcurveto
            -91 hlineto
            -56 -27 31 56 hvcurveto
            341 vlineto
            56 27 31 56 vhcurveto
            91 hlineto
            56 27 -31 -56 hvcurveto
            -38 vlineto
            -11 5 -4 9 vhcurveto
            45 hlineto
            9 5 4 11 hvcurveto
            41 vlineto
            93 -56 55 -91 vhcurveto
            -108 hlineto
            -92 -56 -55 -93 hvcurveto
            -347 vlineto
            -93 56 -55 92 vhcurveto
            return
          </CharString>
          <CharString index="16">
            11 -5 3 -9 vhcurveto
            -45 hlineto
            -9 -5 -3 -11 hvcurveto
            -615 vlineto
            -11 5 -3 9 vhcurveto
            45 hlineto
            9 5 3 11 hvcurveto
            return
          </CharString>
          <CharString index="17">
            -10 -4 -4 -10 hvcurveto
            -478 vlineto
            -56 -28 -31 -56 vhcurveto
            -82 hlineto
            -56 -28 31 56 hvcurveto
            83 vlineto
            11 -5 3 -9 vhcurveto
            -45 hlineto
            -9 -5 -3 -11 hvcurveto
            -86 vlineto
            -93 57 -55 91 vhcurveto
            100 hlineto
            91 56 55 93 hvcurveto
            482 vlineto
            9 -4 4 -9 vhcurveto
            return
          </CharString>
          <CharString index="18">
            9 5 3 11 hvcurveto
            0 184 91 109 192 -293 rlineto
            7 -12 9 -2 13 0 rrcurveto
            41 hlineto
            11 0 5 6 -7 10 rrcurveto
            -226 344 198 268 rlineto
            8 10 -4 5 -9 0 rrcurveto
            -54 hlineto
            -12 0 -6 -2 -8 -12 rrcurveto
            -224 -304 rlineto
            -6 -8 -11 -18 -5 -15 rrcurveto
            -3 345 hlineto
            11 -5 3 -9 vhcurveto
            -45 hlineto
            -9 -5 -3 -11 hvcurveto
            -615 vlineto
            -11 5 -3 9 vhcurveto
            return
          </CharString>
          <CharString index="19">
            10 4 5 9 hvcurveto
            37 vlineto
            9 -4 6 -10 vhcurveto
            -252 hlineto
            -7 -3 3 6 hvcurveto
            554 vlineto
            11 -5 3 -9 vhcurveto
            -45 hlineto
            -9 -5 -3 -11 hvcurveto
            -615 vlineto
            -11 5 -3 9 vhcurveto
            return
          </CharString>
          <CharString index="20">
            9 5 3 11 hvcurveto
            479 4 vlineto
            275 -480 rlineto
            3 -4 5 -9 13 0 rrcurveto
            37 hlineto
            9 5 3 11 hvcurveto
            615 vlineto
            11 -5 3 -9 vhcurveto
            -44 hlineto
            -9 -5 -3 -11 hvcurveto
            -479 -4 vlineto
            -276 485 rlineto
            -1 2 -4 6 -11 0 rrcurveto
            -41 hlineto
            -9 -5 -3 -11 hvcurveto
            -615 vlineto
            -11 5 -3 9 vhcurveto
            return
          </CharString>
          <CharString index="21">
            -56 -27 31 56 hvcurveto
            341 vlineto
            56 27 31 56 vhcurveto
            102 hlineto
            56 28 -31 -56 hvcurveto
            -341 vlineto
            -56 -28 -31 -56 vhcurveto
            return
          </CharString>
          <CharString index="22">
            91 57 55 93 hvcurveto
            347 vlineto
            93 -57 55 -91 vhcurveto
            -119 hlineto
            -92 -56 -55 -93 hvcurveto
            -347 vlineto
            -93 56 -55 92 vhcurveto
            return
          </CharString>
          <CharString index="23">
            9 5 3 11 hvcurveto
            233 vlineto
            6 3 3 7 vhcurveto
            132 0 112 -242 rlineto
            6 -11 5 -3 14 0 rrcurveto
            45 hlineto
            9 0 7 5 -6 11 rrcurveto
            -116 243 0 4 rlineto
            63 16 39 50 0 75 rrcurveto
            91 vlineto
            92 -57 56 -92 vhcurveto
            -230 hlineto
            -9 -5 -3 -11 hvcurveto
            -615 vlineto
            -11 5 -3 9 vhcurveto
            return
          </CharString>
          <CharString index="24">
            -7 -3 3 6 hvcurveto
            244 vlineto
            6 3 3 7 vhcurveto
            151 hlineto
            57 29 -31 -56 hvcurveto
            -89 vlineto
            -56 -29 -30 -57 vhcurveto
            return
          </CharString>
          <CharString index="25">
            -92 57 -56 91 vhcurveto
            115 hlineto
            91 57 56 92 hvcurveto
            45 vlineto
            0 222 -339 -105 0 134 rrcurveto
            40 vlineto
            65 28 30 61 vhcurveto
            85 hlineto
            60 29 -30 -61 hvcurveto
            -18 vlineto
            -11 4 -4 9 vhcurveto
            46 hlineto
            9 4 4 11 hvcurveto
            25 vlineto
            92 -57 56 -91 vhcurveto
            -111 hlineto
            -92 -56 -56 -92 hvcurveto
            -49 vlineto
            0 -217 339 112 0 -151 rrcurveto
            -34 vlineto
            -62 -29 -30 -60 vhcurveto
            -88 hlineto
            -61 -28 30 60 hvcurveto
            26 vlineto
            10 -5 4 -9 vhcurveto
            -45 hlineto
            -9 -5 -4 -10 hvcurveto
            return
          </CharString>
          <CharString index="26">
            9 5 3 11 hvcurveto
            556 vlineto
            6 3 3 7 vhcurveto
            136 hlineto
            11 4 5 9 hvcurveto
            36 vlineto
            9 -4 5 -11 vhcurveto
            -365 hlineto
            -11 -4 -5 -9 hvcurveto
            -36 vlineto
            -9 4 -5 11 vhcurveto
            136 hlineto
            8 2 -3 -6 hvcurveto
            -556 vlineto
            -11 5 -3 9 vhcurveto
            return
          </CharString>
          <CharString index="27">
            -9 -4 -4 -10 hvcurveto
            -478 vlineto
            -56 -28 -31 -56 vhcurveto
            -94 hlineto
            -56 -27 31 56 hvcurveto
            478 vlineto
            11 -5 3 -9 vhcurveto
            -45 hlineto
            -9 -5 -3 -11 hvcurveto
            -481 vlineto
            -93 56 -55 92 vhcurveto
            111 hlineto
            91 56 55 93 hvcurveto
            482 vlineto
            9 -4 4 -10 vhcurveto
            return
          </CharString>
          <CharString index="28">
            8 0 6 4 2 10 rrcurveto
            132 537 4 0 131 -537 rlineto
            2 -9 6 -5 9 0 rrcurveto
            77 hlineto
            9 0 5 4 2 10 rrcurveto
            129 614 rlineto
            2 10 -5 5 -10 0 rrcurveto
            -54 hlineto
            -9 0 -6 -4 -2 -11 rrcurveto
            -100 -550 -6 0 -137 552 rlineto
            -2 10 -6 3 -8 0 rrcurveto
            -60 hlineto
            -7 0 -7 -3 -2 -10 rrcurveto
            -135 -552 -6 0 -101 551 rlineto
            -1 11 -6 3 -9 0 rrcurveto
            -54 hlineto
            -10 0 -5 -5 2 -9 rrcurveto
            128 -615 rlineto
            2 -11 6 -3 9 0 rrcurveto
            return
          </CharString>
          <CharString index="29">
            9 5 3 11 hvcurveto
            0 227 191 387 rlineto
            5 9 -5 6 -9 0 rrcurveto
            -57 hlineto
            -8 0 -5 -4 -3 -10 rrcurveto
            -142 -303 -5 0 -143 303 rlineto
            -4 10 -4 4 -9 0 rrcurveto
            -56 hlineto
            -8 0 -6 -6 5 -9 rrcurveto
            190 -387 0 -227 rlineto
            -11 5 -3 9 vhcurveto
            return
          </CharString>
          <CharString index="30">
            -9 3 -5 11 vhcurveto
            377 hlineto
            11 3 6 9 hvcurveto
            40 vlineto
            9 -3 4 -11 vhcurveto
            -306 4 hlineto
            302 481 rlineto
            6 9 2 7 0 12 rrcurveto
            48 vlineto
            9 -3 5 -11 vhcurveto
            -354 hlineto
            -10 -4 -5 -9 hvcurveto
            -40 vlineto
            -9 4 -5 10 vhcurveto
            289 -4 hlineto
            -310 -495 rlineto
            -6 -8 0 -8 0 -10 rrcurveto
            return
          </CharString>
          <CharString index="31">
            -5 9 -7 4 -9 0 rrcurveto
            -61 hlineto
            -8 0 -4 -6 6 -8 rrcurveto
            87 -105 rlineto
            5 -6 8 -4 7 0 rrcurveto
            33 hlineto
            8 0 3 5 -5 9 rrcurveto
            return
          </CharString>
          <CharString index="32">
            51 0 36 21 15 32 rrcurveto
            4 -39 hlineto
            -11 5 -3 9 vhcurveto
            45 hlineto
            9 5 3 11 hvcurveto
            482 vlineto
            11 -5 3 -9 vhcurveto
            -217 hlineto
            -92 -56 -55 -93 hvcurveto
            -214 vlineto
            -93 56 -55 92 vhcurveto
            return
          </CharString>
          <CharString index="33">
            -58 -32 -34 -61 vhcurveto
            -57 hlineto
            -56 -27 31 56 hvcurveto
            208 vlineto
            56 27 31 56 vhcurveto
            140 hlineto
            7 3 -3 -6 hvcurveto
            return
          </CharString>
          <CharString index="34">
            9 -4 5 -10 vhcurveto
            -137 hlineto
            -56 -27 31 56 hvcurveto
            208 vlineto
            56 27 31 56 vhcurveto
            137 hlineto
            11 3 4 9 hvcurveto
            37 vlineto
            9 -4 5 -10 vhcurveto
            -145 hlineto
            -92 -56 -55 -93 hvcurveto
            -214 vlineto
            -93 56 -55 92 vhcurveto
            145 hlineto
            11 3 4 9 hvcurveto
            return
          </CharString>
          <CharString index="35">
            52 0 36 21 15 32 rrcurveto
            4 -39 hlineto
            -11 4 -3 9 vhcurveto
            46 hlineto
            9 4 3 11 hvcurveto
            675 vlineto
            11 -4 3 -9 vhcurveto
            -46 hlineto
            -9 -4 -3 -11 hvcurveto
            -232 -4 vlineto
            -15 32 -36 21 -52 0 rrcurveto
            -59 hlineto
            -91 -53 -55 -93 hvcurveto
            -214 vlineto
            -93 53 -55 91 vhcurveto
            return
          </CharString>
          <CharString index="36">
            -58 -33 -34 -60 vhcurveto
            -61 hlineto
            -56 -27 31 56 hvcurveto
            208 vlineto
            56 27 31 56 vhcurveto
            61 hlineto
            60 33 -34 -58 hvcurveto
            return
          </CharString>
          <CharString index="37">
            11 3 4 9 hvcurveto
            36 vlineto
            9 -3 5 -11 vhcurveto
            -204 hlineto
            -56 -28 31 56 hvcurveto
            61 vlineto
            6 3 3 7 vhcurveto
            283 hlineto
            10 4 4 11 hvcurveto
            127 vlineto
            93 -56 55 -91 vhcurveto
            -84 hlineto
            -92 -56 -55 -93 hvcurveto
            -214 vlineto
            -93 56 -55 92 vhcurveto
            return
          </CharString>
          <CharString index="38">
            -7 -3 3 7 hvcurveto
            77 vlineto
            56 28 30 56 vhcurveto
            68 hlineto
            56 28 -30 -56 hvcurveto
            -77 vlineto
            -7 -3 -3 -7 vhcurveto
            return
          </CharString>
          <CharString index="39">
            51 0 36 22 15 31 rrcurveto
            4 -77 hlineto
            -56 -27 -30 -57 vhcurveto
            -175 hlineto
            -11 -4 -5 -9 hvcurveto
            -37 vlineto
            -10 4 -4 11 vhcurveto
            184 hlineto
            92 56 56 92 hvcurveto
            496 vlineto
            11 -5 3 -9 vhcurveto
            -217 hlineto
            -92 -56 -55 -93 hvcurveto
            -187 vlineto
            -93 53 -55 91 vhcurveto
            return
          </CharString>
          <CharString index="40">
            -58 -32 -34 -61 vhcurveto
            -56 hlineto
            -57 -27 30 57 hvcurveto
            181 vlineto
            56 27 31 57 vhcurveto
            139 hlineto
            7 3 -3 -6 hvcurveto
            return
          </CharString>
          <CharString index="41">
            9 5 3 11 hvcurveto
            340 vlineto
            58 32 34 61 vhcurveto
            56 hlineto
            56 28 -31 -56 hvcurveto
            -345 vlineto
            -11 5 -3 9 vhcurveto
            45 hlineto
            9 5 3 11 hvcurveto
            348 vlineto
            93 -53 55 -91 vhcurveto
            -56 hlineto
            -53 0 -34 -21 -15 -32 rrcurveto
            -4 232 hlineto
            11 -5 3 -9 vhcurveto
            -45 hlineto
            -9 -5 -3 -11 hvcurveto
            -675 vlineto
            -11 5 -3 9 vhcurveto
            return
          </CharString>
          <CharString index="42">
            -9 4 -5 9 vhcurveto
            46 hlineto
            9 5 5 9 hvcurveto
            94 vlineto
            10 -5 4 -9 vhcurveto
            -46 hlineto
            -9 -4 -4 -10 hvcurveto
            return
          </CharString>
          <CharString index="43">
            -11 5 -3 9 vhcurveto
            45 hlineto
            10 4 3 11 hvcurveto
            482 vlineto
            11 -5 3 -9 vhcurveto
            -46 hlineto
            -9 -4 -3 -11 hvcurveto
            return
          </CharString>
          <CharString index="44">
            91 57 56 93 hvcurveto
            495 vlineto
            11 -5 3 -9 vhcurveto
            -45 hlineto
            -9 -5 -3 -11 hvcurveto
            -485 vlineto
            -64 -29 -30 -64 vhcurveto
            -23 hlineto
            -11 -3 -5 -9 hvcurveto
            -37 vlineto
            -9 3 -5 11 vhcurveto
            return
          </CharString>
          <CharString index="45">
            -3 -6 0 -10 3 -5 rrcurveto
            154 -238 rlineto
            8 -12 7 -2 13 0 rrcurveto
            47 hlineto
            11 0 5 7 -6 9 rrcurveto
            -162 246 0 4 147 228 rlineto
            7 9 -5 7 -10 0 rrcurveto
            -50 hlineto
            -11 0 -8 -3 -5 -10 rrcurveto
            return
          </CharString>
          <CharString index="46">
            9 5 3 11 hvcurveto
            675 vlineto
            11 -5 3 -9 vhcurveto
            -45 hlineto
            -9 -5 -3 -11 hvcurveto
            -675 vlineto
            -11 5 -3 9 vhcurveto
            return
          </CharString>
          <CharString index="47">
            9 5 3 11 hvcurveto
            340 vlineto
            58 32 34 61 vhcurveto
            56 hlineto
            56 28 -31 -56 hvcurveto
            -345 vlineto
            -11 5 -3 9 vhcurveto
            45 hlineto
            9 5 3 11 hvcurveto
            348 vlineto
            93 -53 55 -91 vhcurveto
            -56 hlineto
            -53 0 -34 -21 -15 -32 rrcurveto
            -4 39 hlineto
            11 -5 3 -9 vhcurveto
            -45 hlineto
            -9 -5 -3 -11 hvcurveto
            -482 vlineto
            -11 5 -3 9 vhcurveto
            return
          </CharString>
          <CharString index="48">
            92 56 55 93 hvcurveto
            214 vlineto
            93 -56 55 -92 vhcurveto
            -86 hlineto
            -92 -56 -55 -93 hvcurveto
            -214 vlineto
            -93 56 -55 92 vhcurveto
            return
          </CharString>
          <CharString index="49">
            -56 -28 30 56 hvcurveto
            210 vlineto
            56 28 30 56 vhcurveto
            70 hlineto
            56 28 -30 -56 hvcurveto
            -210 vlineto
            -56 -28 -30 -56 vhcurveto
            return
          </CharString>
          <CharString index="50">
            9 5 3 11 hvcurveto
            331 vlineto
            61 32 40 61 vhcurveto
            54 hlineto
            10 -1 3 5 0 9 rrcurveto
            37 vlineto
            9 -3 5 -10 vhcurveto
            -39 hlineto
            -53 0 -39 -27 -12 -27 rrcurveto
            -4 40 hlineto
            11 -5 3 -9 vhcurveto
            -45 hlineto
            -9 -5 -3 -11 hvcurveto
            -482 vlineto
            -11 5 -3 9 vhcurveto
            return
          </CharString>
          <CharString index="51">
            97 46 39 87 hvcurveto
            0 63 -15 46 -74 29 rrcurveto
            -118 53 rlineto
            -34 13 -23 17 0 34 rrcurveto
            17 vlineto
            24 21 26 52 vhcurveto
            151 hlineto
            11 3 4 9 hvcurveto
            35 vlineto
            9 -4 5 -10 vhcurveto
            -164 hlineto
            -95 -40 -44 -79 hvcurveto
            0 -64 28 -33 67 -28 rrcurveto
            118 -50 rlineto
            38 -15 13 -26 0 -32 rrcurveto
            -19 vlineto
            -40 -27 -18 -51 vhcurveto
            -168 hlineto
            -11 -3 -4 -9 hvcurveto
            -35 vlineto
            -9 3 -5 11 vhcurveto
            return
          </CharString>
          <CharString index="52">
            7 3 -3 -6 hvcurveto
            -291 vlineto
            -93 60 -53 91 vhcurveto
            48 hlineto
            11 4 4 9 hvcurveto
            37 vlineto
            9 -4 5 -11 vhcurveto
            -39 hlineto
            -56 -32 29 56 hvcurveto
            288 vlineto
            6 3 3 8 vhcurveto
            106 hlineto
            11 4 4 9 hvcurveto
            37 vlineto
            9 -4 5 -11 vhcurveto
            -106 hlineto
            -8 -3 3 6 hvcurveto
            86 vlineto
            10 -4 4 -9 vhcurveto
            -45 hlineto
            -9 -5 -4 -10 hvcurveto
            -86 vlineto
            -6 -3 -3 -7 vhcurveto
            -55 hlineto
            -11 -3 -5 -9 hvcurveto
            -37 vlineto
            -9 3 -4 11 vhcurveto
            return
          </CharString>
          <CharString index="53">
            51 0 36 21 15 32 rrcurveto
            4 -39 hlineto
            -11 5 -3 9 vhcurveto
            45 hlineto
            9 5 3 11 hvcurveto
            482 vlineto
            11 -5 3 -9 vhcurveto
            -45 hlineto
            -9 -5 -3 -11 hvcurveto
            -340 vlineto
            -58 -32 -34 -61 vhcurveto
            -57 hlineto
            -56 -27 31 56 hvcurveto
            345 vlineto
            11 -5 3 -9 vhcurveto
            -45 hlineto
            -9 -5 -3 -11 hvcurveto
            -348 vlineto
            -93 53 -55 91 vhcurveto
            return
          </CharString>
          <CharString index="54">
            10 0 5 4 2 10 rrcurveto
            96 398 5 0 97 -398 rlineto
            2 -11 4 -3 10 0 rrcurveto
            62 hlineto
            10 0 5 3 2 11 rrcurveto
            128 482 rlineto
            2 9 -3 5 -9 0 rrcurveto
            -51 hlineto
            -9 0 -5 -3 -2 -11 rrcurveto
            -98 -408 -6 0 -100 408 rlineto
            -3 11 -6 3 -9 0 rrcurveto
            -46 hlineto
            -9 0 -5 -3 -2 -11 rrcurveto
            -103 -408 -6 0 -97 408 rlineto
            -2 11 -5 3 -9 0 rrcurveto
            -51 hlineto
            -9 0 -3 -4 2 -10 rrcurveto
            128 -482 rlineto
            2 -10 5 -4 10 0 rrcurveto
            return
          </CharString>
          <CharString index="55">
            112 0 38 83 28 94 rrcurveto
            149 475 rlineto
            3 10 -5 5 -10 0 rrcurveto
            -46 hlineto
            -8 0 -6 -4 -2 -10 rrcurveto
            -129 -412 -4 0 -129 412 rlineto
            -3 11 -5 3 -9 0 rrcurveto
            -48 hlineto
            -9 0 -4 -4 3 -10 rrcurveto
            147 -455 rlineto
            3 -9 4 -5 10 0 rrcurveto
            29 hlineto
            -21 -65 -19 -54 -88 0 rrcurveto
            -25 hlineto
            -11 -3 -5 -9 hvcurveto
            -37 vlineto
            -8 3 -6 11 vhcurveto
            return
          </CharString>
          <CharString index="56">
            -9 4 -5 11 vhcurveto
            323 hlineto
            10 4 5 9 hvcurveto
            35 vlineto
            9 -4 6 -10 vhcurveto
            -242 4 hlineto
            239 368 rlineto
            6 6 3 6 0 15 rrcurveto
            33 vlineto
            9 -4 5 -11 vhcurveto
            -307 hlineto
            -11 -3 -5 -9 hvcurveto
            -35 vlineto
            -9 3 -6 11 vhcurveto
            235 -4 hlineto
            -247 -378 rlineto
            -6 -8 -4 -6 0 -17 rrcurveto
            return
          </CharString>
          <CharString index="57">
            11 -5 3 -9 vhcurveto
            -29 hlineto
            -9 -5 -3 -11 hvcurveto
            -241 vlineto
            -11 5 -3 9 vhcurveto
            29 hlineto
            9 5 3 11 hvcurveto
            return
          </CharString>
          <CharString index="58">
            -10 5 -4 9 vhcurveto
            42 hlineto
            9 5 4 10 hvcurveto
            102 vlineto
            10 -5 3 -9 vhcurveto
            -42 hlineto
            -9 -5 -4 -10 hvcurveto
            return
          </CharString>
          <CharString index="59">
            10 4 5 9 hvcurveto
            24 vlineto
            9 -4 5 -10 vhcurveto
            -201 hlineto
            -11 -3 -5 -9 hvcurveto
            -24 vlineto
            -9 3 -5 11 vhcurveto
            return
          </CharString>
          <CharString index="60">
            -10 0 -7 -4 -5 -9 rrcurveto
            -58 -102 rlineto
            -4 -9 2 -5 9 0 rrcurveto
            32 hlineto
            8 0 7 4 5 6 rrcurveto
            88 105 rlineto
            6 8 -4 6 -9 0 rrcurveto
            return
          </CharString>
          <CharString index="61">
            -5 7 -5 3 -10 0 rrcurveto
            -34 hlineto
            -10 0 -6 -3 -5 -7 rrcurveto
            -63 -107 rlineto
            -4 -7 2 -5 8 0 rrcurveto
            34 hlineto
            7 0 4 2 2 6 rrcurveto
            48 88 47 -88 rlineto
            3 -6 4 -2 7 0 rrcurveto
            34 hlineto
            8 0 2 5 -4 7 rrcurveto
            return
          </CharString>
          <CharString index="62">
            -10 4 -4 9 vhcurveto
            43 hlineto
            8 4 4 10 hvcurveto
            102 vlineto
            10 -4 3 -8 vhcurveto
            -43 hlineto
            -9 -4 -4 -10 hvcurveto
            return
          </CharString>
          <CharString index="63">
            9 0 4 3 5 11 rrcurveto
            78 147 216 0 0 -147 rlineto
            -11 4 -3 9 vhcurveto
            315 hlineto
            10 3 5 9 hvcurveto
            36 vlineto
            9 -3 5 -10 vhcurveto
            -245 hlineto
            -8 -3 3 6 hvcurveto
            213 vlineto
            6 3 3 8 vhcurveto
            213 hlineto
            11 4 5 9 hvcurveto
            36 vlineto
            9 -4 5 -11 vhcurveto
            -213 hlineto
            -8 -3 3 6 hvcurveto
            202 vlineto
            6 3 3 8 vhcurveto
            245 hlineto
            10 3 5 9 hvcurveto
            36 vlineto
            9 -3 5 -10 vhcurveto
            -356 hlineto
            -11 0 -6 -3 -6 -11 rrcurveto
            -320 -614 rlineto
            -5 -10 3 -5 10 0 rrcurveto
            return
          </CharString>
          <CharString index="64">
            -4 9 -7 4 -10 0 rrcurveto
            -60 hlineto
            -9 0 -4 -6 6 -8 rrcurveto
            87 -105 rlineto
            5 -6 8 -4 7 0 rrcurveto
            33 hlineto
            9 0 2 5 -5 9 rrcurveto
            return
          </CharString>
          <CharString index="65">
            -10 4 -4 9 vhcurveto
            43 hlineto
            8 5 4 10 hvcurveto
            102 vlineto
            10 -5 3 -8 vhcurveto
            -43 hlineto
            -9 -4 -4 -10 hvcurveto
            return
          </CharString>
          <CharString index="66">
            -5 9 -7 4 -10 0 rrcurveto
            -60 hlineto
            -8 0 -4 -6 6 -8 rrcurveto
            87 -105 rlineto
            5 -6 7 -4 7 0 rrcurveto
            33 hlineto
            9 0 3 5 -5 9 rrcurveto
            return
          </CharString>
          <CharString index="67">
            -10 5 -4 8 vhcurveto
            43 hlineto
            9 4 4 10 hvcurveto
            102 vlineto
            10 -5 3 -8 vhcurveto
            -43 hlineto
            -8 -5 -4 -10 hvcurveto
            return
          </CharString>
          <CharString index="68">
            -10 5 -4 8 vhcurveto
            43 hlineto
            9 4 4 10 hvcurveto
            102 vlineto
            10 -4 3 -9 vhcurveto
            -43 hlineto
            -8 -5 -4 -10 hvcurveto
            return
          </CharString>
          <CharString index="69">
            -9 0 -8 -4 -4 -9 rrcurveto
            -58 -102 rlineto
            -5 -9 2 -5 9 0 rrcurveto
            33 hlineto
            8 0 7 4 5 6 rrcurveto
            87 105 rlineto
            6 8 -4 6 -8 0 rrcurveto
            return
          </CharString>
          <CharString index="70">
            -10 4 -4 9 vhcurveto
            43 hlineto
            9 4 4 10 hvcurveto
            102 vlineto
            10 -5 3 -8 vhcurveto
            -43 hlineto
            -9 -4 -4 -10 hvcurveto
            return
          </CharString>
          <CharString index="71">
            -8 6 -6 -1 -7 -9 rrcurveto
            -23 -32 rlineto
            -25 27 -38 15 -47 0 rrcurveto
            -123 hlineto
            -92 -56 -55 -93 hvcurveto
            -347 vlineto
            0 -24 4 -21 7 -19 rrcurveto
            -34 -47 rlineto
            -6 -9 1 -7 7 -5 rrcurveto
            14 -11 rlineto
            8 -5 7 1 6 8 rrcurveto
            23 32 rlineto
            26 -26 38 -15 47 0 rrcurveto
            123 hlineto
            91 56 55 93 hvcurveto
            347 vlineto
            0 24 -4 21 -6 18 rrcurveto
            34 48 rlineto
            6 9 0 7 -8 5 rrcurveto
            return
          </CharString>
          <CharString index="72">
            56 27 31 57 vhcurveto
            105 hlineto
            37 0 25 -14 13 -26 rrcurveto
            -264 -368 rlineto
            return
          </CharString>
          <CharString index="73">
            -56 -28 -31 -56 vhcurveto
            -105 hlineto
            -38 0 -25 14 -12 26 rrcurveto
            264 368 rlineto
            return
          </CharString>
          <CharString index="74">
            -9 0 -7 -4 -5 -9 rrcurveto
            -58 -102 rlineto
            -5 -9 3 -5 8 0 rrcurveto
            33 hlineto
            8 0 7 4 5 6 rrcurveto
            87 105 rlineto
            7 8 -5 6 -8 0 rrcurveto
            return
          </CharString>
          <CharString index="75">
            -5 7 -6 3 -9 0 rrcurveto
            -34 hlineto
            -10 0 -6 -3 -5 -7 rrcurveto
            -63 -107 rlineto
            -4 -7 2 -5 8 0 rrcurveto
            33 hlineto
            8 0 4 2 2 6 rrcurveto
            48 88 47 -88 rlineto
            3 -6 4 -2 7 0 rrcurveto
            34 hlineto
            8 0 1 5 -4 7 rrcurveto
            return
          </CharString>
          <CharString index="76">
            51 0 36 21 15 32 rrcurveto
            return
          </CharString>
          <CharString index="77">
            4 -39 hlineto
            -11 5 -3 9 vhcurveto
            45 hlineto
            9 5 3 11 hvcurveto
            482 vlineto
            11 -5 3 -9 vhcurveto
            -217 hlineto
            -92 -56 -55 -93 hvcurveto
            -214 vlineto
            -93 56 -55 92 vhcurveto
            return
          </CharString>
          <CharString index="78">
            -10 4 -4 8 vhcurveto
            43 hlineto
            9 4 4 10 hvcurveto
            102 vlineto
            10 -4 3 -9 vhcurveto
            -43 hlineto
            -8 -4 -4 -10 hvcurveto
            return
          </CharString>
          <CharString index="79">
            -10 4 -4 8 vhcurveto
            43 hlineto
            9 4 4 10 hvcurveto
            102 vlineto
            10 -5 3 -8 vhcurveto
            -43 hlineto
            -8 -4 -4 -10 hvcurveto
            return
          </CharString>
          <CharString index="80">
            30 12 8 28 vhcurveto
            15 hlineto
            29 11 -8 -30 hvcurveto
            -36 vlineto
            -30 -11 -8 -29 vhcurveto
            -15 hlineto
            -28 -12 8 30 hvcurveto
            return
          </CharString>
          <CharString index="81">
            6 3 3 7 vhcurveto
            270 hlineto
            10 4 4 11 hvcurveto
            144 vlineto
            93 -56 55 -91 vhcurveto
            -61 hlineto
            -49 0 -48 -15 -24 -48 -24 47 -49 16 -50 0 rrcurveto
            -155 hlineto
            -11 -3 -5 -9 hvcurveto
            -36 vlineto
            -9 3 -5 11 vhcurveto
            157 hlineto
            54 29 -29 -57 hvcurveto
            -42 vlineto
            return
          </CharString>
          <CharString index="82">
            -5 -2 -3 -6 vhcurveto
            -146 hlineto
            -92 -56 -52 -93 hvcurveto
            -20 vlineto
            -91 58 -54 90 vhcurveto
            48 hlineto
            58 0 50 16 24 48 24 -45 40 -19 58 0 rrcurveto
            205 hlineto
            11 3 4 9 hvcurveto
            37 vlineto
            9 -3 5 -11 vhcurveto
            -196 hlineto
            -56 -28 31 56 hvcurveto
            return
          </CharString>
          <CharString index="83">
            -7 -3 -3 -7 vhcurveto
            -209 hlineto
            -7 -3 3 7 hvcurveto
            96 vlineto
            57 34 27 55 vhcurveto
            56 hlineto
            56 28 -31 -56 hvcurveto
            return
          </CharString>
          <CharString index="84">
            -61 -34 -30 -59 vhcurveto
            -53 hlineto
            -59 -29 30 58 hvcurveto
            18 vlineto
            return
          </CharString>
          <CharString index="85">
            57 28 30 60 vhcurveto
            136 hlineto
            7 3 -3 -6 hvcurveto
            return
          </CharString>
          <CharString index="86">
            -9 0 -8 -4 -4 -9 rrcurveto
            -58 -102 rlineto
            -5 -9 2 -5 9 0 rrcurveto
            33 hlineto
            8 0 6 4 6 6 rrcurveto
            87 105 rlineto
            6 8 -4 6 -9 0 rrcurveto
            return
          </CharString>
          <CharString index="87">
            -5 7 -5 3 -10 0 rrcurveto
            -34 hlineto
            -10 0 -6 -3 -5 -7 rrcurveto
            -63 -107 rlineto
            -4 -7 2 -5 8 0 rrcurveto
            34 hlineto
            7 0 4 2 3 6 rrcurveto
            47 88 47 -88 rlineto
            3 -6 4 -2 7 0 rrcurveto
            34 hlineto
            8 0 2 5 -4 7 rrcurveto
            return
          </CharString>
          <CharString index="88">
            -49 13 -28 50 vhcurveto
            25 0 18 6 17 44 14 30 3 8 16 0 rrcurveto
            20 5 -11 -38 hvcurveto
            -27 vlineto
            -8 3 -3 7 vhcurveto
            21 hlineto
            6 2 3 8 hvcurveto
            40 vlineto
            48 -13 29 -49 vhcurveto
            -28 0 -14 -8 -16 -36 -17 -36 -5 -8 -14 0 rrcurveto
            -20 -5 11 37 hvcurveto
            26 vlineto
            9 -2 2 -7 vhcurveto
            -21 hlineto
            -6 -3 -2 -9 hvcurveto
            return
          </CharString>
          <CharString index="89">
            -6 6 -8 0 -6 -7 rrcurveto
            -34 -34 rlineto
            -25 37 -43 20 -55 0 rrcurveto
            -87 hlineto
            -91 -57 -55 -93 hvcurveto
            -214 vlineto
            0 -17 2 -16 4 -14 rrcurveto
            -47 -47 rlineto
            -7 -7 0 -6 7 -7 rrcurveto
            12 -12 rlineto
            6 -7 6 0 8 7 rrcurveto
            34 34 rlineto
            25 -36 43 -20 55 0 rrcurveto
            87 hlineto
            91 57 55 93 hvcurveto
            214 vlineto
            0 17 -2 16 -4 14 rrcurveto
            47 47 rlineto
            7 7 0 6 -7 7 rrcurveto
            return
          </CharString>
          <CharString index="90">
            56 27 31 57 vhcurveto
            69 hlineto
            41 0 26 -17 10 -31 rrcurveto
            -230 -230 rlineto
            return
          </CharString>
          <CharString index="91">
            -56 -27 -31 -56 vhcurveto
            -69 hlineto
            -41 0 -26 16 -11 30 rrcurveto
            230 231 rlineto
            return
          </CharString>
          <CharString index="92">
            11 3 5 9 hvcurveto
            26 vlineto
            9 -3 5 -11 vhcurveto
            -201 hlineto
            -11 -3 -5 -9 hvcurveto
            -26 vlineto
            -9 3 -5 11 vhcurveto
            return
          </CharString>
          <CharString index="93">
            11 3 5 9 hvcurveto
            24 vlineto
            9 -3 5 -11 vhcurveto
            -201 hlineto
            -11 -3 -5 -9 hvcurveto
            -24 vlineto
            -9 3 -5 11 vhcurveto
            return
          </CharString>
          <CharString index="94">
            -9 0 -7 -4 -6 -9 rrcurveto
            -57 -102 rlineto
            -5 -9 2 -5 9 0 rrcurveto
            33 hlineto
            7 0 7 4 6 6 rrcurveto
            87 105 rlineto
            6 8 -4 6 -9 0 rrcurveto
            return
          </CharString>
          <CharString index="95">
            -10 4 -4 9 vhcurveto
            46 hlineto
            9 4 4 10 hvcurveto
            97 vlineto
            10 -4 4 -9 vhcurveto
            -46 hlineto
            -9 -4 -4 -10 hvcurveto
            return
          </CharString>
          <CharString index="96">
            34 hlineto
            10 0 5 3 5 7 rrcurveto
            64 107 rlineto
            4 7 -2 5 -8 0 rrcurveto
            -34 hlineto
            -7 0 -4 -2 -3 -6 rrcurveto
            -47 -88 -47 88 rlineto
            -3 6 -4 2 -7 0 rrcurveto
            -34 hlineto
            -8 0 -2 -5 4 -7 rrcurveto
            63 -107 rlineto
            5 -7 6 -3 10 0 rrcurveto
            return
          </CharString>
          <CharString index="97">
            10 -5 3 -8 vhcurveto
            -44 hlineto
            -8 -5 -4 -10 hvcurveto
            return
          </CharString>
          <CharString index="98">
            9 24 6 17 0 24 rrcurveto
            return
          </CharString>
          <CharString index="99">
            -10 5 -4 9 vhcurveto
            46 hlineto
            9 4 4 10 hvcurveto
            97 vlineto
            10 -5 4 -8 vhcurveto
            -46 hlineto
            -9 -5 -4 -10 hvcurveto
            return
          </CharString>
          <CharString index="100">
            -10 4 -4 9 vhcurveto
            46 hlineto
            9 5 4 10 hvcurveto
            98 vlineto
            10 -6 3 -8 vhcurveto
            -46 hlineto
            -9 -4 -4 -10 hvcurveto
            return
          </CharString>
          <CharString index="101">
            -5 7 -6 3 -9 0 rrcurveto
            -35 hlineto
            -9 0 -6 -3 -5 -7 rrcurveto
            -63 -107 rlineto
            -4 -7 1 -5 9 0 rrcurveto
            33 hlineto
            7 0 5 2 2 6 rrcurveto
            48 88 47 -88 rlineto
            3 -6 4 -2 7 0 rrcurveto
            34 hlineto
            8 0 1 5 -4 7 rrcurveto
            return
          </CharString>
          <CharString index="102">
            -10 5 -3 8 vhcurveto
            44 hlineto
            8 5 3 10 hvcurveto
            return
          </CharString>
          <CharString index="103">
            10 4 5 9 hvcurveto
            26 vlineto
            9 -4 5 -10 vhcurveto
            -201 hlineto
            -11 -3 -5 -9 hvcurveto
            -26 vlineto
            -9 3 -5 11 vhcurveto
            return
          </CharString>
          <CharString index="104">
            -12 vlineto
            -72 33 -34 63 vhcurveto
            17 hlineto
            62 34 34 72 hvcurveto
            12 vlineto
            8 -4 2 -7 vhcurveto
            -26 hlineto
            -7 -3 -2 -8 hvcurveto
            -10 vlineto
            -49 -15 -19 -40 vhcurveto
            -5 hlineto
            -38 -15 18 50 hvcurveto
            10 vlineto
            8 -4 3 -6 vhcurveto
            -28 hlineto
            -7 -4 -3 -8 hvcurveto
            return
          </CharString>
          <CharString index="105">
            -180 vlineto
            -9 5 -3 5 vhcurveto
            5 0 4 3 3 5 rrcurveto
            33 80 rlineto
            return
          </CharString>
          <CharString index="106">
            10 22 4 16 0 20 rrcurveto
            return
          </CharString>
          <CharString index="107">
            10 -5 3 -8 vhcurveto
            -44 hlineto
            -9 -4 -4 -10 hvcurveto
            return
          </CharString>
          <CharString index="108">
            10 22 5 16 0 20 rrcurveto
            return
          </CharString>
          <CharString index="109">
            -10 0 -7 -4 -5 -9 rrcurveto
            -58 -102 rlineto
            -5 -9 3 -5 9 0 rrcurveto
            33 hlineto
            7 0 7 4 5 6 rrcurveto
            88 105 rlineto
            6 8 -4 6 -9 0 rrcurveto
            return
          </CharString>
          <CharString index="110">
            -9 0 -8 -4 -4 -9 rrcurveto
            -58 -102 rlineto
            -5 -9 3 -5 8 0 rrcurveto
            32 hlineto
            9 0 6 4 6 6 rrcurveto
            87 105 rlineto
            6 8 -4 6 -8 0 rrcurveto
            return
          </CharString>
          <CharString index="111">
            10 -5 3 -8 vhcurveto
            -44 hlineto
            -8 -5 -4 -10 hvcurveto
            -180 vlineto
            -9 5 -3 6 vhcurveto
            4 0 4 3 3 5 rrcurveto
            33 80 rlineto
            11 22 4 16 0 20 rrcurveto
            return
          </CharString>
          <CharString index="112">
            -212 vlineto
            -10 6 -2 5 vhcurveto
            5 0 4 2 2 5 rrcurveto
            34 95 rlineto
            return
          </CharString>
          <CharString index="113">
            8 24 6 17 0 24 rrcurveto
            return
          </CharString>
          <CharString index="114">
            10 -5 3 -9 vhcurveto
            -43 hlineto
            -9 -4 -4 -10 hvcurveto
            return
          </CharString>
          <CharString index="115">
            -212 vlineto
            -10 5 -2 5 vhcurveto
            5 0 4 2 3 5 rrcurveto
            33 95 rlineto
            return
          </CharString>
          <CharString index="116">
            -9 0 -7 -3 -5 -10 rrcurveto
            -57 -102 rlineto
            -4 -9 2 -5 8 0 rrcurveto
            24 hlineto
            7 0 6 4 5 6 rrcurveto
            77 105 rlineto
            7 9 -4 5 -9 0 rrcurveto
            return
          </CharString>
          <CharString index="117">
            34 hlineto
            10 0 5 3 5 7 rrcurveto
            64 107 rlineto
            4 7 -1 5 -9 0 rrcurveto
            -34 hlineto
            -7 0 -4 -2 -3 -6 rrcurveto
            -47 -88 -47 88 rlineto
            -3 6 -4 2 -7 0 rrcurveto
            -34 hlineto
            -8 0 -2 -5 4 -7 rrcurveto
            64 -107 rlineto
            5 -7 5 -3 10 0 rrcurveto
            return
          </CharString>
          <CharString index="118">
            -10 0 -7 -4 -5 -9 rrcurveto
            -58 -102 rlineto
            -5 -9 3 -5 8 0 rrcurveto
            33 hlineto
            8 0 7 4 5 6 rrcurveto
            87 105 rlineto
            6 8 -3 6 -9 0 rrcurveto
            return
          </CharString>
          <CharString index="119">
            42 26 25 43 hvcurveto
            41 vlineto
            42 -26 24 -42 vhcurveto
            -31 hlineto
            -42 -24 -24 -42 hvcurveto
            -41 vlineto
            -43 24 -25 42 vhcurveto
            return
          </CharString>
          <CharString index="120">
            -9 0 -7 -3 -5 -10 rrcurveto
            -57 -102 rlineto
            -5 -9 3 -5 9 0 rrcurveto
            23 hlineto
            7 0 6 4 5 6 rrcurveto
            78 105 rlineto
            6 9 -5 5 -8 0 rrcurveto
            return
          </CharString>
          <CharString index="121">
            -5 7 -6 3 -10 0 rrcurveto
            -34 hlineto
            -9 0 -6 -3 -5 -7 rrcurveto
            -63 -107 rlineto
            -4 -7 1 -5 8 0 rrcurveto
            34 hlineto
            7 0 4 2 3 6 rrcurveto
            47 88 47 -88 rlineto
            3 -6 5 -2 6 0 rrcurveto
            35 hlineto
            8 0 1 5 -4 7 rrcurveto
            return
          </CharString>
          <CharString index="122">
            34 hlineto
            10 0 6 3 5 7 rrcurveto
            63 107 rlineto
            4 7 -1 5 -8 0 rrcurveto
            -35 hlineto
            -6 0 -5 -2 -3 -6 rrcurveto
            -47 -88 -47 88 rlineto
            -3 6 -4 2 -7 0 rrcurveto
            -34 hlineto
            -8 0 -1 -5 4 -7 rrcurveto
            63 -107 rlineto
            5 -7 6 -3 9 0 rrcurveto
            return
          </CharString>
          <CharString index="123">
            -10 0 -7 -3 -5 -10 rrcurveto
            -57 -102 rlineto
            -4 -9 2 -5 9 0 rrcurveto
            23 hlineto
            7 0 6 4 5 6 rrcurveto
            78 105 rlineto
            6 9 -4 5 -9 0 rrcurveto
            return
          </CharString>
          <CharString index="124">
            79 39 41 84 hvcurveto
            6 vlineto
            14 -6 6 -11 vhcurveto
            -28 hlineto
            -10 -7 -5 -14 hvcurveto
            -7 vlineto
            -49 -17 -18 -49 vhcurveto
            -75 hlineto
            -49 -17 18 49 hvcurveto
            7 vlineto
            14 -6 5 -10 vhcurveto
            -30 hlineto
            -11 -6 -6 -14 hvcurveto
            -7 vlineto
            -81 40 -43 79 vhcurveto
            return
          </CharString>
          <CharString index="125">
            10 -5 4 -9 vhcurveto
            -34 hlineto
            -9 -5 -4 -10 hvcurveto
            -38 vlineto
            -11 5 -4 9 vhcurveto
            34 hlineto
            9 5 4 11 hvcurveto
            return
          </CharString>
          <CharString index="126">
            -18 -11 -13 -17 hvcurveto
            -289 vlineto
            -7 -2 -4 -8 vhcurveto
            -130 hlineto
            -11 21 -17 14 -22 8 rrcurveto
            4 vlineto
            40 17 24 39 0 56 rrcurveto
            22 vlineto
            95 -52 54 -97 vhcurveto
            -90 hlineto
            -11 -5 -5 -10 hvcurveto
            -30 vlineto
            -10 5 -5 11 vhcurveto
            83 hlineto
            59 30 -30 -58 hvcurveto
            -20 vlineto
            -57 -30 -30 -59 vhcurveto
            -58 hlineto
            -10 -5 -5 -10 hvcurveto
            -31 vlineto
            -10 5 -5 11 vhcurveto
            57 hlineto
            59 30 -29 -57 hvcurveto
            -33 vlineto
            -58 -30 -31 -59 vhcurveto
            -116 hlineto
            -12 -4 -5 -9 hvcurveto
            -32 vlineto
            -10 4 -5 12 vhcurveto
            120 hlineto
            95 57 55 95 hvcurveto
            0 39 0 6 116 0 rlineto
            8 2 -4 -6 hvcurveto
            -208 vlineto
            -11 6 -4 10 vhcurveto
            38 hlineto
            10 5 4 11 hvcurveto
            538 vlineto
            6 3 4 7 vhcurveto
            75 hlineto
            12 4 5 10 hvcurveto
            30 vlineto
            10 -4 5 -12 vhcurveto
            return
          </CharString>
          <CharString index="127">
            46 20 -14 -41 hvcurveto
            -41 vlineto
            -42 -18 -17 -48 vhcurveto
            -83 hlineto
            -48 -25 20 49 hvcurveto
            16 vlineto
            11 -5 4 -10 vhcurveto
            -36 hlineto
            -10 -5 -4 -11 hvcurveto
            -189 vlineto
            -12 5 -3 10 vhcurveto
            36 hlineto
            10 5 3 12 hvcurveto
            77 4 vlineto
            14 -24 28 -9 36 0 rrcurveto
            81 hlineto
            81 46 41 76 hvcurveto
            47 vlineto
            75 -46 35 -81 vhcurveto
            -93 hlineto
            -46 -20 14 42 hvcurveto
            10 vlineto
            42 18 16 48 vhcurveto
            156 hlineto
            return
          </CharString>
          <CharString index="128">
            0 -29 5 -12 15 -8 rrcurveto
            -4 -260 vlineto
            -11 -5 -5 -10 hvcurveto
            -30 vlineto
            -10 5 -5 11 vhcurveto
            314 hlineto
            7 3 -3 -7 hvcurveto
            -74 vlineto
            -7 -3 -3 -7 vhcurveto
            -117 hlineto
            -80 -49 -36 -77 hvcurveto
            -16 vlineto
            -78 43 -37 86 vhcurveto
            90 hlineto
            return
          </CharString>
          <CharString index="129">
            20 15 11 23 hvcurveto
            111 vlineto
            7 3 3 7 vhcurveto
            79 hlineto
            11 5 5 10 hvcurveto
            30 vlineto
            10 -5 5 -11 vhcurveto
            -119 hlineto
            -44 -10 10 36 hvcurveto
            return
          </CharString>
          <CharString index="130">
            -11 -5 -5 -10 hvcurveto
            -30 vlineto
            -10 5 -5 11 vhcurveto
            75 hlineto
            7 3 -4 -6 hvcurveto
            -361 vlineto
            -95 61 -67 102 vhcurveto
            171 hlineto
            11 1 4 4 0 11 rrcurveto
            32 vlineto
            9 -4 6 -11 vhcurveto
            -160 hlineto
            -69 -37 37 65 hvcurveto
            358 vlineto
            6 3 4 8 vhcurveto
            222 hlineto
            7 3 -4 -6 hvcurveto
            -131 vlineto
            -66 -35 -18 -49 vhcurveto
            -33 hlineto
            -11 -5 -5 -10 hvcurveto
            -31 vlineto
            -10 5 -5 11 vhcurveto
            40 hlineto
            88 57 45 100 hvcurveto
            131 vlineto
            6 3 4 8 vhcurveto
            55 hlineto
            11 5 5 10 hvcurveto
            30 vlineto
            10 -5 5 -11 vhcurveto
            return
          </CharString>
          <CharString index="131">
            6 3 4 7 vhcurveto
            323 hlineto
            11 5 5 10 hvcurveto
            30 vlineto
            10 -5 5 -11 vhcurveto
            -733 hlineto
            -11 -5 -5 -10 hvcurveto
            -30 vlineto
            -10 5 -5 11 vhcurveto
            323 hlineto
            7 3 -4 -6 hvcurveto
            -318 vlineto
            -54 -31 -30 -56 vhcurveto
            -32 hlineto
            -59 -33 32 59 hvcurveto
            81 vlineto
            59 32 32 59 vhcurveto
            38 hlineto
            11 4 5 10 hvcurveto
            31 vlineto
            10 -4 5 -11 vhcurveto
            -46 hlineto
            -94 -56 -56 -93 hvcurveto
            -87 vlineto
            -94 57 -55 93 vhcurveto
            30 hlineto
            46 0 32 15 16 29 rrcurveto
            4 -118 hlineto
            -11 5 -5 9 vhcurveto
            38 hlineto
            10 5 5 11 hvcurveto
            314 vlineto
            54 30 30 56 vhcurveto
            32 hlineto
            59 33 -32 -59 hvcurveto
            -81 vlineto
            -59 -31 -32 -59 vhcurveto
            -38 hlineto
            -11 -5 -5 -10 hvcurveto
            -31 vlineto
            -10 5 -5 11 vhcurveto
            46 hlineto
            94 0 55 56 1 93 rrcurveto
            87 vlineto
            94 -57 55 -93 vhcurveto
            -30 hlineto
            -47 0 -34 -17 -13 -27 rrcurveto
            -4 hlineto
            return
          </CharString>
          <CharString index="132">
            -157 vlineto
            -11 5 -4 10 vhcurveto
            37 hlineto
            10 5 4 11 hvcurveto
            538 vlineto
            6 3 4 8 vhcurveto
            75 hlineto
            12 4 5 10 hvcurveto
            30 vlineto
            10 -4 5 -12 vhcurveto
            -711 hlineto
            -11 -5 -5 -10 hvcurveto
            -30 vlineto
            -10 5 -5 11 vhcurveto
            190 hlineto
            7 2 -4 -6 hvcurveto
            -149 vlineto
            -55 -28 -19 -39 vhcurveto
            -78 hlineto
            -12 -6 -7 -10 hvcurveto
            0 -43 22 -29 152 -230 rlineto
            4 -5 5 -6 9 0 rrcurveto
            41 hlineto
            8 6 6 8 hvcurveto
            0 3 -2 5 -3 4 rrcurveto
            -162 244 29 0 rlineto
            72 50 44 87 hvcurveto
            152 vlineto
            6 3 4 7 vhcurveto
            271 hlineto
            7 3 -4 -6 hvcurveto
            -275 vlineto
            -55 -24 -35 -61 vhcurveto
            -5 hlineto
            -58 -24 28 60 hvcurveto
            32 vlineto
            59 22 29 58 vhcurveto
            13 hlineto
            12 4 4 10 hvcurveto
            31 vlineto
            10 -4 5 -12 vhcurveto
            -18 hlineto
            -93 -49 -55 -85 hvcurveto
            -44 vlineto
            -87 46 -56 89 vhcurveto
            11 hlineto
            42 1 31 15 16 27 rrcurveto
            return
          </CharString>
          <CharString index="133">
            -11 -5 -5 -10 hvcurveto
            -30 vlineto
            -10 5 -5 11 vhcurveto
            124 hlineto
            7 3 -4 -6 hvcurveto
            -194 vlineto
            -66 -34 -21 -50 vhcurveto
            -11 hlineto
            -11 -4 -5 -10 hvcurveto
            -33 vlineto
            -10 4 -5 11 vhcurveto
            20 hlineto
            88 55 47 101 hvcurveto
            196 vlineto
            6 3 4 7 vhcurveto
            133 hlineto
            7 3 -4 -6 hvcurveto
            -538 vlineto
            -11 5 -4 10 vhcurveto
            38 hlineto
            10 5 4 11 hvcurveto
            538 vlineto
            6 3 4 7 vhcurveto
            75 hlineto
            12 4 5 10 hvcurveto
            30 vlineto
            10 -4 5 -12 vhcurveto
            return
          </CharString>
          <CharString index="134">
            10 -6 4 -8 vhcurveto
            -42 hlineto
            -10 -5 -4 -10 hvcurveto
            -43 vlineto
            -10 5 -5 10 vhcurveto
            42 hlineto
            9 5 5 10 hvcurveto
            return
          </CharString>
          <CharString index="135">
            -11 -5 -5 -10 hvcurveto
            -30 vlineto
            -10 5 -5 11 vhcurveto
            310 hlineto
            return
          </CharString>
          <CharString index="136">
            7 3 -4 -6 hvcurveto
            -79 vlineto
            -7 -3 -4 -7 vhcurveto
            -112 hlineto
            -80 -49 -36 -76 hvcurveto
            -21 vlineto
            -79 43 -32 86 vhcurveto
            83 hlineto
            return
          </CharString>
          <CharString index="137">
            47 20 -14 -46 hvcurveto
            -38 vlineto
            -45 -20 -16 -47 vhcurveto
            -77 hlineto
            -53 -22 12 56 hvcurveto
            7 vlineto
            13 -5 5 -9 vhcurveto
            -35 hlineto
            -11 -5 -5 -13 hvcurveto
            -7 vlineto
            -96 50 -32 85 vhcurveto
            91 hlineto
            80 46 40 76 hvcurveto
            50 vlineto
            75 -46 35 -80 vhcurveto
            -87 hlineto
            return
          </CharString>
          <CharString index="138">
            -47 -20 12 46 hvcurveto
            10 vlineto
            45 20 13 47 vhcurveto
            150 hlineto
            19 16 11 23 hvcurveto
            117 vlineto
            6 3 4 7 vhcurveto
            125 hlineto
            11 4 5 10 hvcurveto
            30 vlineto
            10 -4 5 -11 vhcurveto
            return
          </CharString>
          <CharString index="139">
            12 10 9 18 0 24 rrcurveto
            98 vlineto
            7 4 3 8 vhcurveto
            77 hlineto
            11 1 4 4 0 11 rrcurveto
            29 vlineto
            10 -4 5 -11 vhcurveto
            return
          </CharString>
          <CharString index="140">
            -11 -5 -5 -9 hvcurveto
            -31 vlineto
            -10 5 -5 11 vhcurveto
            36 hlineto
            return
          </CharString>
          <CharString index="141">
            44 20 -22 -44 hvcurveto
            -107 vlineto
            -60 -29 -30 -59 vhcurveto
            -135 hlineto
            -58 -24 23 57 hvcurveto
            34 vlineto
            49 23 26 51 vhcurveto
            34 hlineto
            11 4 5 9 hvcurveto
            31 vlineto
            10 -4 5 -11 vhcurveto
            -39 hlineto
            -45 -24 25 45 hvcurveto
            64 vlineto
            51 21 26 50 vhcurveto
            199 hlineto
            return
          </CharString>
          <CharString index="142">
            8 3 -3 -7 hvcurveto
            -106 vlineto
            0 -9 -1 -8 -3 -6 -10 1 -10 1 -12 0 rrcurveto
            return
          </CharString>
          <CharString index="143">
            145 hlineto
            7 3 -4 -6 hvcurveto
            -337 vlineto
            -11 5 -4 10 vhcurveto
            38 hlineto
            10 6 4 11 hvcurveto
            538 vlineto
            6 2 4 8 vhcurveto
            75 hlineto
            12 4 5 10 hvcurveto
            30 vlineto
            10 -4 5 -12 vhcurveto
            -557 hlineto
            -11 -5 -5 -10 hvcurveto
            -30 vlineto
            -10 5 -5 11 vhcurveto
            394 hlineto
            7 2 -4 -6 hvcurveto
            -117 vlineto
            -7 -3 -3 -7 vhcurveto
            -306 hlineto
            -11 -4 -5 -9 hvcurveto
            -35 vlineto
            -9 4 -6 11 vhcurveto
            49 hlineto
            47 37 -20 -66 hvcurveto
            -65 vlineto
            -60 -26 -27 -57 vhcurveto
            -90 hlineto
            -11 -5 -5 -10 hvcurveto
            -32 vlineto
            -9 5 -5 11 vhcurveto
            106 hlineto
            82 52 48 95 hvcurveto
            74 vlineto
            0 38 -13 27 -26 13 rrcurveto
            return
          </CharString>
          <CharString index="144">
            -96 -54 -58 -92 hvcurveto
            -101 vlineto
            -91 54 -60 96 vhcurveto
            78 hlineto
            94 56 53 96 hvcurveto
            30 vlineto
            12 -5 5 -11 vhcurveto
            -35 hlineto
            -9 -5 -5 -12 hvcurveto
            -30 vlineto
            -60 -32 -28 -58 vhcurveto
            -67 hlineto
            -59 -31 30 60 hvcurveto
            100 vlineto
            60 31 30 59 vhcurveto
            134 hlineto
            return
          </CharString>
          <CharString index="145">
            19 16 11 23 hvcurveto
            141 vlineto
            6 3 4 7 vhcurveto
            88 hlineto
            11 5 5 10 hvcurveto
            30 vlineto
            10 -5 5 -11 vhcurveto
            -485 hlineto
            -12 -4 -5 -10 hvcurveto
            -30 vlineto
            -10 4 -5 12 vhcurveto
            309 hlineto
            7 3 -4 -6 hvcurveto
            -103 vlineto
            -7 -3 -4 -7 vhcurveto
            return
          </CharString>
          <CharString index="146">
            58 29 -34 -57 hvcurveto
            -97 vlineto
            -59 -31 -33 -59 vhcurveto
            -68 hlineto
            -59 -31 33 59 hvcurveto
            97 vlineto
            59 29 32 59 vhcurveto
            return
          </CharString>
          <CharString index="147">
            11 4 5 10 hvcurveto
            30 vlineto
            10 -4 5 -11 vhcurveto
            -515 hlineto
            -12 -4 -5 -10 hvcurveto
            -30 vlineto
            -10 4 -5 12 vhcurveto
            321 hlineto
            return
          </CharString>
          <CharString index="148">
            7 2 -4 -6 hvcurveto
            -48 vlineto
            -52 -24 -13 -40 vhcurveto
            -55 hlineto
            -93 -57 -57 -94 hvcurveto
            -101 vlineto
            -95 57 -57 93 vhcurveto
            83 hlineto
            return
          </CharString>
          <CharString index="149">
            92 59 55 93 hvcurveto
            116 vlineto
            0 63 -35 43 -50 10 rrcurveto
            4 vlineto
            return
          </CharString>
          <CharString index="150">
            28 13 11 23 0 38 rrcurveto
            59 vlineto
            6 2 4 8 vhcurveto
            return
          </CharString>
          <CharString index="151">
            -11 -5 -5 -10 hvcurveto
            -30 vlineto
            -10 5 -5 11 vhcurveto
            310 hlineto
            7 3 -4 -6 hvcurveto
            -79 vlineto
            -7 -3 -4 -7 vhcurveto
            -112 hlineto
            -80 -49 -36 -76 hvcurveto
            -24 vlineto
            -79 43 -32 86 vhcurveto
            82 hlineto
            return
          </CharString>
          <CharString index="152">
            46 22 -14 -46 hvcurveto
            -35 vlineto
            -45 -24 -16 -44 vhcurveto
            -75 hlineto
            -50 -26 12 56 hvcurveto
            7 vlineto
            13 -5 5 -9 vhcurveto
            -35 hlineto
            -11 -5 -5 -13 hvcurveto
            -7 vlineto
            -96 55 -32 81 vhcurveto
            89 hlineto
            77 50 40 76 hvcurveto
            47 vlineto
            75 -47 35 -81 vhcurveto
            -85 hlineto
            return
          </CharString>
          <CharString index="153">
            -47 -20 13 45 hvcurveto
            13 vlineto
            45 20 13 47 vhcurveto
            150 hlineto
            19 16 11 23 hvcurveto
            117 vlineto
            6 3 4 7 vhcurveto
            79 hlineto
            10 5 5 10 hvcurveto
            30 vlineto
            10 -5 5 -10 vhcurveto
            return
          </CharString>
          <CharString index="154">
            92 45 47 87 hvcurveto
            18 vlineto
            73 -31 39 -78 -77 -25 -41 -67 vhcurveto
            -16 vlineto
            -13 5 -4 15 vhcurveto
            24 hlineto
            10 5 5 11 hvcurveto
            14 vlineto
            39 8 18 37 38 8 -19 -38 vhcurveto
            -16 vlineto
            -54 -22 -24 -55 vhcurveto
            -88 hlineto
            -59 -29 30 59 hvcurveto
            114 vlineto
            59 29 32 57 vhcurveto
            152 hlineto
            return
          </CharString>
          <CharString index="155">
            17 14 12 20 hvcurveto
            131 vlineto
            6 2 4 8 vhcurveto
            82 hlineto
            11 5 5 10 hvcurveto
            30 vlineto
            10 -5 5 -11 vhcurveto
            -492 hlineto
            -12 -4 -5 -10 hvcurveto
            -30 vlineto
            -10 4 -5 12 vhcurveto
            322 hlineto
            7 3 -4 -6 hvcurveto
            -93 vlineto
            -6 -3 -4 -7 vhcurveto
            -110 hlineto
            -94 -53 -55 -95 hvcurveto
            -113 vlineto
            -92 52 -58 96 vhcurveto
            return
          </CharString>
          <CharString index="156">
            7 3 -4 -6 hvcurveto
            -242 vlineto
            -61 -32 -20 -44 vhcurveto
            -17 hlineto
            -45 -31 20 61 hvcurveto
            242 vlineto
            6 3 4 7 vhcurveto
            return
          </CharString>
          <CharString index="157">
            -74 -51 -42 -72 hvcurveto
            -49 vlineto
            -12 5 -4 9 vhcurveto
            36 hlineto
            9 5 4 12 hvcurveto
            43 vlineto
            41 23 19 40 39 24 -19 -42 vhcurveto
            -53 vlineto
            -55 -27 -24 -56 vhcurveto
            -119 hlineto
            return
          </CharString>
          <CharString index="158">
            -93 -53 -55 -95 hvcurveto
            -84 vlineto
            -91 52 -59 96 vhcurveto
            63 hlineto
            36 0 28 10 14 24 rrcurveto
            4 -98 hlineto
            -11 5 -4 10 vhcurveto
            36 hlineto
            10 5 4 11 hvcurveto
            234 vlineto
            11 -5 4 -10 vhcurveto
            -36 hlineto
            -10 -5 -4 -11 hvcurveto
            -38 vlineto
            -48 -25 -23 -48 vhcurveto
            -64 hlineto
            -59 -29 29 60 hvcurveto
            81 vlineto
            59 29 32 57 vhcurveto
            162 hlineto
            return
          </CharString>
          <CharString index="159">
            18 13 12 20 hvcurveto
            120 vlineto
            6 3 4 7 vhcurveto
            73 hlineto
            11 5 5 10 hvcurveto
            30 vlineto
            10 -5 5 -11 vhcurveto
            -493 hlineto
            -12 -4 -5 -10 hvcurveto
            -30 vlineto
            -10 4 -5 12 vhcurveto
            333 hlineto
            7 3 -4 -6 hvcurveto
            -80 vlineto
            -7 -3 -3 -7 vhcurveto
            return
          </CharString>
          <CharString index="160">
            -58 -28 31 58 hvcurveto
            232 vlineto
            6 3 4 7 vhcurveto
            191 hlineto
            7 3 -4 -6 hvcurveto
            -231 vlineto
            -54 -29 -36 -62 vhcurveto
            return
          </CharString>
          <CharString index="161">
            -58 -28 30 58 hvcurveto
            228 vlineto
            6 3 4 7 vhcurveto
            181 hlineto
            8 3 -4 -6 hvcurveto
            -229 vlineto
            -53 -31 -34 -60 vhcurveto
            return
          </CharString>
          <CharString index="162">
            -60 -29 32 59 hvcurveto
            95 vlineto
            0 15 2 13 4 12 rrcurveto
            201 -197 rlineto
            -15 -18 -24 -11 -33 0 rrcurveto
            return
          </CharString>
          <CharString index="163">
            -7 -3 -4 -8 vhcurveto
            -183 hlineto
            -6 -4 3 8 hvcurveto
            207 vlineto
            6 3 4 7 vhcurveto
            184 hlineto
            7 3 -4 -6 hvcurveto
            return
          </CharString>
          <CharString index="164">
            8 2 -4 -6 hvcurveto
            -285 vlineto
            -69 -37 -44 -78 vhcurveto
            -63 hlineto
            -75 -38 41 69 hvcurveto
            69 16 vlineto
            84 49 38 89 hvcurveto
            18 vlineto
            0 40 -14 27 -22 13 rrcurveto
            4 vlineto
            return
          </CharString>
          <CharString index="165">
            -60 -23 -19 -55 vhcurveto
            -57 hlineto
            -11 -4 -5 -10 hvcurveto
            -114 vlineto
            -94 61 -77 113 vhcurveto
            68 hlineto
            54 0 41 20 17 34 rrcurveto
            4 -133 hlineto
            -11 6 -4 9 vhcurveto
            39 hlineto
            10 5 4 11 hvcurveto
            538 vlineto
            6 3 4 7 vhcurveto
            75 hlineto
            12 4 5 10 hvcurveto
            30 vlineto
            10 -4 5 -12 vhcurveto
            -575 hlineto
            -11 -5 -4 -10 hvcurveto
            -31 vlineto
            -10 5 -5 11 vhcurveto
            135 hlineto
            56 22 -24 -54 hvcurveto
            return
          </CharString>
          <CharString index="166">
            -55 -28 -19 -39 vhcurveto
            -78 hlineto
            -12 -6 -7 -10 hvcurveto
            0 -43 22 -29 151 -230 rlineto
            4 -6 4 -5 9 0 rrcurveto
            42 hlineto
            8 5 6 8 hvcurveto
            0 3 -1 4 -2 3 rrcurveto
            -162 246 31 0 rlineto
            72 49 44 87 hvcurveto
            152 vlineto
            6 3 4 7 vhcurveto
            66 hlineto
            12 4 5 10 hvcurveto
            30 vlineto
            10 -4 5 -12 vhcurveto
            -344 hlineto
            -11 -5 -5 -10 hvcurveto
            -30 vlineto
            -10 5 -5 11 vhcurveto
            190 hlineto
            7 2 -4 -6 hvcurveto
            return
          </CharString>
          <CharString index="167">
            -11 -5 -5 -10 hvcurveto
            -30 vlineto
            -10 5 -5 11 vhcurveto
            419 hlineto
            7 3 -4 -6 hvcurveto
            -102 vlineto
            0 -6 -2 -3 -7 -2 -38 -7 -28 -17 -18 -27 -22 35 -39 19 -56 0 rrcurveto
            -8 hlineto
            -95 -54 -53 -97 hvcurveto
            -104 vlineto
            -97 54 -52 95 vhcurveto
            8 hlineto
            55 0 39 18 23 34 22 -34 39 -18 55 0 rrcurveto
            9 hlineto
            95 54 52 97 hvcurveto
            104 vlineto
            0 83 -37 47 -71 15 -8 2 -2 3 0 6 rrcurveto
            104 vlineto
            7 3 3 7 vhcurveto
            175 hlineto
            11 4 5 10 hvcurveto
            30 vlineto
            10 -4 5 -11 vhcurveto
            return
          </CharString>
          <CharString index="168">
            -58 -27 -31 -57 vhcurveto
            -7 hlineto
            -57 -27 31 58 hvcurveto
            104 vlineto
            59 27 30 57 vhcurveto
            7 hlineto
            57 27 -30 -59 hvcurveto
            return
          </CharString>
          <CharString index="169">
            -9 -5 -5 -10 hvcurveto
            -43 vlineto
            -10 5 -5 9 vhcurveto
            42 hlineto
            9 5 5 10 hvcurveto
            43 vlineto
            10 -5 5 -9 vhcurveto
            return
          </CharString>
          <CharString index="170">
            -11 5 -4 10 vhcurveto
            38 hlineto
            10 5 4 11 hvcurveto
            538 vlineto
            6 3 4 7 vhcurveto
            76 hlineto
            12 3 5 10 hvcurveto
            30 vlineto
            10 -3 5 -12 vhcurveto
            -125 hlineto
            -18 -11 -13 -17 hvcurveto
            return
          </CharString>
          <CharString index="171">
            71 hlineto
            97 53 49 97 hvcurveto
            87 vlineto
            90 -51 42 -86 -90 -48 -42 -90 vhcurveto
            -50 vlineto
            -11 5 -4 10 vhcurveto
            38 hlineto
            9 5 4 11 hvcurveto
            52 vlineto
            50 19 21 52 51 19 -21 -51 vhcurveto
            -89 vlineto
            -63 -36 -22 -50 vhcurveto
            -129 hlineto
            -12 -6 -7 -10 hvcurveto
            0 -43 23 -29 153 -219 rlineto
            3 -6 5 -5 9 0 rrcurveto
            43 hlineto
            9 5 6 7 hvcurveto
            0 3 -1 5 -3 3 rrcurveto
            return
          </CharString>
          <CharString index="172">
            -217 243 207 0 rlineto
            8 2 -4 -6 hvcurveto
            return
          </CharString>
          <CharString index="173">
            -58 -28 30 58 hvcurveto
            0 185 204 -231 rlineto
            -14 -27 -26 -15 -39 0 rrcurveto
            return
          </CharString>
          <CharString index="174">
            48 19 -21 -48 hvcurveto
            -21 vlineto
            -11 5 -4 10 vhcurveto
            36 hlineto
            10 5 4 11 hvcurveto
            30 vlineto
            75 -44 41 -78 vhcurveto
            -81 hlineto
            -51 -20 19 49 49 22 18 50 hvcurveto
            151 hlineto
            return
          </CharString>
          <CharString index="175">
            10 -5 5 -9 vhcurveto
            -42 hlineto
            -9 -5 -5 -10 hvcurveto
            -43 vlineto
            -10 5 -5 9 vhcurveto
            42 hlineto
            9 5 5 10 hvcurveto
            return
          </CharString>
          <CharString index="176">
            9 6 4 11 hvcurveto
            538 vlineto
            6 3 4 7 vhcurveto
            75 hlineto
            12 4 5 10 hvcurveto
            30 vlineto
            10 -4 5 -12 vhcurveto
            -239 hlineto
            -11 -4 -5 -10 hvcurveto
            -30 vlineto
            -10 4 -5 11 vhcurveto
            75 hlineto
            8 2 -4 -6 hvcurveto
            -538 vlineto
            -11 6 -4 9 vhcurveto
            return
          </CharString>
          <CharString index="177">
            -7 -3 4 7 hvcurveto
            111 vlineto
            94 -59 42 -95 -100 -52 -50 -96 vhcurveto
            -31 vlineto
            -12 5 -4 10 vhcurveto
            39 hlineto
            9 5 4 12 hvcurveto
            30 vlineto
            63 26 22 59 59 25 -22 -63 vhcurveto
            -100 vlineto
            -7 -2 -4 -8 vhcurveto
            -75 hlineto
            -11 -4 -5 -10 hvcurveto
            -30 vlineto
            -10 4 -5 11 vhcurveto
            75 hlineto
            8 2 -4 -6 hvcurveto
            -538 vlineto
            -11 6 -4 9 vhcurveto
            39 hlineto
            9 6 4 11 hvcurveto
            538 vlineto
            6 3 4 7 vhcurveto
            75 hlineto
            12 4 5 10 hvcurveto
            30 vlineto
            10 -4 5 -12 vhcurveto
            return
          </CharString>
          <CharString index="178">
            -14 0 -3 4 -7 12 rrcurveto
            -146 226 rlineto
            -6 10 -6 3 -10 0 rrcurveto
            -43 hlineto
            -8 -5 -5 -7 hvcurveto
            0 -4 2 -3 2 -4 rrcurveto
            59 -87 rlineto
            54 -81 51 -59 37 -35 rrcurveto
            48 30 hlineto
            return
          </CharString>
          <CharString index="179">
            -7 -3 4 7 hvcurveto
            0 56 -38 22 -54 26 rrcurveto
            -63 32 rlineto
            -34 17 -24 14 0 46 rrcurveto
            16 vlineto
            11 -4 4 -11 vhcurveto
            -37 hlineto
            -10 -5 -4 -11 hvcurveto
            -20 vlineto
            0 -58 25 -33 58 -30 rrcurveto
            59 -30 rlineto
            61 -31 8 -8 0 -21 rrcurveto
            -6 -2 -3 -8 vhcurveto
            -75 hlineto
            -11 -4 -5 -10 hvcurveto
            -30 vlineto
            -10 4 -5 11 vhcurveto
            75 hlineto
            8 2 -4 -6 hvcurveto
            -538 vlineto
            -11 6 -4 9 vhcurveto
            39 hlineto
            9 6 4 11 hvcurveto
            538 vlineto
            6 3 4 7 vhcurveto
            75 hlineto
            12 4 5 10 hvcurveto
            30 vlineto
            10 -4 5 -12 vhcurveto
            return
          </CharString>
          <CharString index="180">
            -13 0 -4 4 -7 12 rrcurveto
            -146 226 rlineto
            -6 10 -6 3 -10 0 rrcurveto
            -43 hlineto
            -8 -5 -5 -7 hvcurveto
            0 -4 2 -3 2 -4 rrcurveto
            59 -87 rlineto
            44 -66 38 -43 28 -32 rrcurveto
            -4 -86 vlineto
            -11 -4 -5 -10 hvcurveto
            -30 vlineto
            -10 4 -5 11 vhcurveto
            75 hlineto
            8 2 -4 -6 hvcurveto
            -538 vlineto
            -11 6 -4 9 vhcurveto
            39 hlineto
            9 6 4 11 hvcurveto
            538 vlineto
            6 3 4 7 vhcurveto
            75 hlineto
            12 4 5 10 hvcurveto
            30 vlineto
            10 -4 5 -12 vhcurveto
            return
          </CharString>
          <CharString index="181">
            -6 -2 4 7 hvcurveto
            229 vlineto
            12 -6 3 -9 vhcurveto
            -36 hlineto
            -10 -5 -4 -11 hvcurveto
            -29 vlineto
            0 -85 12 -69 16 -35 rrcurveto
            -3 -2 -136 222 rlineto
            -5 9 -7 4 -15 0 rrcurveto
            -36 hlineto
            -8 -5 -5 -7 hvcurveto
            0 -4 1 -3 3 -4 rrcurveto
            60 -87 rlineto
            31 -45 50 -62 35 -34 rrcurveto
            -4 -81 vlineto
            -11 -4 -5 -10 hvcurveto
            -30 vlineto
            -10 4 -5 11 vhcurveto
            75 hlineto
            8 2 -4 -6 hvcurveto
            -538 vlineto
            -11 6 -4 9 vhcurveto
            39 hlineto
            9 6 4 11 hvcurveto
            538 vlineto
            6 3 4 7 vhcurveto
            75 hlineto
            12 4 5 10 hvcurveto
            30 vlineto
            10 -4 5 -12 vhcurveto
            return
          </CharString>
          <CharString index="182">
            -8 -4 -5 -7 hvcurveto
            0 -3 1 -2 1 -3 rrcurveto
            88 -137 rlineto
            4 -7 6 -5 9 0 rrcurveto
            41 hlineto
            8 5 6 7 hvcurveto
            0 4 -1 4 -2 3 rrcurveto
            -91 131 rlineto
            -6 9 -6 5 -10 0 rrcurveto
            return
          </CharString>
          <CharString index="183">
            -11 5 -4 10 vhcurveto
            38 hlineto
            10 5 4 11 hvcurveto
            593 vlineto
            11 -5 4 -10 vhcurveto
            -38 hlineto
            -10 -5 -4 -11 hvcurveto
            return
          </CharString>
          <CharString index="184">
            -10 5 -3 9 vhcurveto
            43 hlineto
            9 4 3 10 hvcurveto
            return
          </CharString>
          <CharString index="185">
            213 vlineto
            9 -5 3 -5 vhcurveto
            -5 0 -4 -3 -3 -5 rrcurveto
            -33 -94 rlineto
            return
          </CharString>
          <CharString index="186">
            10 -4 3 -9 vhcurveto
            -43 hlineto
            -9 -5 -4 -10 hvcurveto
            return
          </CharString>
          <CharString index="187">
            57 0 74 -30 62 0 30 0 29 6 22 9 16 6 5 6 0 12 rrcurveto
            31 vlineto
            7 -4 4 -6 vhcurveto
            -13 0 -32 -24 -45 0 rrcurveto
            return
          </CharString>
          <CharString index="188">
            -63 0 -68 30 -62 0 -30 0 -29 -6 -22 -9 -15 -6 -6 -6 0 -12 rrcurveto
            -31 vlineto
            -7 4 -4 7 vhcurveto
            13 0 32 24 44 0 rrcurveto
            return
          </CharString>
          <CharString index="189">
            -12 -3 -5 -10 hvcurveto
            -29 vlineto
            -10 3 -5 12 vhcurveto
            365 hlineto
            12 3 5 10 hvcurveto
            29 vlineto
            10 -3 5 -12 vhcurveto
            return
          </CharString>
          <CharString index="190">
            207 196 -207 hlineto
            return
          </CharString>
          <CharString index="191">
            43 0 24 -16 14 -24 4 -7 3 -6 7 0 4 0 2 1 6 4 rrcurveto
            20 15 rlineto
            7 5 3 5 0 6 0 4 -2 5 -2 3 -21 44 -43 22 -59 0 rrcurveto
            -30 hlineto
            -47 0 -34 -17 -13 -27 rrcurveto
            -4 122 hlineto
            6 3 4 7 vhcurveto
            232 hlineto
            10 5 5 10 hvcurveto
            30 vlineto
            10 -5 5 -10 vhcurveto
            -642 hlineto
            -11 -5 -5 -10 hvcurveto
            -30 vlineto
            -10 5 -5 11 vhcurveto
            323 hlineto
            7 3 -4 -6 hvcurveto
            -318 vlineto
            -54 -31 -30 -56 vhcurveto
            -32 hlineto
            -59 -33 32 59 hvcurveto
            81 vlineto
            59 32 32 59 vhcurveto
            38 hlineto
            11 4 5 10 hvcurveto
            31 vlineto
            10 -4 5 -11 vhcurveto
            -46 hlineto
            -94 -56 -56 -93 hvcurveto
            -87 vlineto
            -94 57 -55 93 vhcurveto
            30 hlineto
            46 0 32 15 16 29 rrcurveto
            4 -118 hlineto
            -11 5 -5 9 vhcurveto
            38 hlineto
            10 5 5 11 hvcurveto
            314 vlineto
            54 30 30 56 vhcurveto
            return
          </CharString>
          <CharString index="192">
            59 0 38 29 24 34 2 3 3 5 0 4 0 6 -2 5 -6 4 rrcurveto
            -12 10 rlineto
            -6 5 -3 1 -4 0 -5 0 -4 -4 -5 -5 -20 -20 -17 -18 -46 0 rrcurveto
            -5 hlineto
            -58 -24 28 60 hvcurveto
            32 vlineto
            59 22 29 58 vhcurveto
            13 hlineto
            12 4 4 10 hvcurveto
            31 vlineto
            10 -4 5 -12 vhcurveto
            -18 hlineto
            -93 -49 -55 -85 hvcurveto
            -44 vlineto
            -87 46 -56 89 vhcurveto
            return
          </CharString>
          <CharString index="193">
            -11 -5 -5 -10 hvcurveto
            -30 vlineto
            -10 5 -5 11 vhcurveto
            190 hlineto
            7 2 -4 -6 hvcurveto
            -149 vlineto
            -55 -28 -19 -39 vhcurveto
            -78 hlineto
            -12 -6 -7 -10 hvcurveto
            0 -43 22 -29 152 -230 rlineto
            4 -5 5 -6 9 0 rrcurveto
            41 hlineto
            8 6 6 8 hvcurveto
            0 3 -2 5 -3 4 rrcurveto
            -162 244 31 0 rlineto
            72 1 48 44 0 86 rrcurveto
            152 vlineto
            6 3 4 7 vhcurveto
            298 hlineto
            12 4 5 10 hvcurveto
            30 vlineto
            10 -4 5 -12 vhcurveto
            return
          </CharString>
          <CharString index="194">
            12 4 5 10 hvcurveto
            30 vlineto
            10 -4 5 -12 vhcurveto
            -276 hlineto
            -11 -5 -5 -10 hvcurveto
            -30 vlineto
            -10 5 -5 11 vhcurveto
            124 hlineto
            7 3 -4 -6 hvcurveto
            -194 vlineto
            -66 -34 -21 -50 vhcurveto
            -11 hlineto
            -11 -4 -5 -10 hvcurveto
            -33 vlineto
            -10 4 -5 11 vhcurveto
            20 hlineto
            88 55 47 101 hvcurveto
            196 vlineto
            6 3 4 7 vhcurveto
            return
          </CharString>
          <CharString index="195">
            11 1 5 5 0 10 rrcurveto
            33 vlineto
            10 -5 5 -11 vhcurveto
            -309 hlineto
            -11 -4 -5 -9 hvcurveto
            -35 vlineto
            -9 4 -6 11 vhcurveto
            49 hlineto
            47 37 -20 -66 hvcurveto
            -65 vlineto
            -60 -26 -27 -57 vhcurveto
            -90 hlineto
            -11 -5 -5 -10 hvcurveto
            -32 vlineto
            -9 5 -5 11 vhcurveto
            106 hlineto
            82 52 48 95 hvcurveto
            74 vlineto
            0 38 -13 27 -26 13 rrcurveto
            4 vlineto
            return
          </CharString>
          <CharString index="196">
            11 1 5 4 0 11 rrcurveto
            29 vlineto
            10 -5 5 -11 vhcurveto
            -396 hlineto
            -11 -5 -5 -10 hvcurveto
            -30 vlineto
            -10 5 -5 11 vhcurveto
            return
          </CharString>
          <CharString index="197">
            12 4 5 10 hvcurveto
            30 vlineto
            10 -4 5 -12 vhcurveto
            -453 hlineto
            -11 -5 -5 -10 hvcurveto
            -30 vlineto
            -10 5 -5 11 vhcurveto
            65 hlineto
            8 2 -4 -6 hvcurveto
            -240 vlineto
            -98 56 -46 85 vhcurveto
            22 hlineto
            86 55 45 99 hvcurveto
            240 vlineto
            6 3 4 6 vhcurveto
            return
          </CharString>
          <CharString index="198">
            -74 -32 40 66 hvcurveto
            48 70 vlineto
            91 54 42 95 hvcurveto
            57 vlineto
            83 -56 37 -75 vhcurveto
            return
          </CharString>
          <CharString index="199">
            -11 -5 -5 -10 hvcurveto
            -30 vlineto
            -10 5 -5 11 vhcurveto
            322 hlineto
            12 4 5 10 hvcurveto
            30 vlineto
            10 -4 5 -12 vhcurveto
            return
          </CharString>
          <CharString index="200">
            12 4 5 10 hvcurveto
            32 vlineto
            10 -4 5 -12 vhcurveto
            -181 hlineto
            -66 -39 -42 -60 hvcurveto
            0 -23 4 -25 8 -21 4 -13 8 -7 14 0 rrcurveto
            29 hlineto
            8 5 5 8 hvcurveto
            0 4 -1 4 -2 8 -5 15 -4 16 0 18 rrcurveto
            34 19 17 39 vhcurveto
            return
          </CharString>
          <CharString index="201">
            42 0 24 -15 13 -24 6 -7 2 -7 8 0 4 0 2 1 6 4 rrcurveto
            20 15 rlineto
            7 4 3 5 0 6 0 5 -2 5 -2 3 -21 43 -43 23 -59 0 rrcurveto
            -30 hlineto
            -46 0 -34 -17 -14 -28 rrcurveto
            -4 127 hlineto
            6 3 4 8 vhcurveto
            234 hlineto
            11 4 5 10 hvcurveto
            30 vlineto
            10 -4 5 -11 vhcurveto
            -658 hlineto
            -11 -5 -5 -10 hvcurveto
            -29 vlineto
            -11 5 -5 11 vhcurveto
            67 hlineto
            6 -1 2 -4 0 -5 rrcurveto
            -234 vlineto
            -90 58 -55 88 vhcurveto
            25 hlineto
            48 0 32 16 16 29 rrcurveto
            4 -204 hlineto
            -11 5 -4 10 vhcurveto
            37 hlineto
            10 5 5 11 hvcurveto
            309 vlineto
            54 31 31 56 vhcurveto
            return
          </CharString>
          <CharString index="202">
            -60 -30 32 59 hvcurveto
            95 vlineto
            0 14 2 12 3 11 rrcurveto
            202 -200 rlineto
            -15 -15 -22 -8 -30 0 rrcurveto
            return
          </CharString>
          <CharString index="203">
            -75 -38 41 69 hvcurveto
            69 16 vlineto
            84 2 49 36 0 89 rrcurveto
            18 vlineto
            0 40 -14 27 -22 13 rrcurveto
            4 173 vlineto
            12 4 5 10 hvcurveto
            30 vlineto
            10 -4 5 -12 vhcurveto
            -416 hlineto
            -11 -5 -4 -10 hvcurveto
            -31 vlineto
            -10 5 -5 11 vhcurveto
            135 hlineto
            56 22 -24 -54 hvcurveto
            -12 vlineto
            -60 -23 -19 -55 vhcurveto
            -57 hlineto
            -11 -4 -5 -10 hvcurveto
            -114 vlineto
            -94 61 -77 113 vhcurveto
            68 hlineto
            76 0 53 49 24 34 3 3 3 5 0 4 0 7 -3 4 -6 4 rrcurveto
            -14 12 rlineto
            -6 5 -3 1 -4 0 -5 0 -5 -4 -6 -5 -25 -25 -27 -33 -54 0 rrcurveto
            return
          </CharString>
          <CharString index="204">
            -58 -28 30 58 hvcurveto
            0 185 208 -233 rlineto
            -21 -22 -26 -18 -36 0 rrcurveto
            return
          </CharString>
          <CharString index="205">
            19 16 11 24 hvcurveto
            109 vlineto
            6 3 4 7 vhcurveto
            72 hlineto
            11 5 5 10 hvcurveto
            30 vlineto
            10 -5 5 -11 vhcurveto
            return
          </CharString>
          <CharString index="206">
            -10 -4 -4 -11 hvcurveto
            -37 vlineto
            -11 4 -5 10 vhcurveto
            33 hlineto
            9 5 5 11 hvcurveto
            37 vlineto
            11 -5 4 -9 vhcurveto
            return
          </CharString>
          <CharString index="207">
            74 vlineto
            53 30 22 46 vhcurveto
            20 hlineto
            11 5 5 10 hvcurveto
            30 vlineto
            10 -5 5 -11 vhcurveto
            -28 hlineto
            -86 -50 -47 -87 hvcurveto
            -75 vlineto
            return
          </CharString>
          <CharString index="208">
            10 -5 4 -9 vhcurveto
            -47 hlineto
            -9 -5 -4 -10 hvcurveto
            -48 vlineto
            -10 5 -5 9 vhcurveto
            47 hlineto
            9 5 5 10 hvcurveto
            return
          </CharString>
          <CharString index="209">
            11 -6 4 -9 vhcurveto
            -33 hlineto
            -9 -5 -4 -11 hvcurveto
            -37 vlineto
            -11 5 -5 9 vhcurveto
            33 hlineto
            10 5 5 11 hvcurveto
            return
          </CharString>
          <CharString index="210">
            56 28 25 47 vhcurveto
            29 hlineto
            11 5 5 10 hvcurveto
            30 vlineto
            9 -5 6 -11 vhcurveto
            -32 hlineto
            -51 0 -32 -22 -18 -34 -17 34 -35 23 -73 0 rrcurveto
            -100 -52 -50 -95 hvcurveto
            -32 vlineto
            -12 5 -4 10 vhcurveto
            39 hlineto
            9 5 4 12 hvcurveto
            30 vlineto
            63 26 22 61 56 26 -21 -58 vhcurveto
            -106 vlineto
            -7 -2 -4 -7 vhcurveto
            -76 hlineto
            -11 -4 -5 -10 hvcurveto
            -30 vlineto
            -10 4 -5 11 vhcurveto
            75 hlineto
            8 2 -4 -6 hvcurveto
            -538 vlineto
            -11 6 -4 9 vhcurveto
            39 hlineto
            9 6 4 11 hvcurveto
            538 vlineto
            6 3 4 7 vhcurveto
            75 hlineto
            12 4 5 10 hvcurveto
            30 vlineto
            10 -4 5 -12 vhcurveto
            -75 hlineto
            -8 -2 4 7 hvcurveto
            return
          </CharString>
          <CharString index="211">
            -10 -5 -4 -10 hvcurveto
            -48 vlineto
            -10 5 -5 10 vhcurveto
            46 hlineto
            10 5 5 10 hvcurveto
            48 vlineto
            10 -6 4 -9 vhcurveto
            return
          </CharString>
          <CharString index="212">
            -7 -3 4 7 hvcurveto
            111 vlineto
            94 -59 42 -95 vhcurveto
            -243 hlineto
            -100 -53 -50 -96 hvcurveto
            -31 vlineto
            -12 6 -4 10 vhcurveto
            39 hlineto
            9 5 4 12 hvcurveto
            30 vlineto
            63 25 22 59 vhcurveto
            244 hlineto
            59 25 -22 -63 hvcurveto
            -100 vlineto
            -7 -2 -4 -8 vhcurveto
            -75 hlineto
            -11 -4 -5 -10 hvcurveto
            -30 vlineto
            -10 4 -5 11 vhcurveto
            75 hlineto
            8 2 -4 -6 hvcurveto
            -538 vlineto
            -11 6 -4 9 vhcurveto
            39 hlineto
            9 6 4 11 hvcurveto
            538 vlineto
            6 3 4 7 vhcurveto
            75 hlineto
            12 4 5 10 hvcurveto
            30 vlineto
            10 -4 5 -12 vhcurveto
            return
          </CharString>
          <CharString index="213">
            -7 -1 4 5 hvcurveto
            47 vlineto
            101 31 40 57 vhcurveto
            18 hlineto
            11 5 5 10 hvcurveto
            30 vlineto
            9 -5 6 -11 vhcurveto
            -20 hlineto
            -67 0 -47 -52 -4 -116 rrcurveto
            -4 151 hlineto
            12 -6 3 -9 vhcurveto
            -38 hlineto
            -9 -6 -4 -11 hvcurveto
            0 -2 0 -26 1 -2 2 -86 41 -74 15 -34 rrcurveto
            -3 -1 -142 227 rlineto
            -5 9 -7 4 -15 0 rrcurveto
            -31 hlineto
            -8 -5 -5 -7 hvcurveto
            0 -4 2 -3 2 -4 rrcurveto
            59 -87 rlineto
            47 -67 45 -56 44 -43 rrcurveto
            70 hlineto
            return
          </CharString>
          <CharString index="214">
            10 5 5 10 hvcurveto
            48 vlineto
            10 -6 4 -9 vhcurveto
            -46 hlineto
            -10 -5 -4 -10 hvcurveto
            -48 vlineto
            -10 5 -5 10 vhcurveto
            return
          </CharString>
          <CharString index="215">
            8 2 -4 -6 hvcurveto
            -538 vlineto
            -11 6 -4 9 vhcurveto
            39 hlineto
            9 6 4 11 hvcurveto
            538 vlineto
            6 3 4 7 vhcurveto
            75 hlineto
            12 4 5 10 hvcurveto
            30 vlineto
            10 -4 5 -12 vhcurveto
            return
          </CharString>
          <CharString index="216">
            -55 -19 -32 -60 -60 -19 32 55 55 19 32 60 vhcurveto
            60 19 -32 -55 hvcurveto
            return
          </CharString>
          <CharString index="217">
            -11 -5 -5 -9 hvcurveto
            -31 vlineto
            -10 5 -5 11 vhcurveto
            30 hlineto
            7 2 -4 -6 hvcurveto
            -158 -155 4 vlineto
            23 15 9 36 0 35 rrcurveto
            90 -44 50 -97 -97 -48 -52 -88 vhcurveto
            0 -40 14 -34 27 -17 rrcurveto
            -4 vlineto
            return
          </CharString>
          <CharString index="218">
            -63 -12 -29 -40 0 -71 rrcurveto
            -64 vlineto
            -87 47 -47 96 vhcurveto
            40 hlineto
            36 0 28 10 14 24 rrcurveto
            4 -98 hlineto
            -11 5 -4 10 vhcurveto
            38 hlineto
            9 6 4 11 hvcurveto
            225 vlineto
            11 -6 4 -9 vhcurveto
            -38 hlineto
            -10 -5 -4 -11 hvcurveto
            -29 vlineto
            -48 -25 -23 -47 vhcurveto
            -41 hlineto
            -59 -24 18 54 hvcurveto
            62 vlineto
            53 22 18 58 vhcurveto
            311 -157 hlineto
            -12 5 -4 10 vhcurveto
            38 hlineto
            10 5 4 12 hvcurveto
            86 vlineto
            return
          </CharString>
          <CharString index="219">
            -60 -19 32 55 55 19 32 60 60 19 -32 -55 -55 -19 -32 -60 hvcurveto
            return
          </CharString>
          <CharString index="220">
            -7 -3 -4 -7 vhcurveto
            -184 hlineto
            -6 -4 3 8 hvcurveto
            207 vlineto
            6 3 4 8 vhcurveto
            183 hlineto
            7 3 -4 -6 hvcurveto
            return
          </CharString>
          <CharString index="221">
            -69 -37 -44 -78 vhcurveto
            -63 hlineto
            -75 -38 41 69 hvcurveto
            69 16 vlineto
            84 49 38 89 hvcurveto
            18 vlineto
            0 40 -14 27 -22 13 rrcurveto
            4 168 vlineto
            8 2 -4 -6 hvcurveto
            return
          </CharString>
          <CharString index="222">
            -80 -49 -36 -76 hvcurveto
            -12 vlineto
            -78 43 -37 86 vhcurveto
            70 hlineto
            49 19 -16 -43 hvcurveto
            -24 vlineto
            -45 -20 -16 -48 vhcurveto
            -61 hlineto
            return
          </CharString>
          <CharString index="223">
            -47 -25 20 48 hvcurveto
            19 vlineto
            11 -6 4 -9 vhcurveto
            -38 hlineto
            -10 -5 -4 -11 hvcurveto
            -212 vlineto
            -12 5 -4 10 vhcurveto
            38 hlineto
            9 6 4 12 hvcurveto
            97 4 vlineto
            14 -24 27 -8 36 0 rrcurveto
            59 hlineto
            81 46 41 76 hvcurveto
            34 vlineto
            77 -46 35 -81 vhcurveto
            -67 hlineto
            return
          </CharString>
          <CharString index="224">
            -12 -4 -5 -10 hvcurveto
            -30 vlineto
            -10 4 -5 12 vhcurveto
            279 hlineto
            7 3 -4 -6 hvcurveto
            -63 vlineto
            -6 -3 -4 -7 vhcurveto
            -81 hlineto
            -80 -49 -36 -77 hvcurveto
            -11 vlineto
            -78 43 -37 86 vhcurveto
            59 hlineto
            return
          </CharString>
          <CharString index="225">
            4 -98 hlineto
            -11 5 -4 10 vhcurveto
            36 hlineto
            10 5 4 11 hvcurveto
            234 vlineto
            11 -5 4 -10 vhcurveto
            -36 hlineto
            -10 -5 -4 -11 hvcurveto
            -38 vlineto
            -48 -25 -23 -48 vhcurveto
            -64 hlineto
            -59 -29 29 60 hvcurveto
            81 vlineto
            59 29 32 57 vhcurveto
            162 hlineto
            return
          </CharString>
          <CharString index="226">
            -53 -31 -34 -60 vhcurveto
            -25 hlineto
            -58 -28 30 58 hvcurveto
            228 vlineto
            6 3 4 7 vhcurveto
            181 hlineto
            8 3 -4 -6 hvcurveto
            return
          </CharString>
          <CharString index="227">
            34 20 17 38 vhcurveto
            153 hlineto
            7 3 -4 -6 hvcurveto
            -296 vlineto
            -11 5 -4 10 vhcurveto
            38 hlineto
            10 6 4 11 hvcurveto
            538 vlineto
            6 2 4 8 vhcurveto
            75 hlineto
            12 4 5 10 hvcurveto
            30 vlineto
            10 -4 5 -12 vhcurveto
            return
          </CharString>
          <CharString index="228">
            -7 -3 -3 -7 vhcurveto
            -174 hlineto
            return
          </CharString>
          <CharString index="229">
            0 0 -26 -14 -41 -41 rrcurveto
            -58 -58 rlineto
            -3 -4 -2 -3 0 -3 rrcurveto
            -6 5 -5 8 vhcurveto
            43 hlineto
            9 0 7 4 5 6 29 26 29 29 27 29 46 46 14 16 11 13 rrcurveto
            4 -112 hlineto
            -11 5 -5 9 vhcurveto
            38 hlineto
            10 5 5 11 hvcurveto
            314 vlineto
            54 30 30 56 vhcurveto
            32 hlineto
            59 33 -32 -59 hvcurveto
            -81 vlineto
            -59 -31 -32 -59 vhcurveto
            -38 hlineto
            -11 -5 -5 -10 hvcurveto
            -31 vlineto
            -10 5 -5 11 vhcurveto
            46 hlineto
            94 0 55 56 1 93 rrcurveto
            87 vlineto
            94 -57 55 -93 vhcurveto
            -30 hlineto
            -47 0 -34 -17 -13 -27 rrcurveto
            -4 122 hlineto
            6 3 4 7 vhcurveto
            323 hlineto
            11 5 5 10 hvcurveto
            30 vlineto
            10 -5 5 -11 vhcurveto
            -733 hlineto
            -11 -5 -5 -10 hvcurveto
            -30 vlineto
            -10 5 -5 11 vhcurveto
            323 hlineto
            7 3 -4 -6 hvcurveto
            -318 vlineto
            return
          </CharString>
          <CharString index="230">
            -54 -31 -30 -56 vhcurveto
            -32 hlineto
            -59 -33 32 59 hvcurveto
            81 vlineto
            59 32 32 59 vhcurveto
            38 hlineto
            11 4 5 10 hvcurveto
            31 vlineto
            10 -4 5 -11 vhcurveto
            -46 hlineto
            -94 -56 -56 -93 hvcurveto
            -87 vlineto
            -92 56 -50 75 vhcurveto
            40 hlineto
            return
          </CharString>
          <CharString index="231">
            0 0 -33 -25 -35 -44 rrcurveto
            -69 -87 rlineto
            -3 -3 -2 -4 0 -3 rrcurveto
            -7 4 -5 8 vhcurveto
            42 hlineto
            15 0 6 8 8 10 rrcurveto
            148 190 4 0 0 -152 rlineto
            -11 6 -4 9 vhcurveto
            38 hlineto
            10 5 4 11 hvcurveto
            538 vlineto
            6 3 4 7 vhcurveto
            75 hlineto
            12 4 5 10 hvcurveto
            30 vlineto
            10 -4 5 -12 vhcurveto
            -715 hlineto
            -11 -5 -5 -10 hvcurveto
            -30 vlineto
            -10 5 -5 11 vhcurveto
            190 hlineto
            7 2 -4 -6 hvcurveto
            -149 vlineto
            -55 -28 -19 -39 vhcurveto
            -78 hlineto
            -12 -6 -7 -10 hvcurveto
            0 -43 22 -29 152 -230 rlineto
            4 -5 5 -6 9 0 rrcurveto
            41 hlineto
            8 6 6 8 hvcurveto
            0 3 -2 5 -3 4 rrcurveto
            -162 244 30 0 rlineto
            72 49 44 87 hvcurveto
            152 vlineto
            6 3 4 7 vhcurveto
            275 hlineto
            7 3 -4 -6 hvcurveto
            -275 vlineto
            -55 -23 -35 -61 vhcurveto
            -6 hlineto
            -57 -25 28 60 hvcurveto
            32 vlineto
            59 23 29 58 vhcurveto
            13 hlineto
            11 5 4 10 hvcurveto
            31 vlineto
            10 -5 5 -11 vhcurveto
            -19 hlineto
            -93 -48 -55 -85 hvcurveto
            -44 vlineto
            0 -79 40 -53 77 -1 rrcurveto
            9 hlineto
            10 9 2 0 hvcurveto
            return
          </CharString>
          <CharString index="232">
            -11 -5 -5 -10 hvcurveto
            -30 vlineto
            -10 5 -5 11 vhcurveto
            124 hlineto
            7 3 -4 -6 hvcurveto
            -194 vlineto
            -66 -34 -21 -50 vhcurveto
            -11 hlineto
            -11 -4 -5 -10 hvcurveto
            -33 vlineto
            -10 4 -5 11 vhcurveto
            20 hlineto
            88 55 47 101 hvcurveto
            196 vlineto
            6 3 4 7 vhcurveto
            133 hlineto
            7 3 -4 -6 hvcurveto
            0 -250 -258 -288 rlineto
            -3 -4 -2 -3 0 -3 rrcurveto
            -6 5 -5 8 vhcurveto
            44 hlineto
            11 0 7 4 7 8 rrcurveto
            181 208 0 -199 rlineto
            -11 5 -4 10 vhcurveto
            38 hlineto
            10 5 4 11 hvcurveto
            538 vlineto
            6 3 4 7 vhcurveto
            75 hlineto
            12 4 5 10 hvcurveto
            30 vlineto
            10 -4 5 -12 vhcurveto
            return
          </CharString>
          <CharString index="233">
            -11 -5 -5 -10 hvcurveto
            -30 vlineto
            -10 5 -5 11 vhcurveto
            310 hlineto
            7 3 -4 -6 hvcurveto
            -79 vlineto
            -7 -3 -4 -7 vhcurveto
            -112 hlineto
            -80 -49 -36 -76 hvcurveto
            -21 vlineto
            -79 43 -32 86 vhcurveto
            83 hlineto
            return
          </CharString>
          <CharString index="234">
            70 14 41 50 0 82 rrcurveto
            30 vlineto
            12 -5 5 -11 vhcurveto
            -35 hlineto
            -9 -5 -5 -12 hvcurveto
            -30 vlineto
            -60 -32 -28 -58 vhcurveto
            -67 hlineto
            -59 -31 30 60 hvcurveto
            100 vlineto
            60 31 30 59 vhcurveto
            134 hlineto
            return
          </CharString>
          <CharString index="235">
            19 16 11 23 hvcurveto
            141 vlineto
            6 3 4 7 vhcurveto
            88 hlineto
            11 5 5 10 hvcurveto
            30 vlineto
            10 -5 5 -11 vhcurveto
            return
          </CharString>
          <CharString index="236">
            28 13 11 23 0 38 rrcurveto
            59 vlineto
            6 2 4 8 vhcurveto
            106 hlineto
            11 4 5 10 hvcurveto
            30 vlineto
            10 -4 5 -11 vhcurveto
            return
          </CharString>
          <CharString index="237">
            -59 -31 -33 -59 vhcurveto
            -68 hlineto
            -59 -31 33 59 hvcurveto
            97 vlineto
            59 29 32 59 vhcurveto
            73 hlineto
            58 29 -34 -57 hvcurveto
            return
          </CharString>
          <CharString index="238">
            47 20 -14 -46 hvcurveto
            -38 vlineto
            -45 -20 -16 -47 vhcurveto
            -77 hlineto
            -53 -22 12 56 hvcurveto
            7 vlineto
            13 -5 5 -9 vhcurveto
            -35 hlineto
            -11 -5 -5 -13 hvcurveto
            -7 vlineto
            0 -85 39 -35 67 -7 rrcurveto
            -87 -116 rlineto
            -3 -4 -2 -3 0 -5 rrcurveto
            -8 5 -3 9 vhcurveto
            46 hlineto
            8 0 6 4 5 7 rrcurveto
            86 120 5 0 86 -120 rlineto
            5 -7 5 -4 9 0 rrcurveto
            46 hlineto
            8 5 3 8 hvcurveto
            0 5 -2 3 -3 4 rrcurveto
            return
          </CharString>
          <CharString index="239">
            61 9 35 39 0 66 rrcurveto
            50 vlineto
            75 -46 35 -80 vhcurveto
            -87 hlineto
            -47 -20 12 46 hvcurveto
            10 vlineto
            45 20 13 47 vhcurveto
            150 hlineto
            return
          </CharString>
          <CharString index="240">
            19 16 11 23 hvcurveto
            117 vlineto
            6 3 4 7 vhcurveto
            79 hlineto
            10 5 5 10 hvcurveto
            30 vlineto
            10 -5 5 -10 vhcurveto
            return
          </CharString>
          <CharString index="241">
            17 14 12 20 hvcurveto
            131 vlineto
            6 2 4 8 vhcurveto
            82 hlineto
            11 5 5 10 hvcurveto
            30 vlineto
            10 -5 5 -11 vhcurveto
            return
          </CharString>
          <CharString index="242">
            -61 -32 -20 -44 vhcurveto
            -17 hlineto
            -45 -31 20 61 hvcurveto
            242 vlineto
            6 3 4 7 vhcurveto
            149 hlineto
            7 3 -4 -6 hvcurveto
            return
          </CharString>
          <CharString index="243">
            -12 -4 -5 -10 hvcurveto
            -30 vlineto
            -10 4 -5 12 vhcurveto
            333 hlineto
            7 3 -4 -6 hvcurveto
            -80 vlineto
            -7 -3 -3 -7 vhcurveto
            -124 hlineto
            -93 -53 -55 -95 hvcurveto
            -84 vlineto
            -91 52 -59 96 vhcurveto
            27 0 -85 -88 rlineto
            -3 -3 -2 -3 0 -4 rrcurveto
            -6 5 -5 8 vhcurveto
            44 hlineto
            10 0 6 4 5 6 8 6 67 72 43 47 rrcurveto
            8 8 rlineto
            return
          </CharString>
          <CharString index="244">
            18 13 12 20 hvcurveto
            120 vlineto
            6 3 4 7 vhcurveto
            73 hlineto
            11 5 5 10 hvcurveto
            30 vlineto
            10 -5 5 -11 vhcurveto
            return
          </CharString>
          <CharString index="245">
            -11 -5 -5 -10 hvcurveto
            -30 vlineto
            -10 5 -5 11 vhcurveto
            321 hlineto
            7 2 -4 -6 hvcurveto
            -160 vlineto
            -7 -2 -3 -8 vhcurveto
            -173 hlineto
            -67 -38 -42 -60 hvcurveto
            0 -25 4 -31 12 -22 5 -8 7 -3 9 0 rrcurveto
            29 hlineto
            9 5 5 8 hvcurveto
            0 5 -2 5 -2 9 -4 15 -5 15 0 16 rrcurveto
            34 20 17 38 vhcurveto
            153 hlineto
            8 2 -4 -6 hvcurveto
            0 -16 -255 -274 rlineto
            -3 -4 -1 -3 0 -3 rrcurveto
            -6 4 -5 8 vhcurveto
            45 hlineto
            11 0 6 4 8 8 rrcurveto
            177 196 0 -193 rlineto
            -11 6 -4 9 vhcurveto
            39 hlineto
            10 5 4 11 hvcurveto
            538 vlineto
            6 3 4 7 vhcurveto
            75 hlineto
            12 4 5 10 hvcurveto
            30 vlineto
            10 -4 5 -12 vhcurveto
            return
          </CharString>
          <CharString index="246">
            -11 5 -4 10 vhcurveto
            38 hlineto
            10 5 4 11 hvcurveto
            315 vlineto
            54 31 30 55 vhcurveto
            32 hlineto
            59 33 -32 -59 hvcurveto
            -81 vlineto
            -59 -31 -32 -59 vhcurveto
            -38 hlineto
            -11 -5 -5 -10 hvcurveto
            -31 vlineto
            -10 5 -5 11 vhcurveto
            46 hlineto
            94 0 55 56 1 93 rrcurveto
            87 vlineto
            94 -57 55 -93 vhcurveto
            -30 hlineto
            -47 0 -33 -17 -14 -27 rrcurveto
            -4 122 hlineto
            6 3 4 7 vhcurveto
            323 hlineto
            12 4 5 10 hvcurveto
            30 vlineto
            10 -4 5 -12 vhcurveto
            -749 hlineto
            -11 -5 -5 -10 hvcurveto
            -29 vlineto
            -11 5 -5 11 vhcurveto
            67 hlineto
            6 -1 2 -4 0 -5 rrcurveto
            -237 vlineto
            -74 46 -60 81 vhcurveto
            22 hlineto
            7 0 9 1 3 2 rrcurveto
            -4 vlineto
            0 0 -40 -31 -50 -53 rrcurveto
            -80 -86 rlineto
            -3 -4 -2 -3 0 -3 rrcurveto
            -6 5 -5 8 vhcurveto
            46 hlineto
            11 0 7 4 7 8 rrcurveto
            117 130 75 83 4 0 rlineto
            return
          </CharString>
          <CharString index="247">
            -58 -28 30 58 hvcurveto
            228 vlineto
            6 3 4 7 vhcurveto
            183 hlineto
            8 3 -4 -6 hvcurveto
            -227 vlineto
            -54 -29 -35 -62 vhcurveto
            return
          </CharString>
          <CharString index="248">
            8 2 -4 -6 hvcurveto
            -285 vlineto
            -69 -37 -44 -78 vhcurveto
            -63 hlineto
            -75 -38 41 69 hvcurveto
            69 17 vlineto
            84 48 39 88 hvcurveto
            18 vlineto
            0 40 -14 27 -22 13 rrcurveto
            4 vlineto
            return
          </CharString>
          <CharString index="249">
            0 0 -36 -16 -52 -42 rrcurveto
            -64 -53 rlineto
            -5 -4 -1 -4 0 -4 rrcurveto
            -6 4 -5 8 vhcurveto
            56 hlineto
            10 0 7 5 7 6 5 4 80 67 22 19 10 9 73 61 9 8 rrcurveto
            4 -127 hlineto
            -11 6 -4 9 vhcurveto
            39 hlineto
            10 5 4 11 hvcurveto
            538 vlineto
            6 3 4 7 vhcurveto
            75 hlineto
            12 4 5 10 hvcurveto
            30 vlineto
            10 -4 5 -12 vhcurveto
            -575 hlineto
            -11 -5 -4 -10 hvcurveto
            -31 vlineto
            -10 5 -5 11 vhcurveto
            135 hlineto
            56 22 -24 -54 hvcurveto
            -12 vlineto
            -60 -23 -19 -55 vhcurveto
            -57 hlineto
            -11 -4 -5 -10 hvcurveto
            -118 vlineto
            -94 64 -66 92 vhcurveto
            65 hlineto
            return
          </CharString>
          <CharString index="250">
            -9 -5 -4 -11 hvcurveto
            -42 vlineto
            -11 5 -4 9 vhcurveto
            42 hlineto
            10 5 4 11 hvcurveto
            42 vlineto
            11 -6 4 -9 vhcurveto
            return
          </CharString>
          <CharString index="251">
            -11 -5 -5 -10 hvcurveto
            -30 vlineto
            -10 5 -5 11 vhcurveto
            323 hlineto
            7 3 -4 -6 hvcurveto
            -318 vlineto
            -54 -31 -30 -56 vhcurveto
            -32 hlineto
            -59 -33 32 59 hvcurveto
            81 vlineto
            59 32 32 59 vhcurveto
            38 hlineto
            11 4 5 10 hvcurveto
            31 vlineto
            10 -4 5 -11 vhcurveto
            -46 hlineto
            -94 -56 -56 -93 hvcurveto
            -87 vlineto
            -92 57 -50 77 vhcurveto
            37 -4 hlineto
            0 0 -26 -14 -41 -41 rrcurveto
            -58 -58 rlineto
            -3 -4 -2 -3 0 -3 rrcurveto
            -6 5 -5 8 vhcurveto
            43 hlineto
            9 0 7 4 5 6 28 25 28 28 26 29 49 48 14 16 11 13 rrcurveto
            4 -112 hlineto
            -11 5 -5 9 vhcurveto
            38 hlineto
            10 5 5 11 hvcurveto
            314 vlineto
            54 30 30 56 vhcurveto
            32 hlineto
            43 0 24 -16 14 -24 4 -7 3 -6 7 0 4 0 2 1 6 4 rrcurveto
            20 15 rlineto
            7 5 3 5 0 6 0 4 -2 5 -2 3 -21 44 -43 22 -59 0 rrcurveto
            -30 hlineto
            -47 0 -34 -17 -13 -27 rrcurveto
            -4 122 hlineto
            6 3 4 7 vhcurveto
            232 hlineto
            10 5 5 10 hvcurveto
            30 vlineto
            10 -5 5 -10 vhcurveto
            return
          </CharString>
          <CharString index="252">
            6 8 3 5 0 6 0 6 -2 2 -7 5 rrcurveto
            -15 12 rlineto
            -4 3 -3 1 -3 0 -7 0 -4 -6 -5 -6 -23 -32 -23 -25 -39 0 rrcurveto
            -4 hlineto
            -57 -25 28 60 hvcurveto
            32 vlineto
            59 23 29 58 vhcurveto
            13 hlineto
            11 5 4 10 hvcurveto
            31 vlineto
            10 -5 5 -11 vhcurveto
            -19 hlineto
            -93 -48 -55 -85 hvcurveto
            -44 vlineto
            -80 40 -53 77 vhcurveto
            6 hlineto
            13 9 3 0 hvcurveto
            -4 vlineto
            -1 0 -32 -27 -35 -43 rrcurveto
            -69 -87 rlineto
            -3 -3 -2 -4 0 -3 rrcurveto
            -7 4 -5 8 vhcurveto
            42 hlineto
            15 0 6 8 9 10 rrcurveto
            return
          </CharString>
          <CharString index="253">
            6 7 4 6 0 6 0 5 -3 3 -5 5 rrcurveto
            -15 14 rlineto
            -6 4 -2 1 -6 0 -5 0 -4 -4 -5 -6 rrcurveto
            -259 -288 rlineto
            -3 -4 -2 -3 0 -3 rrcurveto
            -6 5 -5 8 vhcurveto
            44 hlineto
            11 0 7 4 7 8 rrcurveto
            return
          </CharString>
          <CharString index="254">
            -4 -4 -2 -4 0 -5 rrcurveto
            -6 4 -5 9 vhcurveto
            44 hlineto
            10 0 6 4 6 6 7 6 141 152 26 31 5 7 4 5 0 7 0 4 -2 4 -5 4 rrcurveto
            -12 12 rlineto
            -5 5 -3 1 -4 0 -6 0 -3 -3 -6 -6 rrcurveto
            return
          </CharString>
          <CharString index="255">
            12 4 4 11 hvcurveto
            33 vlineto
            10 -4 5 -12 vhcurveto
            -314 hlineto
            -11 -4 -5 -9 hvcurveto
            -35 vlineto
            -9 4 -5 11 vhcurveto
            49 hlineto
            47 37 -21 -66 hvcurveto
            -47 vlineto
            -61 -26 -26 -57 vhcurveto
            -90 hlineto
            -11 -5 -5 -10 hvcurveto
            -32 vlineto
            -9 5 -5 11 vhcurveto
            106 hlineto
            82 52 48 95 hvcurveto
            56 vlineto
            0 38 -13 28 -26 13 rrcurveto
            4 vlineto
            return
          </CharString>
          <CharString index="256">
            12 3 5 10 hvcurveto
            30 vlineto
            10 -3 5 -12 vhcurveto
            -401 hlineto
            -11 -5 -5 -10 hvcurveto
            -30 vlineto
            -10 5 -5 11 vhcurveto
            return
          </CharString>
          <CharString index="257">
            -6 9 -6 5 -10 0 rrcurveto
            -35 hlineto
            -8 -4 -5 -7 hvcurveto
            0 -3 1 -2 1 -3 rrcurveto
            88 -137 rlineto
            4 -7 6 -5 9 0 rrcurveto
            41 hlineto
            8 5 6 7 hvcurveto
            0 4 -1 4 -2 3 rrcurveto
            return
          </CharString>
          <CharString index="258">
            -47 -20 12 46 hvcurveto
            10 vlineto
            45 20 13 47 vhcurveto
            150 hlineto
            19 16 11 23 hvcurveto
            117 vlineto
            6 3 4 7 vhcurveto
            79 hlineto
            10 5 5 10 hvcurveto
            30 vlineto
            10 -5 5 -10 vhcurveto
            return
          </CharString>
          <CharString index="259">
            -11 -5 -5 -10 hvcurveto
            -29 vlineto
            -11 5 -5 11 vhcurveto
            378 hlineto
            12 4 5 10 hvcurveto
            30 vlineto
            10 -4 5 -12 vhcurveto
            return
          </CharString>
          <CharString index="260">
            -67 -38 -42 -60 hvcurveto
            0 -25 4 -31 12 -22 5 -8 7 -3 9 0 rrcurveto
            29 hlineto
            9 5 5 8 hvcurveto
            0 5 -2 5 -2 9 -4 15 -5 15 0 16 rrcurveto
            34 20 17 38 vhcurveto
            173 -28 hlineto
            -265 -272 rlineto
            -3 -4 -1 -3 0 -3 rrcurveto
            -6 4 -5 8 vhcurveto
            45 hlineto
            11 0 6 4 8 8 rrcurveto
            220 232 rlineto
            16 17 4 17 0 38 rrcurveto
            52 vlineto
            10 -3 5 -12 vhcurveto
            return
          </CharString>
          <CharString index="261">
            4 -200 hlineto
            -11 6 -4 9 vhcurveto
            39 hlineto
            9 6 4 11 hvcurveto
            310 vlineto
            54 30 31 56 vhcurveto
            32 hlineto
            41 0 24 -15 14 -24 5 -7 3 -7 7 0 4 0 3 1 5 4 rrcurveto
            21 15 rlineto
            7 4 2 5 0 6 0 5 -2 5 -2 3 -21 43 -43 23 -59 0 rrcurveto
            -30 hlineto
            -46 0 -34 -17 -13 -28 rrcurveto
            -4 127 hlineto
            6 2 4 8 vhcurveto
            220 hlineto
            12 3 5 10 hvcurveto
            30 vlineto
            10 -3 5 -12 vhcurveto
            -647 hlineto
            -11 -4 -5 -10 hvcurveto
            -29 vlineto
            -11 4 -5 11 vhcurveto
            68 hlineto
            6 -1 2 -4 0 -5 rrcurveto
            -237 vlineto
            0 -75 46 -57 82 -2 rrcurveto
            21 hlineto
            6 0 9 1 4 2 rrcurveto
            -4 vlineto
            0 0 -40 -31 -50 -53 rrcurveto
            -80 -86 rlineto
            -3 -4 -2 -3 0 -3 rrcurveto
            -6 4 -5 8 vhcurveto
            47 hlineto
            11 0 6 4 7 8 rrcurveto
            111 123 rlineto
            return
          </CharString>
          <CharString index="262">
            -59 -28 30 58 hvcurveto
            228 vlineto
            6 3 4 8 vhcurveto
            183 hlineto
            7 3 -4 -6 hvcurveto
            -227 vlineto
            -54 -29 -35 -61 vhcurveto
            return
          </CharString>
          <CharString index="263">
            -91 54 -60 96 vhcurveto
            78 hlineto
            94 56 53 96 hvcurveto
            30 vlineto
            12 -5 5 -11 vhcurveto
            -35 hlineto
            -9 -5 -5 -12 hvcurveto
            -30 vlineto
            -60 -32 -28 -58 vhcurveto
            -67 hlineto
            -59 -31 30 60 hvcurveto
            100 vlineto
            60 31 30 59 vhcurveto
            134 hlineto
            return
          </CharString>
          <CharString index="264">
            -11 -5 -5 -10 hvcurveto
            -30 vlineto
            -10 5 -5 11 vhcurveto
            323 hlineto
            7 3 -4 -6 hvcurveto
            -318 vlineto
            -54 -31 -30 -56 vhcurveto
            -32 hlineto
            -59 -33 32 59 hvcurveto
            81 vlineto
            59 32 32 59 vhcurveto
            38 hlineto
            11 4 5 10 hvcurveto
            31 vlineto
            10 -4 5 -11 vhcurveto
            -46 hlineto
            -94 -56 -56 -93 hvcurveto
            -87 vlineto
            -94 57 -55 93 vhcurveto
            30 hlineto
            46 0 32 15 16 29 rrcurveto
            4 -118 hlineto
            -11 5 -5 9 vhcurveto
            38 hlineto
            10 5 5 11 hvcurveto
            288 vlineto
            return
          </CharString>
          <CharString index="265">
            -91 52 -59 96 vhcurveto
            63 hlineto
            36 0 28 10 14 24 rrcurveto
            4 -98 hlineto
            -11 5 -4 10 vhcurveto
            36 hlineto
            10 5 4 11 hvcurveto
            234 vlineto
            11 -5 4 -10 vhcurveto
            -36 hlineto
            -10 -5 -4 -11 hvcurveto
            -38 vlineto
            -48 -25 -23 -48 vhcurveto
            -64 hlineto
            -59 -29 29 60 hvcurveto
            81 vlineto
            59 29 32 57 vhcurveto
            162 hlineto
            return
          </CharString>
          <CharString index="266">
            -47 0 -34 -17 -13 -27 rrcurveto
            -4 148 hlineto
            6 3 4 7 vhcurveto
            162 hlineto
            6 -1 2 -4 0 -5 rrcurveto
            -104 vlineto
            return
          </CharString>
          <CharString index="267">
            54 31 30 56 vhcurveto
            32 hlineto
            59 33 -32 -59 hvcurveto
            -81 vlineto
            -59 -32 -32 -59 vhcurveto
            -38 hlineto
            -11 -4 -5 -10 hvcurveto
            -31 vlineto
            -10 4 -5 11 vhcurveto
            46 hlineto
            94 56 56 93 hvcurveto
            87 vlineto
            94 -57 55 -93 vhcurveto
            -30 hlineto
            -46 0 -34 -17 -14 -27 rrcurveto
            -4 122 hlineto
            6 3 4 8 vhcurveto
            323 hlineto
            11 4 5 10 hvcurveto
            30 vlineto
            10 -4 5 -11 vhcurveto
            return
          </CharString>
          <CharString index="268">
            -94 61 -77 113 vhcurveto
            68 hlineto
            54 0 41 19 17 35 rrcurveto
            4 -139 hlineto
            -11 6 -4 10 vhcurveto
            38 hlineto
            10 5 4 11 hvcurveto
            538 vlineto
            6 3 4 7 vhcurveto
            75 hlineto
            12 4 5 10 hvcurveto
            30 vlineto
            10 -4 5 -12 vhcurveto
            return
          </CharString>
          <CharString index="269">
            186 vlineto
            6 3 4 7 vhcurveto
            235 hlineto
            56 22 -21 -51 hvcurveto
            -4 vlineto
            -59 -23 -16 -55 vhcurveto
            -147 hlineto
            -47 0 -34 -17 -13 -28 rrcurveto
            return
          </CharString>
          <CharString index="270">
            -69 -37 -44 -78 vhcurveto
            -63 hlineto
            -75 -38 41 69 hvcurveto
            80 16 vlineto
            84 49 36 89 hvcurveto
            6 vlineto
            0 40 -13 24 -23 13 rrcurveto
            4 168 vlineto
            8 2 -4 -6 hvcurveto
            return
          </CharString>
          <CharString index="271">
            -7 -3 -4 -8 vhcurveto
            -203 4 hlineto
            21 15 10 28 0 41 rrcurveto
            137 vlineto
            6 2 4 8 vhcurveto
            162 hlineto
            8 3 -4 -6 hvcurveto
            return
          </CharString>
          <CharString index="272">
            -11 -5 -5 -10 hvcurveto
            -30 vlineto
            -10 5 -5 11 vhcurveto
            190 hlineto
            7 2 -4 -6 hvcurveto
            -149 vlineto
            -55 -28 -19 -39 vhcurveto
            -78 hlineto
            -12 -6 -7 -10 hvcurveto
            0 -43 22 -29 152 -230 rlineto
            4 -5 5 -6 9 0 rrcurveto
            41 hlineto
            8 6 6 8 hvcurveto
            0 3 -2 5 -3 4 rrcurveto
            -162 244 31 0 rlineto
            72 1 48 44 0 86 rrcurveto
            152 vlineto
            6 3 4 7 vhcurveto
            563 hlineto
            7 3 -4 -6 hvcurveto
            -121 vlineto
            -7 -3 -4 -7 vhcurveto
            -134 hlineto
            -89 -58 -47 -100 hvcurveto
            -86 -91 vlineto
            -58 -24 28 60 hvcurveto
            32 vlineto
            return
          </CharString>
          <CharString index="273">
            59 22 29 58 vhcurveto
            13 hlineto
            12 4 4 10 hvcurveto
            31 vlineto
            10 -4 5 -12 vhcurveto
            -18 hlineto
            -93 -49 -55 -85 hvcurveto
            -44 vlineto
            -87 46 -56 89 vhcurveto
            106 hlineto
            7 -89 54 -40 82 0 rrcurveto
            25 hlineto
            11 5 5 10 hvcurveto
            30 vlineto
            9 -5 6 -11 vhcurveto
            -12 hlineto
            -53 -35 20 67 hvcurveto
            124 vlineto
            return
          </CharString>
          <CharString index="274">
            66 34 22 50 vhcurveto
            128 hlineto
            7 3 -4 -7 hvcurveto
            -333 vlineto
            -11 5 -4 10 vhcurveto
            38 hlineto
            10 5 4 11 hvcurveto
            538 vlineto
            6 3 4 7 vhcurveto
            76 hlineto
            12 3 5 10 hvcurveto
            30 vlineto
            10 -3 5 -12 vhcurveto
            return
          </CharString>
          <CharString index="275">
            -11 -5 -5 -10 hvcurveto
            -30 vlineto
            -10 5 -5 11 vhcurveto
            190 hlineto
            7 2 -4 -6 hvcurveto
            -149 vlineto
            -55 -28 -19 -39 vhcurveto
            -78 hlineto
            -12 -6 -7 -10 hvcurveto
            0 -43 22 -29 152 -230 rlineto
            4 -5 5 -6 9 0 rrcurveto
            41 hlineto
            8 6 6 8 hvcurveto
            0 3 -2 5 -3 4 rrcurveto
            -162 244 31 0 rlineto
            72 1 48 44 0 86 rrcurveto
            152 vlineto
            6 3 4 7 vhcurveto
            276 hlineto
            7 3 -4 -6 hvcurveto
            0 -304 0 -2 rlineto
            -51 -26 -18 -51 vhcurveto
            -14 hlineto
            -60 -26 33 58 hvcurveto
            39 vlineto
            59 22 29 58 vhcurveto
            13 hlineto
            12 4 4 10 hvcurveto
            31 vlineto
            10 -4 5 -12 vhcurveto
            -18 hlineto
            -93 -49 -55 -85 hvcurveto
            -47 vlineto
            -94 56 -55 92 vhcurveto
            25 hlineto
            97 0 41 51 1 77 rrcurveto
            0 1 0 29 rlineto
            return
          </CharString>
          <CharString index="276">
            6 3 4 7 vhcurveto
            183 hlineto
            8 3 -4 -6 hvcurveto
            -263 vlineto
            -11 5 -4 10 vhcurveto
            38 hlineto
            10 5 4 11 hvcurveto
            538 vlineto
            6 3 4 7 vhcurveto
            76 hlineto
            11 4 5 10 hvcurveto
            30 vlineto
            10 -4 5 -11 vhcurveto
            return
          </CharString>
          <CharString index="277">
            -7 -3 -4 -8 vhcurveto
            -183 hlineto
            -6 -4 4 7 hvcurveto
            194 vlineto
            6 3 4 7 vhcurveto
            184 hlineto
            7 3 -4 -6 hvcurveto
            return
          </CharString>
          <CharString index="278">
            -17 -11 -13 -17 hvcurveto
            -578 vlineto
            -11 5 -4 10 vhcurveto
            38 hlineto
            10 5 4 11 hvcurveto
            538 vlineto
            6 3 4 7 vhcurveto
            76 hlineto
            11 4 5 10 hvcurveto
            30 vlineto
            10 -4 5 -11 vhcurveto
            return
          </CharString>
          <CharString index="279">
            -11 5 -4 10 vhcurveto
            38 hlineto
            9 5 4 11 hvcurveto
            52 vlineto
            50 19 21 51 52 19 -21 -51 vhcurveto
            -89 vlineto
            return
          </CharString>
          <CharString index="280">
            -63 -36 -22 -50 vhcurveto
            -154 hlineto
            -12 -7 -7 -10 hvcurveto
            0 -43 24 -29 2 -2 -2 -2 rlineto
            -20 -20 -17 -18 -46 0 rrcurveto
            -5 hlineto
            -58 -24 28 60 hvcurveto
            32 vlineto
            59 22 29 58 vhcurveto
            13 hlineto
            12 4 4 10 hvcurveto
            31 vlineto
            10 -4 5 -12 vhcurveto
            -18 hlineto
            -93 -49 -55 -85 hvcurveto
            -44 vlineto
            -87 46 -56 89 vhcurveto
            23 hlineto
            53 0 36 23 24 29 rrcurveto
            118 -170 rlineto
            4 -6 5 -5 9 0 rrcurveto
            43 hlineto
            8 6 6 7 hvcurveto
            0 3 -2 5 -3 3 rrcurveto
            -166 235 96 0 rlineto
            96 54 49 97 hvcurveto
            87 vlineto
            90 -51 42 -87 -89 -48 -42 -90 vhcurveto
            return
          </CharString>
          <CharString index="281">
            31 hlineto
            72 1 48 44 0 86 rrcurveto
            152 vlineto
            6 3 4 7 vhcurveto
            219 hlineto
            12 4 5 10 hvcurveto
            30 vlineto
            10 -4 5 -12 vhcurveto
            -496 hlineto
            -11 -5 -5 -10 hvcurveto
            -30 vlineto
            -10 5 -5 11 vhcurveto
            190 hlineto
            7 2 -4 -6 hvcurveto
            -149 vlineto
            -55 -28 -19 -39 vhcurveto
            -78 hlineto
            -12 -6 -7 -10 hvcurveto
            0 -43 22 -29 152 -230 rlineto
            4 -5 5 -6 9 0 rrcurveto
            41 hlineto
            8 6 6 8 hvcurveto
            0 3 -2 5 -3 4 rrcurveto
            return
          </CharString>
          <CharString index="282">
            -11 -5 -5 -9 hvcurveto
            -31 vlineto
            -10 5 -5 11 vhcurveto
            36 hlineto
            44 20 -22 -44 hvcurveto
            -107 vlineto
            -60 -29 -30 -59 vhcurveto
            -135 hlineto
            -58 -24 23 57 hvcurveto
            34 vlineto
            49 23 26 51 vhcurveto
            34 hlineto
            11 4 5 9 hvcurveto
            31 vlineto
            10 -4 5 -11 vhcurveto
            -39 hlineto
            -45 -24 25 45 hvcurveto
            64 vlineto
            51 21 26 50 vhcurveto
            199 hlineto
            return
          </CharString>
          <CharString index="283">
            -69 -37 -44 -78 vhcurveto
            -63 hlineto
            -75 -38 41 69 hvcurveto
            return
          </CharString>
          <CharString index="284">
            69 16 vlineto
            84 49 38 89 hvcurveto
            18 vlineto
            0 40 -14 27 -22 13 rrcurveto
            4 168 vlineto
            8 2 -4 -6 hvcurveto
            return
          </CharString>
          <CharString index="285">
            -22 -17 -14 -29 0 -43 rrcurveto
            -85 52 -48 88 vhcurveto
            97 hlineto
            89 56 59 93 hvcurveto
            119 vlineto
            return
          </CharString>
          <CharString index="286">
            17 25 10 32 0 36 rrcurveto
            75 vlineto
            0 50 -15 36 -30 20 rrcurveto
            return
          </CharString>
          <CharString index="287">
            11 11 7 16 0 23 rrcurveto
            73 vlineto
            7 3 3 8 vhcurveto
            84 hlineto
            11 1 4 4 0 11 rrcurveto
            29 vlineto
            10 -4 5 -11 vhcurveto
            return
          </CharString>
          <CharString index="288">
            -61 -23 25 54 39 19 29 48 hvcurveto
            119 hlineto
            22 0 21 4 19 7 rrcurveto
            -69 vlineto
            -53 -26 -36 -64 vhcurveto
            return
          </CharString>
          <CharString index="289">
            -94 57 -55 93 vhcurveto
            30 hlineto
            46 0 32 15 16 29 rrcurveto
            4 -118 hlineto
            -11 5 -5 9 vhcurveto
            38 hlineto
            10 5 5 11 hvcurveto
            314 vlineto
            54 30 30 56 vhcurveto
            32 hlineto
            59 33 -32 -59 hvcurveto
            -81 vlineto
            -59 -31 -32 -59 vhcurveto
            -38 hlineto
            -11 -5 -5 -10 hvcurveto
            -31 vlineto
            -10 5 -5 11 vhcurveto
            46 hlineto
            94 0 55 56 1 93 rrcurveto
            87 vlineto
            94 -57 55 -93 vhcurveto
            -30 hlineto
            -47 0 -34 -17 -13 -27 rrcurveto
            -4 122 hlineto
            6 3 4 7 vhcurveto
            323 hlineto
            11 5 5 10 hvcurveto
            30 vlineto
            10 -5 5 -11 vhcurveto
            return
          </CharString>
          <CharString index="290">
            11 1 4 5 0 10 rrcurveto
            33 vlineto
            10 -4 5 -11 vhcurveto
            -282 hlineto
            -10 -5 -5 -9 hvcurveto
            -35 vlineto
            -9 4 -6 12 vhcurveto
            49 hlineto
            47 36 -20 -66 hvcurveto
            -65 vlineto
            -60 -25 -27 -58 vhcurveto
            -90 hlineto
            -11 -5 -5 -10 hvcurveto
            -32 vlineto
            -9 5 -5 11 vhcurveto
            107 hlineto
            82 52 48 95 hvcurveto
            74 vlineto
            0 38 -13 27 -26 13 rrcurveto
            4 vlineto
            return
          </CharString>
          <CharString index="291">
            -94 58 -55 93 vhcurveto
            42 hlineto
            46 0 35 15 15 29 rrcurveto
            4 -111 hlineto
            -11 6 -5 9 vhcurveto
            39 hlineto
            9 6 5 11 hvcurveto
            537 vlineto
            6 3 4 7 vhcurveto
            75 hlineto
            11 5 5 10 hvcurveto
            30 vlineto
            10 -5 5 -11 vhcurveto
            return
          </CharString>
          <CharString index="292">
            -12 28 -24 15 -41 0 rrcurveto
            -291 hlineto
            -11 -4 -5 -9 hvcurveto
            -35 vlineto
            -9 4 -5 11 vhcurveto
            49 hlineto
            47 37 -21 -66 hvcurveto
            -76 vlineto
            -60 -26 -27 -57 vhcurveto
            -90 hlineto
            -11 -5 -5 -10 hvcurveto
            -32 vlineto
            -9 5 -5 11 vhcurveto
            106 hlineto
            82 52 48 95 hvcurveto
            85 vlineto
            0 38 -12 28 -27 13 rrcurveto
            4 114 vlineto
            30 4 -12 -27 hvcurveto
            -70 vlineto
            return
          </CharString>
          <CharString index="293">
            -94 58 -55 93 vhcurveto
            35 hlineto
            45 0 35 15 16 29 rrcurveto
            4 -114 hlineto
            -11 5 -5 10 vhcurveto
            38 hlineto
            10 5 5 11 hvcurveto
            537 vlineto
            6 3 4 7 vhcurveto
            75 hlineto
            11 5 5 10 hvcurveto
            30 vlineto
            10 -5 5 -11 vhcurveto
            return
          </CharString>
          <CharString index="294">
            7 3 4 7 vhcurveto
            183 hlineto
            8 3 -4 -7 hvcurveto
            -249 vlineto
            -11 5 -4 10 vhcurveto
            38 hlineto
            10 5 4 11 hvcurveto
            538 vlineto
            6 3 4 7 vhcurveto
            76 hlineto
            11 4 5 10 hvcurveto
            30 vlineto
            10 -4 5 -11 vhcurveto
            return
          </CharString>
          <CharString index="295">
            -18 -11 -13 -17 hvcurveto
            -578 vlineto
            -11 5 -4 10 vhcurveto
            38 hlineto
            10 5 4 11 hvcurveto
            538 vlineto
            6 3 4 8 vhcurveto
            75 hlineto
            12 3 5 10 hvcurveto
            30 vlineto
            10 -3 5 -12 vhcurveto
            return
          </CharString>
          <CharString index="296">
            -11 -5 -5 -10 hvcurveto
            -30 vlineto
            -10 5 -5 11 vhcurveto
            318 hlineto
            7 3 -4 -6 hvcurveto
            -64 vlineto
            -7 -3 -3 -7 vhcurveto
            -120 hlineto
            -80 -49 -33 -77 hvcurveto
            -9 vlineto
            -78 43 -29 86 vhcurveto
            96 hlineto
            return
          </CharString>
          <CharString index="297">
            19 16 11 23 hvcurveto
            101 vlineto
            6 2 4 8 vhcurveto
            91 hlineto
            11 5 5 10 hvcurveto
            30 vlineto
            10 -5 5 -11 vhcurveto
            return
          </CharString>
          <CharString index="298">
            94 56 53 96 hvcurveto
            30 vlineto
            12 -5 5 -11 vhcurveto
            -35 hlineto
            -9 -5 -5 -12 hvcurveto
            -30 vlineto
            -60 -32 -28 -58 vhcurveto
            -67 hlineto
            -59 -31 30 60 hvcurveto
            100 vlineto
            60 31 30 59 vhcurveto
            134 hlineto
            return
          </CharString>
          <CharString index="299">
            54 30 30 56 vhcurveto
            32 hlineto
            59 33 -32 -59 hvcurveto
            -81 vlineto
            -59 -31 -32 -59 vhcurveto
            -38 hlineto
            -11 -5 -5 -10 hvcurveto
            -31 vlineto
            -10 5 -5 11 vhcurveto
            46 hlineto
            94 0 55 56 1 93 rrcurveto
            87 vlineto
            94 -57 55 -93 vhcurveto
            -30 hlineto
            -47 0 -34 -17 -13 -27 rrcurveto
            -4 122 hlineto
            6 3 4 7 vhcurveto
            323 hlineto
            11 5 5 10 hvcurveto
            30 vlineto
            10 -5 5 -11 vhcurveto
            return
          </CharString>
          <CharString index="300">
            59 22 29 58 vhcurveto
            13 hlineto
            12 4 4 10 hvcurveto
            31 vlineto
            10 -4 5 -12 vhcurveto
            -18 hlineto
            -93 -49 -55 -85 hvcurveto
            -44 vlineto
            -87 46 -56 89 vhcurveto
            11 hlineto
            42 1 31 15 16 27 rrcurveto
            4 -157 hlineto
            -11 5 -4 10 vhcurveto
            37 hlineto
            10 5 4 11 hvcurveto
            538 vlineto
            6 3 4 8 vhcurveto
            75 hlineto
            12 4 5 10 hvcurveto
            30 vlineto
            10 -4 5 -12 vhcurveto
            return
          </CharString>
          <CharString index="301">
            -54 -29 -36 -62 vhcurveto
            -34 hlineto
            -58 -28 31 58 hvcurveto
            232 vlineto
            6 3 4 7 vhcurveto
            191 hlineto
            7 3 -4 -6 hvcurveto
            return
          </CharString>
          <CharString index="302">
            -69 -38 -44 -77 vhcurveto
            -64 hlineto
            -75 -38 41 69 hvcurveto
            63 17 vlineto
            84 48 39 88 hvcurveto
            24 vlineto
            0 40 -13 27 -22 13 rrcurveto
            4 168 vlineto
            7 3 -4 -6 hvcurveto
            return
          </CharString>
          <CharString index="303">
            -11 6 -4 9 vhcurveto
            39 hlineto
            9 6 4 11 hvcurveto
            538 vlineto
            6 3 4 7 vhcurveto
            75 hlineto
            12 4 5 10 hvcurveto
            30 vlineto
            10 -4 5 -12 vhcurveto
            return
          </CharString>
          <CharString index="304">
            48 70 vlineto
            91 54 42 95 hvcurveto
            57 vlineto
            83 -56 37 -75 vhcurveto
            return
          </CharString>
          <CharString index="305">
            -69 -38 -44 -78 vhcurveto
            -63 hlineto
            -75 -38 41 69 hvcurveto
            69 16 vlineto
            84 49 38 89 hvcurveto
            18 vlineto
            0 40 -13 27 -22 13 rrcurveto
            4 167 vlineto
            8 3 -4 -6 hvcurveto
            return
          </CharString>
          <CharString index="306">
            18 13 12 20 hvcurveto
            120 vlineto
            6 3 4 8 vhcurveto
            73 hlineto
            11 4 5 10 hvcurveto
            30 vlineto
            10 -4 5 -11 vhcurveto
            return
          </CharString>
          <CharString index="307">
            36 0 28 10 14 24 rrcurveto
            return
          </CharString>
          <CharString index="308">
            -59 -29 29 60 hvcurveto
            81 vlineto
            59 29 32 57 vhcurveto
            162 hlineto
            18 13 12 20 hvcurveto
            120 vlineto
            6 3 4 7 vhcurveto
            68 hlineto
            10 5 5 10 hvcurveto
            30 vlineto
            10 -5 5 -10 vhcurveto
            return
          </CharString>
          <CharString index="309">
            -69 -38 -44 -78 vhcurveto
            -63 hlineto
            -75 -38 41 69 hvcurveto
            69 16 vlineto
            85 48 38 89 hvcurveto
            18 vlineto
            0 40 -13 27 -22 13 rrcurveto
            4 167 vlineto
            8 3 -4 -6 hvcurveto
            return
          </CharString>
          <CharString index="310">
            60 31 30 59 vhcurveto
            134 hlineto
            19 16 11 23 hvcurveto
            141 vlineto
            6 3 4 7 vhcurveto
            88 hlineto
            11 5 5 10 hvcurveto
            30 vlineto
            10 -5 5 -11 vhcurveto
            return
          </CharString>
          <CharString index="311">
            66 34 22 50 vhcurveto
            127 hlineto
            8 3 -4 -7 hvcurveto
            -333 vlineto
            -11 5 -4 10 vhcurveto
            38 hlineto
            10 5 4 11 hvcurveto
            538 vlineto
            6 3 4 7 vhcurveto
            76 hlineto
            11 4 5 10 hvcurveto
            30 vlineto
            10 -4 5 -11 vhcurveto
            return
          </CharString>
          <CharString index="312">
            -11 -5 -5 -10 hvcurveto
            -29 vlineto
            -11 5 -5 11 vhcurveto
            67 hlineto
            6 -1 2 -4 0 -5 rrcurveto
            -234 vlineto
            -90 58 -55 88 vhcurveto
            25 hlineto
            48 0 32 16 16 29 rrcurveto
            4 -204 hlineto
            -11 5 -4 10 vhcurveto
            37 hlineto
            10 5 5 11 hvcurveto
            273 vlineto
            54 31 31 56 vhcurveto
            73 hlineto
            12 4 4 11 hvcurveto
            33 vlineto
            10 -4 5 -12 vhcurveto
            -62 hlineto
            -46 0 -34 -17 -14 -28 rrcurveto
            -4 161 hlineto
            6 3 4 8 vhcurveto
            525 hlineto
            7 2 -4 -6 hvcurveto
            -106 vlineto
            -6 -3 -4 -7 vhcurveto
            -275 hlineto
            -11 -4 -5 -9 hvcurveto
            -35 vlineto
            -9 4 -5 11 vhcurveto
            18 hlineto
            47 37 -21 -66 hvcurveto
            -76 vlineto
            -60 -26 -27 -57 vhcurveto
            -104 hlineto
            -11 -5 -5 -10 hvcurveto
            -32 vlineto
            -9 5 -5 11 vhcurveto
            120 hlineto
            82 52 48 95 hvcurveto
            85 vlineto
            0 38 -13 28 -26 13 rrcurveto
            4 145 vlineto
            7 3 -4 -7 hvcurveto
            -348 vlineto
            -11 5 -4 10 vhcurveto
            38 hlineto
            10 5 4 11 hvcurveto
            538 vlineto
            6 3 4 8 vhcurveto
            75 hlineto
            12 4 5 10 hvcurveto
            30 vlineto
            10 -4 5 -12 vhcurveto
            return
          </CharString>
          <CharString index="313">
            -46 0 -34 -17 -14 -28 rrcurveto
            -4 150 hlineto
            6 3 4 8 vhcurveto
            163 hlineto
            6 -1 2 -4 0 -5 rrcurveto
            -105 vlineto
            return
          </CharString>
          <CharString index="314">
            -11 -5 -5 -10 hvcurveto
            -30 vlineto
            -10 5 -5 11 vhcurveto
            732 hlineto
            7 3 -4 -6 hvcurveto
            -117 vlineto
            -7 -3 -3 -8 vhcurveto
            -306 hlineto
            -10 -5 -5 -9 hvcurveto
            -35 vlineto
            -9 4 -6 12 vhcurveto
            49 hlineto
            47 36 -20 -66 hvcurveto
            -65 vlineto
            -60 -25 -27 -58 vhcurveto
            -71 0 -243 263 rlineto
            return
          </CharString>
          <CharString index="315">
            14 9 18 4 22 0 rrcurveto
            55 hlineto
            11 4 5 9 hvcurveto
            34 vlineto
            10 -4 5 -11 vhcurveto
            -61 hlineto
            -94 0 -55 -56 -1 -93 rrcurveto
            -102 vlineto
            -94 58 -55 93 vhcurveto
            282 hlineto
            82 51 48 95 hvcurveto
            74 vlineto
            0 38 -12 27 -26 13 rrcurveto
            return
          </CharString>
          <CharString index="316">
            4 144 vlineto
            8 3 -4 -6 hvcurveto
            -337 vlineto
            -11 5 -4 10 vhcurveto
            38 hlineto
            10 5 4 11 hvcurveto
            538 vlineto
            6 3 4 7 vhcurveto
            76 hlineto
            11 4 5 10 hvcurveto
            30 vlineto
            10 -4 5 -11 vhcurveto
            return
          </CharString>
          <CharString index="317">
            0 16 2 14 5 12 rrcurveto
            211 -227 -129 0 rlineto
            -60 -29 33 58 hvcurveto
            return
          </CharString>
          <CharString index="318">
            29 -38 47 -25 64 0 rrcurveto
            68 hlineto
            54 0 41 20 17 34 rrcurveto
            4 -133 hlineto
            -11 6 -4 9 vhcurveto
            39 hlineto
            10 5 4 11 hvcurveto
            538 vlineto
            6 3 4 7 vhcurveto
            75 hlineto
            12 4 5 10 hvcurveto
            30 vlineto
            10 -4 5 -12 vhcurveto
            return
          </CharString>
          <CharString index="319">
            -56 0 -36 -22 -14 -41 rrcurveto
            -4 hlineto
            -16 45 -39 19 -58 0 rrcurveto
            -88 -56 -49 -101 hvcurveto
            -110 vlineto
            return
          </CharString>
          <CharString index="320">
            -100 56 -49 93 vhcurveto
            44 hlineto
            11 5 5 10 hvcurveto
            32 vlineto
            10 -5 4 -11 vhcurveto
            -36 hlineto
            -59 -31 26 65 hvcurveto
            103 vlineto
            65 27 26 54 51 28 -22 -63 vhcurveto
            -80 vlineto
            -11 5 -5 10 vhcurveto
            36 hlineto
            10 5 5 11 hvcurveto
            77 vlineto
            67 29 20 52 vhcurveto
            29 hlineto
            11 4 5 10 hvcurveto
            34 vlineto
            9 -4 5 -11 vhcurveto
            return
          </CharString>
          <CharString index="321">
            -74 -51 -42 -72 hvcurveto
            -45 vlineto
            -11 5 -4 9 vhcurveto
            36 hlineto
            9 5 4 11 hvcurveto
            39 vlineto
            41 23 19 40 39 25 -19 -42 vhcurveto
            -77 vlineto
            -55 -28 -24 -55 vhcurveto
            -88 hlineto
            -12 53 -43 40 -72 0 -61 0 -37 -22 -14 -41 rrcurveto
            -4 hlineto
            -16 45 -39 19 -58 0 rrcurveto
            -88 -56 -49 -101 hvcurveto
            -110 vlineto
            -100 56 -49 93 vhcurveto
            44 hlineto
            11 5 5 10 hvcurveto
            32 vlineto
            10 -5 4 -11 vhcurveto
            -36 hlineto
            -59 -31 26 65 hvcurveto
            103 vlineto
            65 27 26 54 51 28 -22 -63 vhcurveto
            -80 vlineto
            -11 5 -5 10 vhcurveto
            36 hlineto
            10 5 5 11 hvcurveto
            77 vlineto
            67 30 20 49 vhcurveto
            return
          </CharString>
          <CharString index="322">
            10 -4 5 -12 vhcurveto
            -458 hlineto
            -11 -5 -5 -10 hvcurveto
            -30 vlineto
            -10 5 -5 11 vhcurveto
            458 hlineto
            12 4 5 10 hvcurveto
            return
          </CharString>
          <CharString index="323">
            49 22 18 50 vhcurveto
            151 hlineto
            19 16 11 24 hvcurveto
            109 vlineto
            6 3 4 7 vhcurveto
            72 hlineto
            11 5 5 10 hvcurveto
            30 vlineto
            10 -5 5 -11 vhcurveto
            return
          </CharString>
          <CharString index="324">
            -12 -4 -5 -10 hvcurveto
            -30 vlineto
            -10 4 -5 12 vhcurveto
            65 hlineto
            7 2 -4 -6 hvcurveto
            -134 vlineto
            0 -48 20 -33 32 -17 rrcurveto
            -4 vlineto
            return
          </CharString>
          <CharString index="325">
            -41 -19 -23 -44 0 -64 rrcurveto
            -55 vlineto
            -92 55 -61 96 vhcurveto
            89 hlineto
            94 57 54 96 hvcurveto
            29 vlineto
            12 -5 6 -10 vhcurveto
            -35 hlineto
            -9 -6 -6 -12 hvcurveto
            -28 vlineto
            -61 -32 -29 -59 vhcurveto
            -78 hlineto
            -59 -32 32 59 hvcurveto
            56 vlineto
            59 28 30 59 vhcurveto
            138 hlineto
            return
          </CharString>
          <CharString index="326">
            51 24 30 42 hvcurveto
            202 vlineto
            6 3 4 8 vhcurveto
            64 hlineto
            11 5 5 10 hvcurveto
            30 vlineto
            10 -5 5 -11 vhcurveto
            return
          </CharString>
          <CharString index="327">
            7 3 -4 -6 hvcurveto
            0 -165 -214 175 2 0 rlineto
            return
          </CharString>
          <CharString index="328">
            -54 -27 27 58 hvcurveto
            0 91 213 -175 rlineto
            -2 -1 -2 0 -2 0 rrcurveto
            return
          </CharString>
          <CharString index="329">
            29 32 16 -13 -1 0 rlineto
            -7 -3 -4 -6 hvcurveto
            -37 vlineto
            return
          </CharString>
          <CharString index="330">
            -60 -29 -33 -59 vhcurveto
            -86 hlineto
            -59 -29 33 60 hvcurveto
            46 vlineto
            60 21 31 59 vhcurveto
            101 hlineto
            60 21 -31 -60 hvcurveto
            return
          </CharString>
          <CharString index="331">
            -14 12 rlineto
            12 8 7 14 3 18 rrcurveto
            18 -15 rlineto
            return
          </CharString>
          <CharString index="332">
            -11 -5 -5 -10 hvcurveto
            -29 vlineto
            -11 5 -5 11 vhcurveto
            67 hlineto
            6 -1 2 -4 0 -5 rrcurveto
            -246 vlineto
            -89 58 -55 88 vhcurveto
            47 hlineto
            57 0 44 33 29 31 24 -39 43 -19 54 0 rrcurveto
            22 hlineto
            86 55 45 99 hvcurveto
            240 vlineto
            6 3 4 6 vhcurveto
            132 hlineto
            7 3 -4 -6 hvcurveto
            -538 vlineto
            -11 5 -4 10 vhcurveto
            38 hlineto
            10 5 4 11 hvcurveto
            538 vlineto
            6 3 4 7 vhcurveto
            76 hlineto
            12 3 5 10 hvcurveto
            30 vlineto
            10 -3 5 -12 vhcurveto
            return
          </CharString>
          <CharString index="333">
            226 hlineto
            8 2 -4 -6 hvcurveto
            0 -240 0 -13 rlineto
            return
          </CharString>
          <CharString index="334">
            21 15 10 28 0 41 rrcurveto
            137 vlineto
            6 2 4 8 vhcurveto
            160 hlineto
            6 -1 2 -4 0 -5 rrcurveto
            -225 -209 vlineto
            return
          </CharString>
          <CharString index="335">
            -11 -5 -5 -10 hvcurveto
            -30 vlineto
            -10 5 -5 11 vhcurveto
            323 hlineto
            7 2 -4 -6 hvcurveto
            -74 vlineto
            -7 -3 -3 -8 vhcurveto
            -117 hlineto
            -83 -48 -35 -85 hvcurveto
            0 -57 21 -30 37 -14 rrcurveto
            -4 vlineto
            -37 -16 -27 -32 0 -67 rrcurveto
            -26 vlineto
            -93 55 -53 109 vhcurveto
            157 hlineto
            11 5 4 11 hvcurveto
            29 vlineto
            10 -5 4 -11 vhcurveto
            -151 hlineto
            -71 -30 29 60 hvcurveto
            23 vlineto
            57 24 34 56 vhcurveto
            67 hlineto
            return
          </CharString>
          <CharString index="336">
            -11 5 -4 10 vhcurveto
            38 hlineto
            return
          </CharString>
          <CharString index="337">
            10 5 4 11 hvcurveto
            538 vlineto
            6 3 4 7 vhcurveto
            76 hlineto
            11 4 5 10 hvcurveto
            30 vlineto
            10 -4 5 -11 vhcurveto
            return
          </CharString>
          <CharString index="338">
            -10 -4 -4 -10 hvcurveto
            -43 vlineto
            -10 4 -5 10 vhcurveto
            42 hlineto
            9 5 5 10 hvcurveto
            43 vlineto
            10 -5 4 -9 vhcurveto
            return
          </CharString>
          <CharString index="339">
            -10 -4 -4 -11 hvcurveto
            -42 vlineto
            -11 4 -4 10 vhcurveto
            42 hlineto
            9 5 4 11 hvcurveto
            42 vlineto
            11 -5 4 -9 vhcurveto
            return
          </CharString>
          <CharString index="340">
            -9 -5 -4 -11 hvcurveto
            -42 vlineto
            -11 5 -4 9 vhcurveto
            42 hlineto
            10 4 4 11 hvcurveto
            42 vlineto
            11 -5 4 -9 vhcurveto
            return
          </CharString>
          <CharString index="341">
            11 -6 4 -9 vhcurveto
            -42 hlineto
            -9 -5 -4 -11 hvcurveto
            -42 vlineto
            -11 5 -4 9 vhcurveto
            42 hlineto
            10 5 4 11 hvcurveto
            return
          </CharString>
          <CharString index="342">
            -10 -5 -5 -10 hvcurveto
            -30 vlineto
            -10 5 -5 10 vhcurveto
            95 hlineto
            11 5 5 10 hvcurveto
            30 vlineto
            10 -5 5 -11 vhcurveto
            return
          </CharString>
          <CharString index="343">
            59 31 24 59 vhcurveto
            39 hlineto
            60 31 -26 -58 hvcurveto
            0 -49 -81 -60 -185 -144 rlineto
            -10 -8 -5 -5 0 -8 rrcurveto
            -7 4 -5 8 vhcurveto
            50 hlineto
            13 0 7 5 7 6 rrcurveto
            194 152 0 -148 rlineto
            -11 5 -4 10 vhcurveto
            38 hlineto
            10 5 4 11 hvcurveto
            538 vlineto
            6 3 4 8 vhcurveto
            75 hlineto
            12 3 5 10 hvcurveto
            30 vlineto
            10 -3 5 -12 vhcurveto
            return
          </CharString>
          <CharString index="344">
            21 15 9 28 0 41 rrcurveto
            137 vlineto
            6 3 4 8 vhcurveto
            167 hlineto
            6 -1 2 -4 0 -5 rrcurveto
            -225 -216 vlineto
            return
          </CharString>
          <CharString index="345">
            -4 hlineto
            -14 24 -28 12 -41 0 -56 0 -35 -22 -14 -41 rrcurveto
            -4 hlineto
            return
          </CharString>
          <CharString index="346">
            -69 -38 -44 -77 vhcurveto
            -64 hlineto
            -75 -37 41 69 hvcurveto
            return
          </CharString>
          <CharString index="347">
            -54 -30 -37 -62 vhcurveto
            -35 hlineto
            -61 -29 32 59 hvcurveto
            83 vlineto
            return
          </CharString>
          <CharString index="348">
            -75 -51 -42 -72 hvcurveto
            -49 vlineto
            -12 6 -4 9 vhcurveto
            36 hlineto
            9 5 4 12 hvcurveto
            43 vlineto
            41 23 19 40 38 25 -19 -42 vhcurveto
            -53 vlineto
            -55 -28 -24 -55 vhcurveto
            -294 hlineto
            -66 -39 -42 -59 hvcurveto
            0 -23 4 -26 8 -21 4 -12 8 -8 14 0 rrcurveto
            28 hlineto
            9 5 5 8 hvcurveto
            0 5 -1 4 -2 7 -5 15 -4 16 0 18 rrcurveto
            35 19 16 39 vhcurveto
            return
          </CharString>
          <CharString index="349">
            10 -4 5 -11 vhcurveto
            -244 hlineto
            -11 -5 -5 -10 hvcurveto
            -30 vlineto
            -10 5 -5 11 vhcurveto
            244 hlineto
            11 4 5 10 hvcurveto
            return
          </CharString>
          <CharString index="350">
            -11 -5 -4 -10 hvcurveto
            -31 vlineto
            -10 5 -5 11 vhcurveto
            135 hlineto
            56 22 -24 -54 hvcurveto
            -12 vlineto
            -60 -23 -19 -55 vhcurveto
            -57 hlineto
            -11 -4 -5 -10 hvcurveto
            return
          </CharString>
          <CharString index="351">
            -105 -180 vlineto
            -66 -39 -42 -60 hvcurveto
            0 -23 4 -25 8 -21 4 -13 8 -7 14 0 rrcurveto
            29 hlineto
            8 5 5 8 hvcurveto
            0 4 -1 4 -2 8 -5 15 -4 16 0 18 rrcurveto
            34 19 17 39 vhcurveto
            159 -143 hlineto
            -12 6 -4 10 vhcurveto
            38 hlineto
            10 5 4 12 hvcurveto
            86 vlineto
            return
          </CharString>
          <CharString index="352">
            -60 -23 -19 -55 vhcurveto
            -57 hlineto
            -11 -4 -5 -10 hvcurveto
            return
          </CharString>
          <CharString index="353">
            -69 -38 -44 -77 vhcurveto
            -64 hlineto
            -75 -38 41 69 hvcurveto
            69 17 vlineto
            84 48 38 89 hvcurveto
            18 vlineto
            0 40 -13 27 -22 13 rrcurveto
            4 168 vlineto
            7 3 -4 -6 hvcurveto
            return
          </CharString>
          <CharString index="354">
            -54 -31 -30 -56 vhcurveto
            -32 hlineto
            -59 -33 32 59 hvcurveto
            81 vlineto
            59 32 32 59 vhcurveto
            38 hlineto
            11 4 5 10 hvcurveto
            31 vlineto
            10 -4 5 -11 vhcurveto
            -46 hlineto
            -93 0 -56 -55 -1 -92 rrcurveto
            -194 4 hlineto
            21 15 10 28 0 41 rrcurveto
            137 vlineto
            6 2 4 8 vhcurveto
            421 hlineto
            7 3 -4 -6 hvcurveto
            return
          </CharString>
          <CharString index="355">
            -40 24 -28 32 0 53 rrcurveto
            59 23 19 54 53 22 -19 -59 vhcurveto
            0 -44 -17 -38 -52 -36 rrcurveto
            return
          </CharString>
          <CharString index="356">
            123 -292 hlineto
            -11 5 -4 10 vhcurveto
            38 hlineto
            10 5 4 11 hvcurveto
            302 vlineto
            return
          </CharString>
          <CharString index="357">
            -59 -31 -34 -60 vhcurveto
            -67 hlineto
            -59 -31 34 59 hvcurveto
            44 vlineto
            59 29 32 59 vhcurveto
            72 hlineto
            58 30 -34 -57 hvcurveto
            return
          </CharString>
          <CharString index="358">
            -50 -23 -34 -64 vhcurveto
            -54 hlineto
            -10 -5 -6 -10 hvcurveto
            -31 vlineto
            -10 4 -5 11 vhcurveto
            52 hlineto
            61 28 -33 -62 hvcurveto
            -27 vlineto
            -62 -31 -34 -58 vhcurveto
            -26 hlineto
            -59 -33 32 60 hvcurveto
            33 vlineto
            13 -5 5 -9 vhcurveto
            -38 hlineto
            -10 -5 -5 -13 hvcurveto
            -33 vlineto
            -96 57 -58 95 vhcurveto
            38 hlineto
            97 54 60 94 hvcurveto
            48 vlineto
            return
          </CharString>
          <CharString index="359">
            79 39 42 83 hvcurveto
            6 vlineto
            14 -6 6 -11 vhcurveto
            -28 hlineto
            -10 -7 -5 -13 hvcurveto
            -8 vlineto
            -48 -17 -19 -49 vhcurveto
            -75 hlineto
            -49 -17 19 48 hvcurveto
            8 vlineto
            13 -7 5 -9 vhcurveto
            -30 hlineto
            -11 -6 -6 -14 hvcurveto
            -6 vlineto
            -82 40 -43 79 vhcurveto
            return
          </CharString>
          <CharString index="360">
            10 5 5 10 hvcurveto
            38 vlineto
            10 -6 5 -9 vhcurveto
            -33 hlineto
            -9 -5 -5 -10 hvcurveto
            -38 vlineto
            -10 5 -5 9 vhcurveto
            return
          </CharString>
        <CharString name=".notdef">
          106 0 46 490 46 hstem
          120 50 260 50 vstem
          170 536 rmoveto
          260 -490 -260 hlineto
          -50 -46 rmoveto
          360 582 -360 hlineto
          endchar
        </CharString>
        <CharString name="A">
          46 21 -21 160 62 hstem
          87 hmoveto
          -98 callsubr
          231 568 rmoveto
          -97 callsubr
          endchar
        </CharString>
        <CharString name="AE">
          281 0 64 97 65 69 64 220 64 hstem
          375 72 vstem
          63 hmoveto
          -44 callsubr
          359 570 rmoveto
          4 -344 -186 hlineto
          endchar
        </CharString>
        <CharString name="AEacute">
          281 0 64 97 65 69 64 220 64 hstem
          375 72 vstem
          486 836 rmoveto
          -21 callsubr
          -483 -836 rmoveto
          -44 callsubr
          359 570 rmoveto
          4 -344 -186 hlineto
          endchar
        </CharString>
        <CharString name="Aacute">
          45 21 -21 160 62 hstem
          328 836 rmoveto
          -9 0 -8 -4 -4 -9 rrcurveto
          -58 -102 rlineto
          -5 -9 2 -5 9 0 rrcurveto
          33 hlineto
          7 0 7 4 6 6 rrcurveto
          87 105 rlineto
          6 8 -4 6 -9 0 rrcurveto
          -301 -836 rmoveto
          -98 callsubr
          231 568 rmoveto
          -97 callsubr
          endchar
        </CharString>
        <CharString name="Abreve">
          45 21 -21 160 62 485 40 hstem
          165 49 113 47 vstem
          165 825 rmoveto
          -12 vlineto
          -72 33 -34 62 vhcurveto
          18 hlineto
          62 34 34 72 hvcurveto
          12 vlineto
          8 -4 2 -7 vhcurveto
          -26 hlineto
          -7 -3 -2 -8 hvcurveto
          -10 vlineto
          -49 -15 -19 -40 vhcurveto
          -5 hlineto
          -38 -15 18 50 hvcurveto
          10 vlineto
          8 -4 3 -7 vhcurveto
          -27 hlineto
          -7 -4 -3 -8 hvcurveto
          -78 -825 rmoveto
          -98 callsubr
          231 568 rmoveto
          -97 callsubr
          endchar
        </CharString>
        <CharString name="Acircumflex">
          45 21 -21 160 62 hstem
          307 826 rmoveto
          -46 callsubr
          -284 -719 rmoveto
          -98 callsubr
          231 568 rmoveto
          -97 callsubr
          endchar
        </CharString>
        <CharString name="Adieresis">
          45 21 -21 160 62 485 129 hstem
          150 68 103 68 vstem
          150 721 rmoveto
          -45 callsubr
          171 -101 rmoveto
          -45 callsubr
          -234 -822 rmoveto
          -98 callsubr
          231 568 rmoveto
          -97 callsubr
          endchar
        </CharString>
        <CharString name="Agrave">
          45 21 -21 160 62 hstem
          231 823 rmoveto
          -4 9 -8 4 -9 0 rrcurveto
          -60 hlineto
          -9 0 -4 -6 6 -8 rrcurveto
          87 -105 rlineto
          5 -6 8 -4 7 0 rrcurveto
          33 hlineto
          9 0 2 5 -5 9 rrcurveto
          -202 -721 rmoveto
          -98 callsubr
          231 568 rmoveto
          -97 callsubr
          endchar
        </CharString>
        <CharString name="Amacron">
          45 21 -21 160 62 524 54 hstem
          370 746 rmoveto
          -15 callsubr
          -82 -746 rmoveto
          -98 callsubr
          231 568 rmoveto
          -97 callsubr
          endchar
        </CharString>
        <CharString name="Aogonek">
          45 -111 44 88 -21 160 62 hstem
          325 629 rmoveto
          -3 11 -6 3 -10 0 rrcurveto
          -72 hlineto
          -10 0 -6 -3 -3 -11 rrcurveto
          -187 -615 rlineto
          -3 -10 3 -4 9 0 rrcurveto
          50 hlineto
          9 0 3 3 3 11 rrcurveto
          47 146 242 0 45 -141 -61 -86 rlineto
          -15 -21 8 -23 34 0 rrcurveto
          37 43 11 19 11 -5 3 -21 hvcurveto
          -39 0 48 67 38 0 rlineto
          9 0 3 4 -3 10 rrcurveto
          -347 208 rmoveto
          103 346 4 0 103 -346 rlineto
          endchar
        </CharString>
        <CharString name="Aring">
          45 21 -21 160 62 475 33 109 33 hstem
          187 35 92 37 vstem
          284 697 rmoveto
          42 25 25 43 hvcurveto
          41 vlineto
          42 -25 24 -42 vhcurveto
          -31 hlineto
          -43 -23 -24 -42 hvcurveto
          -41 vlineto
          -43 23 -25 43 vhcurveto
          9 33 rmoveto
          -27 -13 14 29 hvcurveto
          23 vlineto
          29 13 14 27 vhcurveto
          13 hlineto
          27 12 -14 -29 hvcurveto
          -23 vlineto
          -29 -12 -14 -28 vhcurveto
          -187 -730 rmoveto
          -98 callsubr
          231 568 rmoveto
          -97 callsubr
          endchar
        </CharString>
        <CharString name="Atilde">
          45 21 -21 160 62 480 41 47 42 hstem
          160 39 142 40 vstem
          283 753 rmoveto
          14 29 3 8 16 0 rrcurveto
          20 5 -10 -38 hvcurveto
          -27 vlineto
          -8 3 -3 6 vhcurveto
          22 hlineto
          6 3 3 8 hvcurveto
          39 vlineto
          49 -14 29 -50 vhcurveto
          -27 0 -14 -9 -16 -35 -17 -37 -5 -8 -14 0 rrcurveto
          -20 -5 11 38 hvcurveto
          26 vlineto
          8 -3 2 -6 vhcurveto
          -21 hlineto
          -7 -2 -2 -8 hvcurveto
          -39 vlineto
          -48 13 -29 50 vhcurveto
          25 0 17 7 18 44 rrcurveto
          -196 -753 rmoveto
          -98 callsubr
          231 568 rmoveto
          -97 callsubr
          endchar
        </CharString>
        <CharString name="B">
          55 0 62 235 61 223 62 hstemhm
          79 73 252 71 -63 71 hintmask 11110100
          162 62 rmoveto
          -7 -3 3 7 hvcurveto
          216 vlineto
          6 3 3 7 vhcurveto
          158 hlineto
          63 29 -28 -57 hvcurveto
          -65 vlineto
          -56 -29 -29 -57 vhcurveto
          -164 296 rmoveto
          -7 -3 3 6 hvcurveto
          204 vlineto
          7 3 3 7 vhcurveto
          157 hlineto
          hintmask 11111000
          56 29 -29 -56 hvcurveto
          -53 vlineto
          -56 -31 -29 -57 vhcurveto
          -237 -344 rmoveto
          -11 5 -3 9 vhcurveto
          242 hlineto
          hintmask 11110100
          92 56 53 93 hvcurveto
          67 vlineto
          0 70 -45 40 -47 4 rrcurveto
          hintmask 11111000
          49 15 35 35 0 65 rrcurveto
          55 vlineto
          93 -56 53 -91 vhcurveto
          -235 hlineto
          -9 -5 -3 -11 hvcurveto
          endchar
        </CharString>
        <CharString name="C">
          47 0 64 515 64 hstem
          69 73 270 73 vstem
          337 hmoveto
          -96 callsubr
          endchar
        </CharString>
        <CharString name="CR">
          -494 endchar
        </CharString>
        <CharString name="Cacute">
          47 0 64 515 64 hstem
          69 73 270 73 vstem
          337 hmoveto
          -96 callsubr
          106 836 rmoveto
          -10 0 -7 -4 -5 -9 rrcurveto
          -57 -102 rlineto
          -5 -9 3 -5 8 0 rrcurveto
          33 hlineto
          7 0 8 4 5 6 rrcurveto
          87 105 rlineto
          6 8 -4 6 -9 0 rrcurveto
          endchar
        </CharString>
        <CharString name="Ccaron">
          47 0 64 515 64 hstem
          69 73 270 73 vstem
          337 hmoveto
          -96 callsubr
          78 707 rmoveto
          10 0 6 3 5 7 rrcurveto
          63 107 rlineto
          4 7 -1 5 -8 0 rrcurveto
          -34 hlineto
          -7 0 -4 -2 -3 -6 rrcurveto
          -47 -88 -48 88 rlineto
          -2 6 -5 2 -7 0 rrcurveto
          -33 hlineto
          -8 0 -2 -5 4 -7 rrcurveto
          63 -107 rlineto
          5 -7 6 -3 10 0 rrcurveto
          endchar
        </CharString>
        <CharString name="Ccedilla">
          47 -192 40 62 40 50 64 515 64 hstem
          69 73 172 42 56 73 vstem
          471 432 rmoveto
          9 5 4 10 hvcurveto
          49 vlineto
          93 -56 55 -92 vhcurveto
          -120 hlineto
          -92 -56 -55 -93 hvcurveto
          -347 vlineto
          -93 56 -55 92 vhcurveto
          53 0 -40 -46 rlineto
          -16 -18 9 -26 24 0 rrcurveto
          16 hlineto
          39 12 -6 -24 hvcurveto
          -3 vlineto
          -21 -12 -8 -39 vhcurveto
          -24 hlineto
          -10 -3 -3 -10 hvcurveto
          -14 vlineto
          -9 3 -4 10 vhcurveto
          31 hlineto
          53 33 19 45 hvcurveto
          13 vlineto
          48 -28 17 -49 vhcurveto
          0 4 44 46 14 0 rlineto
          92 56 55 93 hvcurveto
          49 vlineto
          10 -5 4 -9 vhcurveto
          -45 hlineto
          -9 -5 -4 -10 hvcurveto
          -46 vlineto
          -56 -27 -31 -57 vhcurveto
          -103 hlineto
          -56 -27 31 56 hvcurveto
          341 vlineto
          56 27 31 56 vhcurveto
          103 hlineto
          57 27 -31 -56 hvcurveto
          -46 vlineto
          -10 5 -4 9 vhcurveto
          endchar
        </CharString>
        <CharString name="Cdotaccent">
          47 0 64 515 64 68 125 hstem
          69 73 99 72 99 73 vstem
          cntrmask 00011100
          337 hmoveto
          -96 callsubr
          24 725 rmoveto
          -12 callsubr
          endchar
        </CharString>
        <CharString name="D">
          62 0 64 515 64 hstem
          79 73 262 73 vstem
          162 64 rmoveto
          -95 callsubr
          -251 -50 rmoveto
          -94 callsubr
          endchar
        </CharString>
        <CharString name="Dcaron">
          62 0 64 515 64 hstem
          79 73 262 73 vstem
          258 707 rmoveto
          34 hlineto
          9 0 6 3 5 7 rrcurveto
          63 107 rlineto
          4 7 -1 5 -8 0 rrcurveto
          -34 hlineto
          -7 0 -4 -2 -3 -6 rrcurveto
          -48 -88 -47 88 rlineto
          -3 6 -3 2 -8 0 rrcurveto
          -33 hlineto
          -8 0 -2 -5 4 -7 rrcurveto
          63 -107 rlineto
          5 -7 6 -3 10 0 rrcurveto
          -96 -643 rmoveto
          -95 callsubr
          -251 -50 rmoveto
          -94 callsubr
          endchar
        </CharString>
        <CharString name="Dcroat">
          35 0 64 275 56 184 64 hstem
          85 73 262 73 vstem
          168 64 rmoveto
          -7 -3 3 6 hvcurveto
          256 vlineto
          7 3 3 7 vhcurveto
          126 hlineto
          11 3 4 9 hvcurveto
          30 vlineto
          9 -3 4 -11 vhcurveto
          -126 hlineto
          -7 -3 3 7 hvcurveto
          165 vlineto
          6 3 3 7 vhcurveto
          168 hlineto
          57 27 -31 -56 hvcurveto
          -341 vlineto
          -56 -27 -31 -57 vhcurveto
          9 -64 rmoveto
          92 56 55 93 hvcurveto
          347 vlineto
          93 -56 55 -92 vhcurveto
          -246 hlineto
          -9 -5 -3 -11 hvcurveto
          -224 vlineto
          -7 -2 -3 -8 vhcurveto
          -37 hlineto
          -11 -3 -4 -9 hvcurveto
          -30 vlineto
          -9 3 -4 11 vhcurveto
          37 hlineto
          8 2 -3 -7 hvcurveto
          -315 vlineto
          -11 5 -3 9 vhcurveto
          endchar
        </CharString>
        <CharString name="E">
          -14 0 64 231 64 220 64 hstem
          79 73 vstem
          407 hmoveto
          -93 callsubr
          endchar
        </CharString>
        <CharString name="Eacute">
          -14 0 64 231 64 220 64 hstem
          79 73 vstem
          297 836 rmoveto
          -10 0 -7 -4 -5 -9 rrcurveto
          -57 -102 rlineto
          -5 -9 2 -5 9 0 rrcurveto
          33 hlineto
          7 0 7 4 5 6 rrcurveto
          88 105 rlineto
          6 8 -4 6 -9 0 rrcurveto
          50 -836 rmoveto
          -93 callsubr
          endchar
        </CharString>
        <CharString name="Ebreve">
          -14 0 64 231 64 220 64 64 40 hstemhm
          79 73 -11 49 113 47 hintmask 11110110
          141 825 rmoveto
          -12 vlineto
          -72 33 -34 63 vhcurveto
          17 hlineto
          62 34 34 72 hvcurveto
          12 vlineto
          8 -4 2 -7 vhcurveto
          -26 hlineto
          -7 -3 -2 -8 hvcurveto
          -10 vlineto
          -49 -15 -19 -40 vhcurveto
          -5 hlineto
          -38 -15 18 50 hvcurveto
          10 vlineto
          8 -4 3 -6 vhcurveto
          hintmask 11111010
          -28 hlineto
          -7 -4 -3 -8 hvcurveto
          266 -825 rmoveto
          -93 callsubr
          endchar
        </CharString>
        <CharString name="Ecaron">
          -14 0 64 231 64 220 64 hstem
          79 73 vstem
          235 707 rmoveto
          35 hlineto
          9 0 6 3 5 7 rrcurveto
          63 107 rlineto
          4 7 -1 5 -8 0 rrcurveto
          -34 hlineto
          -7 0 -4 -2 -3 -6 rrcurveto
          -47 -88 -48 88 rlineto
          -3 6 -4 2 -7 0 rrcurveto
          -33 hlineto
          -9 0 -1 -5 4 -7 rrcurveto
          63 -107 rlineto
          5 -7 6 -3 9 0 rrcurveto
          172 -707 rmoveto
          -93 callsubr
          endchar
        </CharString>
        <CharString name="Ecircumflex">
          -14 0 64 231 64 220 64 hstem
          79 73 vstem
          287 826 rmoveto
          -5 7 -6 3 -10 0 rrcurveto
          -34 hlineto
          -10 0 -5 -3 -5 -7 rrcurveto
          -64 -107 rlineto
          -4 -7 2 -5 8 0 rrcurveto
          34 hlineto
          7 0 4 2 3 6 rrcurveto
          47 88 48 -88 rlineto
          2 -6 4 -2 7 0 rrcurveto
          35 hlineto
          8 0 1 5 -4 7 rrcurveto
          57 -719 rmoveto
          -93 callsubr
          endchar
        </CharString>
        <CharString name="Edieresis">
          -14 0 64 231 64 220 64 64 129 hstemhm
          79 73 -22 69 102 69 hintmask 11110110
          130 721 rmoveto
          -42 callsubr
          171 -101 rmoveto
          -42 callsubr
          106 -822 rmoveto
          10 4 5 9 hvcurveto
          36 vlineto
          9 -4 5 -10 vhcurveto
          -245 hlineto
          hintmask 11111010
          -7 -3 3 6 hvcurveto
          213 vlineto
          6 3 3 7 vhcurveto
          214 hlineto
          10 4 5 9 hvcurveto
          36 vlineto
          9 -4 5 -10 vhcurveto
          -214 hlineto
          -7 -3 3 6 hvcurveto
          202 vlineto
          6 3 3 7 vhcurveto
          245 hlineto
          10 4 5 9 hvcurveto
          36 vlineto
          9 -4 5 -10 vhcurveto
          -314 hlineto
          -9 -5 -3 -11 hvcurveto
          -615 vlineto
          -11 5 -3 9 vhcurveto
          endchar
        </CharString>
        <CharString name="Edotaccent">
          -2 0 64 231 64 220 64 68 125 hstem
          79 73 61 73 vstem
          213 725 rmoveto
          -8 callsubr
          194 -822 rmoveto
          -93 callsubr
          endchar
        </CharString>
        <CharString name="Egrave">
          -14 0 64 231 64 220 64 hstem
          79 73 vstem
          221 823 rmoveto
          -43 callsubr
          128 -721 rmoveto
          -93 callsubr
          endchar
        </CharString>
        <CharString name="Emacron">
          -14 0 64 231 64 220 64 103 54 hstem
          79 73 vstem
          350 746 rmoveto
          -15 callsubr
          258 -746 rmoveto
          -93 callsubr
          endchar
        </CharString>
        <CharString name="Eng">
          45 -150 64 107 -21 hstem
          83 72 278 73 vstem
          358 -150 rmoveto
          91 57 56 92 hvcurveto
          631 vlineto
          11 -5 3 -9 vhcurveto
          -45 hlineto
          -9 -5 -3 -11 hvcurveto
          -479 -4 vlineto
          -275 485 rlineto
          -1 2 -4 6 -11 0 rrcurveto
          -42 hlineto
          -9 -4 -3 -11 hvcurveto
          -615 vlineto
          -11 4 -3 9 vhcurveto
          45 hlineto
          9 5 3 11 hvcurveto
          479 4 vlineto
          71 -119 132 -241 70 -120 rrcurveto
          -4 vlineto
          -65 -28 -30 -64 vhcurveto
          -23 hlineto
          -11 -3 -5 -9 hvcurveto
          -36 vlineto
          -9 3 -5 11 vhcurveto
          endchar
        </CharString>
        <CharString name="Eogonek">
          -14 -111 44 67 64 231 64 220 64 hstem
          79 73 vstem
          407 579 rmoveto
          10 4 5 9 hvcurveto
          36 vlineto
          9 -4 5 -10 vhcurveto
          -314 hlineto
          -9 -5 -3 -11 hvcurveto
          -615 vlineto
          -11 5 -3 9 vhcurveto
          224 0 -48 -67 rlineto
          -16 -21 8 -23 34 0 rrcurveto
          37 44 11 19 11 -5 3 -21 hvcurveto
          -40 0 49 67 48 0 rlineto
          10 4 5 9 hvcurveto
          36 vlineto
          9 -4 5 -10 vhcurveto
          -245 hlineto
          -7 -3 3 6 hvcurveto
          213 vlineto
          6 3 3 7 vhcurveto
          214 hlineto
          10 4 5 9 hvcurveto
          36 vlineto
          9 -4 5 -10 vhcurveto
          -214 hlineto
          -7 -3 3 6 hvcurveto
          202 vlineto
          6 3 3 7 vhcurveto
          endchar
        </CharString>
        <CharString name="Eth">
          35 0 64 232 57 226 64 hstem
          85 73 262 73 vstem
          168 64 rmoveto
          -7 -3 3 6 hvcurveto
          213 vlineto
          7 3 3 7 vhcurveto
          126 hlineto
          11 3 4 9 hvcurveto
          30 vlineto
          9 -3 5 -11 vhcurveto
          -126 hlineto
          -7 -3 3 6 hvcurveto
          208 vlineto
          6 3 3 7 vhcurveto
          168 hlineto
          57 27 -31 -56 hvcurveto
          -341 vlineto
          -56 -27 -31 -57 vhcurveto
          9 -64 rmoveto
          92 56 55 93 hvcurveto
          347 vlineto
          93 -56 55 -92 vhcurveto
          -246 hlineto
          -9 -5 -3 -11 hvcurveto
          -267 vlineto
          -6 -2 -3 -8 vhcurveto
          -37 hlineto
          -11 -3 -5 -9 hvcurveto
          -30 vlineto
          -9 3 -4 11 vhcurveto
          37 hlineto
          8 2 -3 -7 hvcurveto
          -272 vlineto
          -11 5 -3 9 vhcurveto
          endchar
        </CharString>
        <CharString name="Euro">
          36 0 62 169 53 71 53 173 62 hstem
          103 72 216 73 vstem
          316 hmoveto
          91 57 53 93 hvcurveto
          25 vlineto
          10 -5 4 -9 vhcurveto
          -45 hlineto
          -9 -5 -4 -10 hvcurveto
          -24 vlineto
          -56 -28 -29 -56 vhcurveto
          -47 hlineto
          -56 -29 29 56 hvcurveto
          84 139 vlineto
          12 3 5 10 hvcurveto
          23 vlineto
          10 -3 5 -12 vhcurveto
          -139 71 139 hlineto
          12 3 5 10 hvcurveto
          23 vlineto
          10 -3 5 -12 vhcurveto
          -139 88 hlineto
          56 29 29 56 vhcurveto
          47 hlineto
          56 28 -29 -56 hvcurveto
          -24 vlineto
          -10 5 -4 9 vhcurveto
          45 hlineto
          9 5 4 10 hvcurveto
          25 vlineto
          93 -57 53 -91 vhcurveto
          -65 hlineto
          -91 -57 -53 -93 hvcurveto
          -89 -55 vlineto
          -12 -3 -5 -10 hvcurveto
          -23 vlineto
          -10 3 -5 12 vhcurveto
          55 -71 -55 hlineto
          -12 -3 -5 -10 hvcurveto
          -23 vlineto
          -10 3 -5 12 vhcurveto
          55 -85 hlineto
          -93 57 -53 91 vhcurveto
          endchar
        </CharString>
        <CharString name="F">
          -37 21 -21 279 64 236 64 hstem
          79 73 vstem
          138 hmoveto
          9 5 3 11 hvcurveto
          255 vlineto
          7 3 3 7 vhcurveto
          214 hlineto
          10 4 4 10 hvcurveto
          36 vlineto
          9 -4 5 -10 vhcurveto
          -214 hlineto
          -7 -3 3 6 hvcurveto
          218 vlineto
          6 3 3 7 vhcurveto
          242 hlineto
          10 4 5 9 hvcurveto
          36 vlineto
          9 -4 5 -10 vhcurveto
          -311 hlineto
          -9 -5 -3 -11 hvcurveto
          -615 vlineto
          -11 5 -3 9 vhcurveto
          endchar
        </CharString>
        <CharString name="G">
          47 0 64 209 64 242 64 hstem
          69 73 257 73 vstem
          325 hmoveto
          -92 callsubr
          endchar
        </CharString>
        <CharString name="Gbreve">
          47 0 64 209 64 242 64 64 40 hstem
          69 73 25 48 113 47 24 73 vstem
          167 825 rmoveto
          -12 vlineto
          -72 33 -34 62 vhcurveto
          17 hlineto
          63 33 34 72 hvcurveto
          12 vlineto
          8 -3 2 -8 vhcurveto
          -26 hlineto
          -6 -4 -2 -8 hvcurveto
          -10 vlineto
          -49 -15 -19 -39 vhcurveto
          -6 hlineto
          -38 -15 18 50 hvcurveto
          10 vlineto
          8 -3 3 -7 vhcurveto
          -28 hlineto
          -7 -3 -3 -8 hvcurveto
          158 -825 rmoveto
          -92 callsubr
          endchar
        </CharString>
        <CharString name="Gcircumflex">
          47 0 64 209 64 242 64 hstem
          69 73 257 73 vstem
          309 826 rmoveto
          -6 callsubr
          -47 -719 rmoveto
          -92 callsubr
          endchar
        </CharString>
        <CharString name="Gdotaccent">
          47 0 64 209 64 242 64 68 125 hstem
          69 73 92 72 93 73 vstem
          234 725 rmoveto
          -12 callsubr
          91 -822 rmoveto
          -92 callsubr
          endchar
        </CharString>
        <CharString name="H">
          78 21 -21 293 64 hstem
          79 73 268 73 vstem
          138 hmoveto
          9 5 3 11 hvcurveto
          270 vlineto
          6 3 3 7 vhcurveto
          248 hlineto
          7 3 -3 -6 hvcurveto
          -270 vlineto
          -11 5 -3 9 vhcurveto
          45 hlineto
          9 5 3 11 hvcurveto
          615 vlineto
          11 -5 3 -9 vhcurveto
          -45 hlineto
          -9 -5 -3 -11 hvcurveto
          -263 vlineto
          -6 -3 -3 -7 vhcurveto
          -248 hlineto
          -7 -3 3 6 hvcurveto
          263 vlineto
          11 -5 3 -9 vhcurveto
          -45 hlineto
          -9 -5 -3 -11 hvcurveto
          -615 vlineto
          -11 5 -3 9 vhcurveto
          endchar
        </CharString>
        <CharString name="Hbar">
          54 21 -21 285 64 108 57 hstem
          89 73 268 73 vstem
          148 hmoveto
          9 5 3 11 hvcurveto
          262 vlineto
          6 2 3 8 vhcurveto
          248 hlineto
          7 3 -3 -6 hvcurveto
          -262 vlineto
          -11 5 -3 9 vhcurveto
          44 hlineto
          9 6 3 11 hvcurveto
          434 vlineto
          6 3 3 7 vhcurveto
          41 hlineto
          11 3 4 10 hvcurveto
          29 vlineto
          9 -3 5 -11 vhcurveto
          -41 hlineto
          -7 -3 3 7 hvcurveto
          105 vlineto
          11 -6 3 -9 vhcurveto
          -44 hlineto
          -9 -5 -3 -11 hvcurveto
          -106 vlineto
          -5 -2 -4 -8 vhcurveto
          -248 hlineto
          -8 -2 3 7 hvcurveto
          105 vlineto
          11 -5 3 -9 vhcurveto
          -45 hlineto
          -9 -5 -3 -11 hvcurveto
          -105 vlineto
          -7 -3 -3 -7 vhcurveto
          -41 hlineto
          -11 -3 -5 -9 hvcurveto
          -29 vlineto
          -10 3 -4 11 vhcurveto
          41 hlineto
          7 3 -3 -6 hvcurveto
          -434 vlineto
          -11 5 -3 9 vhcurveto
          69 349 rmoveto
          -7 -3 3 7 hvcurveto
          89 vlineto
          6 3 3 7 vhcurveto
          248 hlineto
          7 3 -3 -6 hvcurveto
          -89 vlineto
          -7 -3 -3 -7 vhcurveto
          endchar
        </CharString>
        <CharString name="I">
          -253 21 -21 hstem
          84 73 vstem
          157 629 rmoveto
          -91 callsubr
          endchar
        </CharString>
        <CharString name="IJ">
          236 0 64 hstem
          86 72 105 72 250 73 vstem
          599 643 rmoveto
          -9 -5 -4 -10 hvcurveto
          -478 vlineto
          -56 -27 -31 -57 vhcurveto
          -82 hlineto
          -56 -28 31 56 hvcurveto
          83 vlineto
          11 -4 3 -9 vhcurveto
          -46 hlineto
          -9 -4 -3 -11 hvcurveto
          -86 vlineto
          -93 56 -55 91 vhcurveto
          100 hlineto
          91 57 55 93 hvcurveto
          482 vlineto
          9 -5 4 -9 vhcurveto
          -486 -14 rmoveto
          11 -4 3 -9 vhcurveto
          -46 hlineto
          -8 -5 -3 -11 hvcurveto
          -615 vlineto
          -11 5 -3 8 vhcurveto
          46 hlineto
          9 4 3 11 hvcurveto
          endchar
        </CharString>
        <CharString name="Iacute">
          -253 21 -21 hstem
          84 73 vstem
          176 836 rmoveto
          -9 0 -7 -4 -5 -9 rrcurveto
          -58 -102 rlineto
          -4 -9 2 -5 8 0 rrcurveto
          33 hlineto
          8 0 7 4 5 6 rrcurveto
          87 105 rlineto
          7 8 -4 6 -9 0 rrcurveto
          -80 -207 rmoveto
          -91 callsubr
          endchar
        </CharString>
        <CharString name="Ibreve">
          -253 21 -21 707 40 hstem
          16 49 19 73 21 47 vstem
          16 825 rmoveto
          -3 callsubr
          141 -196 rmoveto
          -91 callsubr
          endchar
        </CharString>
        <CharString name="Icircumflex">
          -254 21 -21 hstem
          84 73 vstem
          157 826 rmoveto
          -5 7 -6 3 -9 0 rrcurveto
          -34 hlineto
          -10 0 -6 -3 -5 -7 rrcurveto
          -63 -107 rlineto
          -4 -7 2 -5 8 0 rrcurveto
          33 hlineto
          8 0 4 2 3 6 rrcurveto
          47 88 47 -88 rlineto
          3 -6 4 -2 7 0 rrcurveto
          34 hlineto
          8 0 1 5 -4 7 rrcurveto
          -63 -90 rmoveto
          -91 callsubr
          endchar
        </CharString>
        <CharString name="Idieresis">
          -254 21 -21 707 129 hstem
          0 69 15 73 14 69 vstem
          721 vmoveto
          -40 callsubr
          171 -101 rmoveto
          -39 callsubr
          -14 -193 rmoveto
          -91 callsubr
          endchar
        </CharString>
        <CharString name="Idotaccent">
          -253 21 -21 692 121 hstem
          84 73 vstem
          157 629 rmoveto
          -91 callsubr
          -73 692 rmoveto
          -10 4 -4 9 vhcurveto
          46 hlineto
          9 5 4 10 hvcurveto
          94 vlineto
          10 -5 3 -9 vhcurveto
          -46 hlineto
          -9 -4 -4 -10 hvcurveto
          endchar
        </CharString>
        <CharString name="Igrave">
          -253 21 -21 hstem
          84 73 vstem
          86 823 rmoveto
          -41 callsubr
          13 -92 rmoveto
          -91 callsubr
          endchar
        </CharString>
        <CharString name="Imacron">
          -254 21 -21 746 54 hstem
          84 73 vstem
          221 746 rmoveto
          -4 callsubr
          137 -117 rmoveto
          -91 callsubr
          endchar
        </CharString>
        <CharString name="Iogonek">
          -253 -111 44 hstem
          84 73 vstem
          98 643 rmoveto
          -9 -5 -3 -11 hvcurveto
          -615 vlineto
          0 -9 4 -4 6 -1 rrcurveto
          -48 -67 rlineto
          -16 -21 8 -23 35 0 rrcurveto
          37 43 11 19 11 -5 3 -20 hvcurveto
          -40 0 49 67 6 0 rlineto
          9 5 3 11 hvcurveto
          615 vlineto
          11 -5 3 -9 vhcurveto
          endchar
        </CharString>
        <CharString name="Itilde">
          -254 21 -21 702 41 47 42 hstem
          10 39 35 73 34 40 vstem
          134 753 rmoveto
          14 29 2 8 16 0 rrcurveto
          20 5 -10 -38 hvcurveto
          -27 vlineto
          -8 3 -3 7 vhcurveto
          21 hlineto
          6 3 3 8 hvcurveto
          39 vlineto
          49 -13 29 -50 vhcurveto
          -28 0 -13 -9 -17 -35 -17 -37 -5 -8 -13 0 rrcurveto
          -21 -5 11 38 hvcurveto
          26 vlineto
          8 -2 2 -7 vhcurveto
          -21 hlineto
          -6 -3 -2 -8 hvcurveto
          -39 vlineto
          -48 13 -29 50 vhcurveto
          25 0 18 7 18 44 rrcurveto
          23 -124 rmoveto
          -91 callsubr
          endchar
        </CharString>
        <CharString name="J">
          11 0 64 hstem
          36 73 250 72 vstem
          373 643 rmoveto
          -90 callsubr
          endchar
        </CharString>
        <CharString name="Jcircumflex">
          2 0 64 hstem
          36 73 250 72 vstem
          373 643 rmoveto
          -90 callsubr
          12 183 rmoveto
          -32 callsubr
          endchar
        </CharString>
        <CharString name="K">
          44 21 -21 hstem
          79 73 vstem
          138 hmoveto
          -89 callsubr
          endchar
        </CharString>
        <CharString name="L">
          -43 0 66 hstem
          79 73 vstem
          414 hmoveto
          -88 callsubr
          endchar
        </CharString>
        <CharString name="Lacute">
          -43 0 66 hstem
          79 73 vstem
          172 836 rmoveto
          2 callsubr
          182 -836 rmoveto
          -88 callsubr
          endchar
        </CharString>
        <CharString name="Lcaron">
          -43 0 66 hstemhm
          79 73 149 70 -70 22 hintmask 11100000
          371 630 rmoveto
          -10 callsubr
          hintmask 11010000
          5 callsubr
          hintmask 11100000
          6 callsubr
          43 -572 rmoveto
          -88 callsubr
          endchar
        </CharString>
        <CharString name="Ldot">
          5 0 66 184 137 hstem
          83 72 125 77 vstem
          417 hmoveto
          11 3 5 9 hvcurveto
          37 vlineto
          9 -3 6 -11 vhcurveto
          -251 hlineto
          -8 -3 3 6 hvcurveto
          554 vlineto
          11 -5 3 -9 vhcurveto
          -45 hlineto
          -9 -4 -3 -11 hvcurveto
          -615 vlineto
          -11 4 -3 9 vhcurveto
          261 374 rmoveto
          10 -5 3 -8 vhcurveto
          -51 hlineto
          -9 -4 -4 -10 hvcurveto
          -108 vlineto
          -10 4 -5 9 vhcurveto
          51 hlineto
          8 5 4 10 hvcurveto
          endchar
        </CharString>
        <CharString name="Lslash">
          13 0 66 hstem
          95 73 vstem
          430 hmoveto
          10 4 5 9 hvcurveto
          37 vlineto
          9 -4 6 -10 vhcurveto
          -252 hlineto
          -8 -2 3 6 hvcurveto
          0 315 95 54 rlineto
          10 5 4 6 0 9 rrcurveto
          38 vlineto
          0 9 -5 4 -9 -5 rrcurveto
          -95 -53 0 172 rlineto
          11 -5 3 -9 vhcurveto
          -45 hlineto
          -9 -5 -3 -11 hvcurveto
          0 -214 -70 -40 rlineto
          -10 -5 -4 -6 0 -9 rrcurveto
          -37 vlineto
          0 -9 5 -4 9 5 rrcurveto
          70 40 0 -336 rlineto
          -11 5 -3 9 vhcurveto
          endchar
        </CharString>
        <CharString name="M">
          211 21 -21 hstem
          79 71 404 72 vstem
          355 221 rmoveto
          -5 0 -164 414 rlineto
          -2 5 -3 3 -7 0 rrcurveto
          -81 hlineto
          -8 -6 -3 -11 hvcurveto
          -615 vlineto
          -11 6 -3 8 vhcurveto
          44 hlineto
          10 3 3 11 hvcurveto
          532 4 vlineto
          158 -393 rlineto
          3 -9 4 -4 10 0 rrcurveto
          48 hlineto
          9 0 5 4 4 9 rrcurveto
          155 392 4 0 0 -531 rlineto
          -11 5 -3 9 vhcurveto
          44 hlineto
          9 5 3 11 hvcurveto
          615 vlineto
          11 -5 3 -9 vhcurveto
          -81 hlineto
          -7 0 -4 -3 -1 -5 rrcurveto
          endchar
        </CharString>
        <CharString name="Mu">
          44 0 64 hstem
          80 72 234 73 vstem
          152 28 rmoveto
          29 -34 54 6 44 0 52 0 36 21 15 32 rrcurveto
          4 -39 hlineto
          -11 5 -3 9 vhcurveto
          44 hlineto
          10 5 3 11 hvcurveto
          482 vlineto
          11 -5 3 -10 vhcurveto
          -44 hlineto
          -9 -5 -3 -11 hvcurveto
          -340 vlineto
          -58 -33 -34 -60 vhcurveto
          -57 hlineto
          -56 -28 31 56 hvcurveto
          345 vlineto
          11 -4 3 -9 vhcurveto
          -46 hlineto
          -9 -4 -3 -11 hvcurveto
          -615 vlineto
          -11 4 -3 9 vhcurveto
          46 hlineto
          9 4 3 11 hvcurveto
          endchar
        </CharString>
        <CharString name="N">
          87 21 -21 hstem
          79 72 279 72 vstem
          137 hmoveto
          -87 callsubr
          endchar
        </CharString>
        <CharString name="NULL">
          -494 endchar
        </CharString>
        <CharString name="Nacute">
          87 21 -21 hstem
          79 72 279 72 vstem
          350 836 rmoveto
          -9 0 -7 -4 -5 -9 rrcurveto
          -58 -102 rlineto
          -5 -9 2 -5 9 0 rrcurveto
          33 hlineto
          8 0 7 4 5 6 rrcurveto
          87 105 rlineto
          6 8 -4 6 -9 0 rrcurveto
          -273 -836 rmoveto
          -87 callsubr
          endchar
        </CharString>
        <CharString name="Ncaron">
          87 21 -21 hstem
          79 72 279 72 vstem
          137 hmoveto
          -87 callsubr
          184 707 rmoveto
          35 hlineto
          9 0 6 3 5 7 rrcurveto
          63 107 rlineto
          4 7 -1 5 -8 0 rrcurveto
          -35 hlineto
          -6 0 -5 -2 -2 -6 rrcurveto
          -48 -88 -47 88 rlineto
          -3 6 -4 2 -7 0 rrcurveto
          -34 hlineto
          -8 0 -1 -5 4 -7 rrcurveto
          63 -107 rlineto
          5 -7 6 -3 9 0 rrcurveto
          endchar
        </CharString>
        <CharString name="Ntilde">
          87 21 -21 702 41 47 42 hstem
          79 72 30 39 142 40 28 72 vstem
          304 753 rmoveto
          14 29 3 8 16 0 rrcurveto
          20 5 -10 -38 hvcurveto
          -27 vlineto
          -8 3 -3 6 vhcurveto
          21 hlineto
          7 3 3 8 hvcurveto
          39 vlineto
          49 -14 29 -49 vhcurveto
          -28 0 -14 -9 -16 -35 -17 -37 -5 -8 -14 0 rrcurveto
          -20 -5 11 38 hvcurveto
          26 vlineto
          8 -3 2 -6 vhcurveto
          -21 hlineto
          -7 -2 -2 -8 hvcurveto
          -39 vlineto
          -48 13 -29 49 vhcurveto
          26 0 17 7 18 44 rrcurveto
          -167 -753 rmoveto
          -87 callsubr
          endchar
        </CharString>
        <CharString name="O">
          59 0 64 515 64 hstem
          69 73 269 73 vstem
          225 64 rmoveto
          -86 callsubr
          9 -64 rmoveto
          -85 callsubr
          endchar
        </CharString>
        <CharString name="OE">
          283 0 64 231 64 220 64 hstem
          73 73 224 72 vstem
          73 148 rmoveto
          -93 56 -55 91 vhcurveto
          473 hlineto
          11 4 5 9 hvcurveto
          36 vlineto
          9 -4 5 -11 vhcurveto
          -241 hlineto
          -7 -3 3 6 hvcurveto
          213 vlineto
          6 3 3 7 vhcurveto
          210 hlineto
          11 3 5 9 hvcurveto
          36 vlineto
          9 -3 5 -11 vhcurveto
          -210 hlineto
          -7 -3 3 6 hvcurveto
          202 vlineto
          6 3 3 7 vhcurveto
          241 hlineto
          11 4 5 9 hvcurveto
          36 vlineto
          9 -4 5 -11 vhcurveto
          -473 hlineto
          -91 -56 -55 -93 hvcurveto
          156 -431 rmoveto
          -56 -27 31 56 hvcurveto
          341 vlineto
          56 27 31 56 vhcurveto
          130 hlineto
          8 3 -3 -6 hvcurveto
          -497 vlineto
          -6 -3 -3 -8 vhcurveto
          endchar
        </CharString>
        <CharString name="Oacute">
          59 0 64 515 64 hstem
          69 73 269 73 vstem
          324 836 rmoveto
          -38 callsubr
          -160 -772 rmoveto
          -86 callsubr
          9 -64 rmoveto
          -85 callsubr
          endchar
        </CharString>
        <CharString name="Obreve">
          59 0 64 515 64 64 40 hstem
          69 73 30 49 112 48 30 73 vstem
          172 825 rmoveto
          -12 vlineto
          -72 33 -34 62 vhcurveto
          18 hlineto
          62 34 34 72 hvcurveto
          12 vlineto
          8 -4 2 -7 vhcurveto
          -26 hlineto
          -7 -4 -2 -8 hvcurveto
          -10 vlineto
          -49 -14 -19 -40 vhcurveto
          -5 hlineto
          -38 -15 18 50 hvcurveto
          10 vlineto
          8 -4 3 -7 vhcurveto
          -27 hlineto
          -7 -4 -3 -8 hvcurveto
          53 -761 rmoveto
          -86 callsubr
          9 -64 rmoveto
          -85 callsubr
          endchar
        </CharString>
        <CharString name="Ocircumflex">
          59 0 64 515 64 hstem
          69 73 269 73 vstem
          315 826 rmoveto
          -5 7 -6 3 -9 0 rrcurveto
          -35 hlineto
          -9 0 -6 -3 -5 -7 rrcurveto
          -63 -107 rlineto
          -4 -7 1 -5 8 0 rrcurveto
          34 hlineto
          7 0 4 2 3 6 rrcurveto
          47 88 48 -88 rlineto
          2 -6 5 -2 7 0 rrcurveto
          34 hlineto
          8 0 1 5 -4 7 rrcurveto
          -153 -655 rmoveto
          -86 callsubr
          9 -64 rmoveto
          -85 callsubr
          endchar
        </CharString>
        <CharString name="Odieresis">
          59 0 64 515 64 64 129 hstem
          69 73 14 69 102 69 15 73 vstem
          156 721 rmoveto
          -37 callsubr
          171 -101 rmoveto
          -37 callsubr
          -102 -758 rmoveto
          -86 callsubr
          9 -64 rmoveto
          -85 callsubr
          endchar
        </CharString>
        <CharString name="Ograve">
          59 0 64 515 64 hstem
          69 73 269 73 vstem
          244 823 rmoveto
          -5 9 -7 4 -10 0 rrcurveto
          -60 hlineto
          -9 0 -3 -6 6 -8 rrcurveto
          87 -105 rlineto
          5 -6 7 -4 7 0 rrcurveto
          34 hlineto
          8 0 3 5 -5 9 rrcurveto
          -77 -657 rmoveto
          -86 callsubr
          9 -64 rmoveto
          -85 callsubr
          endchar
        </CharString>
        <CharString name="Ohungarumlaut">
          59 0 64 515 64 hstem
          69 73 269 73 vstem
          265 836 rmoveto
          -10 0 -6 -3 -6 -10 rrcurveto
          -56 -102 rlineto
          -5 -9 2 -5 9 0 rrcurveto
          23 hlineto
          7 0 7 4 5 6 rrcurveto
          77 105 rlineto
          6 9 -4 5 -9 0 rrcurveto
          92 hmoveto
          -10 0 -6 -3 -6 -10 rrcurveto
          -56 -102 rlineto
          -5 -9 2 -5 9 0 rrcurveto
          23 hlineto
          7 0 6 4 6 6 rrcurveto
          77 105 rlineto
          7 9 -5 5 -9 0 rrcurveto
          -212 -772 rmoveto
          -86 callsubr
          9 -64 rmoveto
          -85 callsubr
          endchar
        </CharString>
        <CharString name="Omacron">
          59 0 64 515 64 103 54 hstem
          69 73 269 73 vstem
          377 746 rmoveto
          10 4 5 9 hvcurveto
          26 vlineto
          9 -4 5 -10 vhcurveto
          -202 hlineto
          -10 -4 -5 -9 hvcurveto
          -26 vlineto
          -9 4 -5 10 vhcurveto
          50 -682 rmoveto
          -86 callsubr
          9 -64 rmoveto
          -85 callsubr
          endchar
        </CharString>
        <CharString name="Oslash">
          71 0 64 515 64 hstem
          73 73 273 72 vstem
          498 637 rmoveto
          -36 callsubr
          -367 -135 rmoveto
          -35 callsubr
          273 -20 rmoveto
          -34 callsubr
          endchar
        </CharString>
        <CharString name="Oslashacute">
          70 0 64 515 64 hstem
          73 73 273 72 vstem
          498 637 rmoveto
          -36 callsubr
          -367 -135 rmoveto
          -35 callsubr
          273 -20 rmoveto
          -34 callsubr
          -130 235 rmoveto
          8 0 7 4 5 6 rrcurveto
          87 105 rlineto
          7 8 -5 6 -8 0 rrcurveto
          -61 hlineto
          -9 0 -7 -4 -5 -9 rrcurveto
          -58 -102 rlineto
          -5 -9 3 -5 8 0 rrcurveto
          endchar
        </CharString>
        <CharString name="Otilde">
          59 0 64 515 64 59 41 47 42 hstem
          69 73 24 39 142 39 25 73 vstem
          289 753 rmoveto
          14 29 3 8 16 0 rrcurveto
          20 5 -10 -38 hvcurveto
          -27 vlineto
          -8 3 -3 7 vhcurveto
          21 hlineto
          6 2 3 8 hvcurveto
          39 vlineto
          49 -13 29 -49 vhcurveto
          -28 0 -14 -9 -16 -35 -17 -37 -5 -8 -14 0 rrcurveto
          -20 -5 11 38 hvcurveto
          26 vlineto
          8 -2 2 -7 vhcurveto
          -21 hlineto
          -6 -3 -2 -8 hvcurveto
          -39 vlineto
          -48 13 -29 50 vhcurveto
          25 0 18 7 17 44 rrcurveto
          -64 -689 rmoveto
          -86 callsubr
          9 -64 rmoveto
          -85 callsubr
          endchar
        </CharString>
</ttFont>
